<?xml version="1.0" encoding="iso-8859-1"?>
<!-- Generator: Adobe Illustrator 19.0.0, SVG Export Plug-In . SVG Version: 6.00 Build 0)  -->
<svg version="1.1" id="Capa_1" xmlns="http://www.w3.org/2000/svg" xmlns:xlink="http://www.w3.org/1999/xlink" x="0px" y="0px"
	 viewBox="0 0 512.001 512.001" style="enable-background:new 0 0 512.001 512.001;" xml:space="preserve">
<path style="fill:#93CFE9;" d="M435.005,268.552c29.891-12.917,79.47-60.373,67.778-87.43
	c-11.693-27.058-80.229-23.472-110.12-10.554c-29.891,12.917-44.644,45.323-32.951,72.38
	C371.403,270.005,405.114,281.469,435.005,268.552z"/>
<path style="fill:#83CCEB;" d="M435.005,268.552c29.891-12.917,79.47-60.373,67.778-87.43
	c-11.693-27.058-80.229-23.472-110.12-10.554c-29.891,12.917-44.644,45.323-32.951,72.38
	C371.403,270.005,405.114,281.469,435.005,268.552z"/>
<g>
	<path style="fill:#93CFE9;" d="M114.723,482.496L114.723,482.496c-26.628,0-43.057-29.072-29.318-51.883l53.701-89.16h55.388
		l-48.011,119.571C141.274,473.996,128.701,482.496,114.723,482.496z"/>
	<path style="fill:#93CFE9;" d="M191.731,482.496L191.731,482.496c-25.786,0-43.406-26.061-33.797-49.991l36.56-91.052h55.388
		l-22.444,111.792C224.023,470.256,209.081,482.496,191.731,482.496z"/>
	<path style="fill:#93CFE9;" d="M267.578,482.496L267.578,482.496c-23.797,0-41.639-21.78-36.955-45.112l19.26-95.931h55.388v103.35
		C305.271,465.621,288.394,482.496,267.578,482.496z"/>
</g>
<g style="opacity:0.15;">
	<path style="fill:#83CCEB;" d="M114.723,482.496L114.723,482.496c-26.628,0-43.057-29.072-29.318-51.883l53.701-89.16h55.388
		l-48.011,119.571C141.274,473.996,128.701,482.496,114.723,482.496z"/>
	<path style="fill:#83CCEB;" d="M191.731,482.496L191.731,482.496c-25.786,0-43.406-26.061-33.797-49.991l36.56-91.052h55.388
		l-22.444,111.792C224.023,470.256,209.081,482.496,191.731,482.496z"/>
	<path style="fill:#83CCEB;" d="M267.578,482.496L267.578,482.496c-23.797,0-41.639-21.78-36.955-45.112l19.26-95.931h55.388v103.35
		C305.271,465.621,288.394,482.496,267.578,482.496z"/>
</g>
<path style="fill:#AEEAF9;" d="M418.146,248.007c0-105.794-72.594-191.556-162.144-191.556S93.857,142.213,93.857,248.007
	S166.451,387.96,256.001,387.96S418.146,353.8,418.146,248.007z"/>
<g>
	<ellipse style="fill:#FFA6BB;" cx="213.49" cy="207.317" rx="29.074" ry="23.153"/>
	<ellipse style="fill:#FFA6BB;" cx="371.08" cy="207.317" rx="29.074" ry="23.153"/>
</g>
<path style="fill:#FBDD56;" d="M288.15,165.324l-18.938,22.864c-3.239,3.911-2.771,9.692,1.055,13.032l15.729,13.727
	c3.603,3.144,8.975,3.144,12.579,0l15.729-13.727c3.826-3.339,4.295-9.12,1.055-13.032l-18.938-22.864
	C294.273,162.732,290.298,162.732,288.15,165.324z"/>
<path style="opacity:0.1;enable-background:new    ;" d="M291.071,163.526c-1.098,0.253-2.133,0.848-2.92,1.798l-18.938,22.864
	c-3.239,3.911-2.772,9.692,1.054,13.032l15.729,13.727c3.033,2.647,7.317,3.056,10.746,1.247
	C281.107,209.028,287.202,175.123,291.071,163.526z"/>
<path style="opacity:0.05;enable-background:new    ;" d="M249.593,56.613c-86.577,3.978-155.735,88.138-155.735,191.394
	c0,105.794,72.595,139.953,162.144,139.953c26.863,0,52.196-3.079,74.506-10.238C127.024,335.87,198.382,103.201,249.593,56.613z"/>
<g>
	<path style="fill:#FBDD56;" d="M239.787,414.795L239.787,414.795c-10.48,0-18.976-8.496-18.976-18.977v-20.982
		c0-10.48,8.496-18.976,18.976-18.976l0,0c10.48,0,18.976,8.496,18.976,18.976v20.982
		C258.764,406.298,250.267,414.795,239.787,414.795z"/>
	<path style="fill:#FBDD56;" d="M338.325,414.795L338.325,414.795c10.48,0,18.976-8.496,18.976-18.977v-20.982
		c0-10.48-8.496-18.976-18.976-18.976l0,0c-10.48,0-18.977,8.496-18.977,18.976v20.982
		C319.347,406.298,327.845,414.795,338.325,414.795z"/>
</g>
<path style="fill:#93CFE9;" d="M76.999,268.552c-29.891-12.918-79.47-60.373-67.778-87.43s80.23-23.472,110.12-10.554
	c29.891,12.917,44.644,45.323,32.951,72.38C140.6,270.005,106.89,281.469,76.999,268.552z"/>
<path style="fill:#83CCEB;" d="M76.999,268.552c-29.891-12.918-79.47-60.373-67.778-87.43s80.23-23.472,110.12-10.554
	c29.891,12.917,44.644,45.323,32.951,72.38C140.6,270.005,106.89,281.469,76.999,268.552z"/>
<path d="M332.795,182.126c0,4.144,3.357,7.501,7.501,7.501s7.501-3.357,7.501-7.501c0-3.494,2.843-6.338,6.337-6.338
	c3.494,0,6.338,2.843,6.338,6.338c0,4.144,3.357,7.501,7.501,7.501c4.144,0,7.501-3.357,7.501-7.501
	c0-11.768-9.572-21.34-21.34-21.34C342.368,160.786,332.795,170.358,332.795,182.126z M209.098,182.126
	c0,4.144,3.358,7.501,7.501,7.501s7.501-3.357,7.501-7.501c0-3.494,2.842-6.338,6.337-6.338s6.337,2.843,6.337,6.338
	c0,4.144,3.358,7.501,7.501,7.501c4.143,0,7.501-3.357,7.501-7.501c0-11.768-9.572-21.34-21.339-21.34
	S209.098,170.358,209.098,182.126z M509.668,178.145c-5.916-13.69-22.41-22.105-47.7-24.337c-17.16-1.513-37.444,0.085-54.556,4.178
	c-5.198-11.974-11.469-23.407-18.791-34.163c-2.332-3.424-6.997-4.311-10.422-1.979c-3.424,2.331-4.311,6.998-1.979,10.422
	c22.2,32.609,34.427,73.715,34.427,115.742c0,50.971-17.714,87.636-52.653,109.123c-4.85-5.382-11.87-8.771-19.668-8.771
	c-14.601,0-26.478,11.879-26.478,26.478v0.125c-13.801,3.024-29.079,4.813-45.582,5.33v-5.455c0-14.6-11.878-26.478-26.477-26.478
	s-26.478,11.879-26.478,26.478v2.551c-29.597-4.571-53.636-14.266-71.51-28.903c-19.69-16.124-32.277-38.697-37.545-67.145
	c6.678-0.187,13.291-1.341,19.631-3.498c16.253-5.526,28.787-16.862,35.293-31.918c6.506-15.057,6.172-31.952-0.941-47.576
	c-6.996-15.368-19.753-27.68-35.921-34.666c-1.03-0.445-2.095-0.878-3.191-1.298c12.432-28.092,30.732-51.917,53.287-69.215
	c24.921-19.114,53.826-29.217,83.59-29.217c34.597,0,67.315,13.313,94.617,38.497c3.045,2.81,7.791,2.617,10.599-0.428
	c2.809-3.044,2.617-7.79-0.428-10.599c-29.864-27.548-65.738-42.212-103.803-42.461C245.71,29.359,223.18,18.739,200.53,22.898
	c-4.075,0.747-6.772,4.656-6.025,8.73c0.747,4.076,4.66,6.773,8.731,6.025c13.617-2.497,27.173,2.394,36.025,12.265
	c-27.105,3.119-53.094,13.794-75.981,31.348c-24.999,19.173-45.169,45.596-58.622,76.709c-14.528-3.496-31.628-5.239-47.496-4.615
	c-28.938,1.129-48.409,9.932-54.829,24.787c-6.42,14.857,0.513,35.07,19.522,56.917c15.103,17.359,35.58,33.206,52.167,40.374
	c4.813,2.079,9.761,3.6,14.76,4.589c4.732,29.607,16.47,53.877,34.987,72.352l-22.893,38.009c-2.137,3.548-0.993,8.157,2.555,10.295
	c1.211,0.729,2.545,1.076,3.863,1.076c2.543,0,5.025-1.294,6.433-3.632l21.519-35.727c20.093,15.434,46.298,25.575,78.063,30.172
	v3.244c0,14.6,11.878,26.478,26.478,26.478c14.6,0,26.477-11.879,26.477-26.478v-0.519c11.012-0.33,21.535-1.201,31.505-2.601
	v52.106c0,16.648-13.545,30.193-30.193,30.193c-9.085,0-17.597-4.031-23.355-11.059c-5.758-7.028-8.034-16.168-6.246-25.076
	l0.979-4.879c0.815-4.061-1.816-8.015-5.878-8.83c-4.061-0.814-8.015,1.816-8.831,5.878l-4.164,20.739
	c-2.701,13.459-14.626,23.228-28.354,23.228c-9.759,0-18.49-4.638-23.957-12.723c-5.467-8.085-6.516-17.916-2.879-26.973
	c1.543-3.845-0.321-8.212-4.166-9.756c-3.846-1.546-8.212,0.321-9.755,4.166l-11.451,28.519
	c-4.09,10.186-13.824,16.767-24.799,16.767c-9.764,0-18.462-5.075-23.266-13.577c-4.804-8.501-4.664-18.569,0.374-26.936
	l1.693-2.811c2.137-3.548,0.993-8.158-2.555-10.295c-3.55-2.138-8.159-0.993-10.296,2.556l-1.693,2.811
	c-7.866,13.06-8.085,28.781-0.584,42.055c7.5,13.274,21.081,21.198,36.328,21.198c16.374,0,30.979-9.383,37.817-24.091
	c0.828,1.636,1.763,3.228,2.805,4.77c8.179,12.1,21.782,19.322,36.386,19.322c15.651,0,29.76-8.361,37.557-21.179
	c1.005,1.597,2.116,3.142,3.329,4.625c8.618,10.519,21.36,16.554,34.96,16.554c24.92,0,45.195-20.275,45.195-45.195v-42.06
	c3.052,11.25,13.349,19.553,25.553,19.553c14.601,0,26.478-11.879,26.478-26.478v-20.982c0-1.392-0.11-2.759-0.318-4.095
	c32.581-19.436,52.271-49.855,58.765-90.736c5.042-0.99,9.977-2.513,14.73-4.568c16.587-7.168,37.064-23.016,52.167-40.374
	C509.155,213.216,516.088,193.002,509.668,178.145z M96.757,266.079c-0.288-0.053-0.581-0.086-0.878-0.105
	c-5.375-0.643-10.733-2.072-15.905-4.308c-14.46-6.249-33.267-20.897-46.799-36.45c-14.575-16.752-20.956-32.124-17.068-41.118
	c3.888-8.996,19.455-14.884,41.642-15.749c1.892-0.073,3.806-0.109,5.74-0.109c14.98,0,30.884,2.182,43.39,5.856
	c0.073,0.023,0.146,0.044,0.22,0.064c3.362,0.996,6.491,2.093,9.268,3.293c12.746,5.508,22.767,15.136,28.218,27.111
	c5.334,11.718,5.627,24.293,0.823,35.41c-4.804,11.116-14.162,19.521-26.351,23.666C111.928,266.063,104.336,266.863,96.757,266.079
	z M251.263,395.818c0,6.328-5.148,11.477-11.475,11.477s-11.477-5.149-11.477-11.477v-20.982c0-6.328,5.148-11.477,11.477-11.477
	c6.328,0,11.475,5.148,11.475,11.477V395.818z M349.801,395.818c0,6.328-5.149,11.477-11.477,11.477
	c-6.328,0-11.477-5.149-11.477-11.477v-20.982c0-6.328,5.149-11.477,11.477-11.477c6.328,0,11.477,5.148,11.477,11.477V395.818z
	 M478.828,225.216c-13.532,15.554-32.34,30.202-46.8,36.45c-2.272,0.982-4.598,1.803-6.959,2.48
	c0.383-5.231,0.577-10.61,0.577-16.141c0-26.53-4.331-52.14-12.705-75.924c33.672-7.628,75.953-4.191,82.955,12.015
	C499.784,193.092,493.404,208.464,478.828,225.216z M292.284,155.88c-3.845,0-7.458,1.698-9.91,4.66l-18.938,22.864
	c-5.881,7.099-5.047,17.406,1.898,23.467l15.729,13.727c3.198,2.792,7.21,4.189,11.222,4.189c4.011,0,8.023-1.396,11.221-4.189
	l15.729-13.726c6.945-6.061,7.779-16.369,1.899-23.468l-18.938-22.865C299.742,157.577,296.129,155.879,292.284,155.88z
	 M309.371,195.568l-15.729,13.727c-0.774,0.677-1.941,0.676-2.714,0l-15.729-13.728c-0.768-0.67-0.86-1.809-0.21-2.594
	l17.296-20.882l17.296,20.882C310.231,193.759,310.139,194.897,309.371,195.568z"/>
<g>
</g>
<g>
</g>
<g>
</g>
<g>
</g>
<g>
</g>
<g>
</g>
<g>
</g>
<g>
</g>
<g>
</g>
<g>
</g>
<g>
</g>
<g>
</g>
<g>
</g>
<g>
</g>
<g>
</g>
</svg>
