<?xml version="1.0" encoding="iso-8859-1"?>
<!-- Generator: Adobe Illustrator 19.0.0, SVG Export Plug-In . SVG Version: 6.00 Build 0)  -->
<svg version="1.1" id="Capa_1" xmlns="http://www.w3.org/2000/svg" xmlns:xlink="http://www.w3.org/1999/xlink" x="0px" y="0px"
	 viewBox="0 0 480.003 480.003" style="enable-background:new 0 0 480.003 480.003;" xml:space="preserve">
<g>
	<path style="fill:#A97C50;" d="M72.001,376.003h160v64h-160V376.003z"/>
	<path style="fill:#A97C50;" d="M72.001,328.003h-32h-32v112h16h32h16v-64V328.003z"/>
	<path style="fill:#A97C50;" d="M232.001,328.003v48v64h16h32h16v-112h-32H232.001z"/>
</g>
<g>
	<path style="fill:#8B5E3C;" d="M72.001,376.003h160v-48h32v-80c0-17.673-14.327-32-32-32h-160c-17.673,0-32,14.327-32,32v80h32
		V376.003z"/>
	<path style="fill:#8B5E3C;" d="M24.001,440.003h32v32h-32V440.003z"/>
	<path style="fill:#8B5E3C;" d="M248.001,440.003h32v32h-32V440.003z"/>
</g>
<path style="fill:#DCF4CA;" d="M368.001,8.003l-40,128h72h72l-40-128H368.001z"/>
<path style="fill:#B39A7C;" d="M336.001,440.003h128v32h-128V440.003z"/>
<path style="fill:#C49A6C;" d="M256.001,40.003h-208v128h208V40.003z M232.001,144.003h-160v-80h160V144.003z"/>
<path style="fill:#DDFFFB;" d="M72.001,64.003h160v80h-160V64.003z"/>
<g>
	<path style="fill:#231F20;" d="M296.001,320.003h-24v-72c-0.026-22.08-17.92-39.974-40-40h-160c-22.08,0.026-39.974,17.92-40,40v72
		h-24c-4.418,0-8,3.582-8,8v112c0,4.418,3.582,8,8,8h8v24c0,4.418,3.582,8,8,8h32c4.418,0,8-3.582,8-8v-24h176v24
		c0,4.418,3.582,8,8,8h32c4.418,0,8-3.582,8-8v-24h8c4.418,0,8-3.582,8-8v-112C304.001,323.585,300.42,320.003,296.001,320.003z
		 M48.001,248.003c0-13.255,10.745-24,24-24h160c13.255,0,24,10.745,24,24v72h-24c-4.418,0-8,3.582-8,8v40h-144v-40
		c0-4.418-3.582-8-8-8h-24V248.003z M16.001,336.003h48v96h-48V336.003z M48.001,464.003h-16v-16h16V464.003z M80.001,384.003h144
		v48h-144V384.003z M272.001,464.003h-16v-16h16V464.003z M288.001,432.003h-48v-96h48V432.003z"/>
	<path style="fill:#231F20;" d="M479.633,133.603l-40-128c-1.048-3.333-4.138-5.6-7.632-5.6h-64c-3.494,0-6.584,2.267-7.632,5.6
		l-40,128c-1.325,4.215,1.017,8.706,5.232,10.032c0.777,0.244,1.586,0.369,2.4,0.368h64v288h-56c-4.418,0-8,3.582-8,8v32
		c0,4.418,3.582,8,8,8h128c4.418,0,8-3.582,8-8v-32c0-4.418-3.582-8-8-8h-56v-288h64c4.418,0,8-3.581,8-8
		C480.002,135.189,479.878,134.38,479.633,133.603z M456.001,448.003v16h-112v-16H456.001z M338.881,128.003l35-112h52.24l35,112
		H338.881z"/>
	<path style="fill:#231F20;" d="M264.001,32.003h-69.184L157.001,1.755c-2.923-2.34-7.077-2.34-10,0l-37.816,30.248H40.001v144h224
		V32.003z M152.001,18.243l17.192,13.76h-34.4L152.001,18.243z M248.001,160.003h-192v-112h192V160.003z"/>
	<path style="fill:#231F20;" d="M64.001,152.003h176v-96h-176V152.003z M80.001,72.003h144v64h-144V72.003z"/>
</g>
<g>
</g>
<g>
</g>
<g>
</g>
<g>
</g>
<g>
</g>
<g>
</g>
<g>
</g>
<g>
</g>
<g>
</g>
<g>
</g>
<g>
</g>
<g>
</g>
<g>
</g>
<g>
</g>
<g>
</g>
</svg>
