<svg id="Layer_3" enable-background="new 0 0 64 64" height="512" viewBox="0 0 64 64" width="512" xmlns="http://www.w3.org/2000/svg"><g><g><path d="m26 18h2v4h-2z" fill="#4c506e"/></g><path d="m23 16v2c0 1.105-.895 2-2 2-1.105 0-2-.895-2-2v-2" fill="#4c506e"/><g><path d="m24 21h6v2h-6z" fill="#787faa"/></g><g><path d="m29 20h2v4h-2z" fill="#4c506e"/></g><g><path d="m23 20h2v4h-2z" fill="#4c506e"/></g><g><path d="m46 18h2v4h-2z" fill="#4c506e"/></g><path d="m51 16v2c0 1.105.895 2 2 2 1.105 0 2-.895 2-2v-2" fill="#4c506e"/><g><path d="m36 2h2v8h-2z" fill="#787faa"/></g><path d="m40 16h2v3l-5 1-5-1v-3h2" fill="#3d54bd"/><g fill="#546ded"><circle cx="37" cy="13" r="4"/><path d="m14 40v4h-10v-4"/><path d="m30 58v-10h-26v10"/></g><path d="m8 58v-6h18v6" fill="#acc9fb"/><path d="m9 53h16v6h-16z" fill="#fff"/><path d="m2 58h30v4h-30z" fill="#4c506e"/><g><path d="m16 53h2v5h-2z" fill="#4c506e"/></g><path d="m16 40c0-3.866-3.134-7-7-7s-7 3.134-7 7z" fill="#4c506e"/><g><path d="m8 28h2v6h-2z" fill="#9da1bf"/></g><path d="m40.85 14.026 8.274-1.034-.248-1.984-8.014 1.002c.081.318.138.646.138.99 0 .357-.062.697-.15 1.026z" fill="#787faa"/><g><path d="m44 21h6v2h-6z" fill="#787faa"/></g><path d="m32 16-20-2v2l20 3" fill="#546ded"/><path d="m33.138 12.01-8.014-1.002-.248 1.984 8.274 1.034c-.088-.329-.15-.669-.15-1.026 0-.344.057-.672.138-.99z" fill="#787faa"/><g><path d="m29 34h2v10h-2z" fill="#c8cded"/></g><g><path d="m33.535 37.536-1.414-1.415c.566-.566.879-1.319.879-2.121s-.313-1.555-.879-2.121l1.414-1.415c.944.944 1.465 2.2 1.465 3.536s-.521 2.592-1.465 3.536z" fill="#9da1bf"/></g><g><path d="m26.465 37.536c-.944-.944-1.465-2.2-1.465-3.536s.521-2.592 1.465-3.536l1.414 1.415c-.567.566-.879 1.319-.879 2.121s.312 1.555.879 2.121z" fill="#9da1bf"/></g><g><path d="m24.343 39.657c-1.511-1.511-2.343-3.52-2.343-5.657s.832-4.146 2.343-5.657l1.414 1.414c-1.133 1.133-1.757 2.64-1.757 4.243s.624 3.11 1.757 4.243z" fill="#858bb5"/></g><g><path d="m35.657 39.657-1.414-1.414c1.133-1.133 1.757-2.64 1.757-4.243s-.624-3.11-1.758-4.243l1.414-1.414c1.512 1.511 2.344 3.52 2.344 5.657s-.832 4.146-2.343 5.657z" fill="#858bb5"/></g><path d="m4 58v.667c0 .736.895 1.333 2 1.333h22c1.105 0 2-.597 2-1.333v-.667z" fill="#787faa"/><path d="m2 44h30v4h-30z" fill="#4c506e"/><path d="m4 44v.667c0 .736.895 1.333 2 1.333h22c1.105 0 2-.597 2-1.333v-.667z" fill="#787faa"/><path d="m28 51h-22c-.552 0-1-.448-1-1 0-.552.448-1 1-1h22c.552 0 1 .448 1 1 0 .552-.448 1-1 1z" fill="#acc9fb"/><path d="m13 44h-8v-1c0-.552.448-1 1-1h6c.552 0 1 .448 1 1z" fill="#acc9fb"/><path d="m3 38h8c1.105 0 2-.895 2-2v-1.74c-1.134-.792-2.512-1.26-4-1.26-3.125 0-5.77 2.049-6.67 4.877.21.075.434.123.67.123z" fill="#787faa"/><ellipse cx="37" cy="14.5" fill="#acc9fb" rx="3.703" ry="2.5"/><g><path d="m43 20h2v4h-2z" fill="#4c506e"/></g><g><path d="m49 20h2v4h-2z" fill="#4c506e"/></g><circle cx="21" cy="20" fill="#787faa" r="1"/><circle cx="53" cy="20" fill="#787faa" r="1"/><path d="m14 14.2v.8l16 2v-1.2z" fill="#3d54bd"/><path d="m42 16 20-2v2l-20 3" fill="#546ded"/><path d="m60 14.2v.8l-16 2v-1.2z" fill="#3d54bd"/></g></svg>