<svg id="Capa_1" enable-background="new 0 0 512 512" height="512" viewBox="0 0 512 512" width="512" xmlns="http://www.w3.org/2000/svg"><g><path d="m400.74 285.477c0-15.7-12.501-28.892-28.201-28.962-3.634-.016-7.11.652-10.307 1.884-2.516.969-5.349-.243-6.52-2.671-6.24-12.944-19.48-21.877-34.811-21.877-6.837 0-13.258 1.778-18.828 4.895-2.405 1.346-5.449.57-6.883-1.783-6.779-11.13-19.024-18.565-33.009-18.565-8.898 0-17.089 3.014-23.618 8.071-1.87 1.448-4.463 1.448-6.333 0-6.53-5.057-14.72-8.071-23.618-8.071-13.986 0-26.23 7.434-33.009 18.565-1.433 2.353-4.478 3.129-6.883 1.783-5.57-3.117-11.991-4.895-18.828-4.895-15.331 0-28.571 8.933-34.811 21.877-1.171 2.429-4.004 3.641-6.52 2.671-3.197-1.231-6.673-1.9-10.307-1.884-15.7.07-28.201 13.262-28.201 28.962v7.094l163.284 19.058 167.404-19.058v-7.094z" fill="#d3effb"/><path d="m293.179 233.985c-1.051-.093-2.112-.134-3.183-.134-3.42 0-6.737.443-9.89 1.277s-6.161 2.06-8.942 3.616c-2.4 1.35-5.45.577-6.882-1.782-4.11-6.758-10.24-12.146-17.554-15.339.896-.402 1.813-.762 2.751-1.082 3.977-1.391 8.252-2.143 12.702-2.143 12.702 0 23.962 6.13 30.998 15.587z" fill="#b1e4f9"/><path d="m400.74 285.473v7.098l-30.905 5v-12.098c0-15.7-12.496-28.886-28.206-28.958-3.626-.021-7.108.649-10.302 1.885-2.514.968-5.347-.247-6.521-2.668-4.007-8.314-10.889-14.969-19.367-18.657 1.793-.783 3.657-1.442 5.573-1.947 3.152-.834 6.469-1.277 9.89-1.277 15.329 0 28.567 8.932 34.81 21.881 1.174 2.421 4.007 3.637 6.521 2.668 3.194-1.236 6.676-1.906 10.302-1.885 15.709.072 28.205 13.259 28.205 28.958z" fill="#b1e4f9"/><path d="m173.07 441.433v29.36c0 22.758-18.449 41.207-41.207 41.207h-12.362c-8.534 0-15.453-6.918-15.453-15.453 0-8.534 6.918-15.453 15.453-15.453h7.211c8.534 0 15.453-6.918 15.453-15.453v-24.209h30.905z" fill="#fcaa72"/><path d="m173.07 441.433v29.36c0 22.757-18.45 41.207-41.207 41.207h-12.362c-2.503 0-4.862-.598-6.954-1.659 17.111-5.007 29.618-20.82 29.618-39.549v-29.36h30.905z" fill="#ea9357"/><path d="m369.835 441.433v24.209c0 8.534 6.918 15.453 15.453 15.453h7.211c8.534 0 15.453 6.918 15.453 15.453 0 8.534-6.918 15.453-15.453 15.453h-12.362c-22.758 0-41.207-18.449-41.207-41.207v-29.36h30.905z" fill="#fcaa72"/><path d="m407.952 496.547c0 4.265-1.731 8.128-4.533 10.92-2.792 2.802-6.655 4.533-10.92 4.533h-12.362c-4.028 0-7.912-.577-11.59-1.659 1.473-.742 2.812-1.72 3.966-2.874 2.802-2.792 4.533-6.655 4.533-10.92 0-8.53-6.923-15.453-15.453-15.453h-7.211c-8.53 0-15.453-6.923-15.453-15.453v-15.453h30.905v15.453c0 8.53 6.923 15.453 15.453 15.453h7.211c8.531.001 15.454 6.923 15.454 15.453z" fill="#ea9357"/><path d="m347.171 57.69v35.026h30.905v-35.026c0-14.793 11.992-26.785 26.785-26.785 14.793 0 26.785 11.992 26.785 26.785v245.183h30.905v-245.183c0-31.861-25.829-57.69-57.69-57.69-31.861 0-57.69 25.829-57.69 57.69z" fill="#f0e5e0"/><path d="m462.551 57.69v245.183h-30.905v-245.183c0-26.507-17.874-48.841-42.237-55.599 4.913-1.36 10.095-2.091 15.452-2.091 31.864 0 57.69 25.827 57.69 57.69z" fill="#e2d6d1"/><path d="m380.137 450.189h-248.274c-45.516 0-82.414-36.898-82.414-82.414v-49.449h413.103v49.449c-.001 45.516-36.899 82.414-82.415 82.414z" fill="#b2a6f4"/><path d="m462.551 318.628v49.147c0 45.513-36.901 82.414-82.414 82.414h-30.905c7.118 0 14.021-.907 20.604-2.596 35.541-9.148 61.811-41.424 61.811-79.818v-49.147z" fill="#8686d1"/><path d="m462.551 328.628h-413.102c-8.534 0-15.453-6.918-15.453-15.453v-5.151c0-8.534 6.918-15.453 15.453-15.453h66.962l33.481 16.054 33.481-16.054h279.179c8.534 0 15.453 6.918 15.453 15.453v5.151c-.001 8.534-6.919 15.453-15.454 15.453z" fill="#8686d1"/><path d="m478.004 308.024v5.151c0 8.53-6.923 15.453-15.453 15.453h-30.905c6.727 0 12.455-4.306 14.567-10.302.577-1.617.886-3.348.886-5.151v-5.151c0-8.53-6.923-15.453-15.453-15.453h30.905c8.53 0 15.453 6.923 15.453 15.453z" fill="#6f6fce"/><path d="m395.59 113.32h-66.962c-2.845 0-5.151-2.306-5.151-5.151v-5.151c0-11.379 9.225-20.604 20.604-20.604h36.056c11.379 0 20.604 9.225 20.604 20.604v5.151c-.001 2.845-2.307 5.151-5.151 5.151z" fill="#6f6571"/><path d="m400.74 103.018v5.151c0 2.843-2.308 5.151-5.151 5.151h-30.905c2.843 0 5.151-2.308 5.151-5.151v-5.151c0-3.75-1.01-7.273-2.771-10.302-3.554-6.161-10.209-10.302-17.832-10.302h30.905c11.383 0 20.603 9.221 20.603 20.604z" fill="#5d5360"/><g fill="#b1e4f9"><path d="m235.396 183.372c-8.534 0-15.453-6.918-15.453-15.453 0-8.534 6.918-15.453 15.453-15.453 8.534 0 15.453 6.918 15.453 15.453 0 8.535-6.918 15.453-15.453 15.453z"/><path d="m142.68 207.066c-8.534 0-15.453-6.918-15.453-15.453 0-8.534 6.918-15.453 15.453-15.453 8.534 0 15.453 6.918 15.453 15.453 0 8.535-6.919 15.453-15.453 15.453z"/><path d="m328.113 207.066c8.534 0 15.453-6.918 15.453-15.453 0-8.534-6.918-15.453-15.453-15.453-8.534 0-15.453 6.918-15.453 15.453 0 8.535 6.918 15.453 15.453 15.453z"/></g><path d="m173.07 395.59h-46.358c-5.69 0-10.302-4.612-10.302-10.302v-92.716h66.962v92.716c0 5.689-4.612 10.302-10.302 10.302z" fill="#fff"/><path d="m183.372 292.571v92.716c0 5.687-4.615 10.302-10.302 10.302h-30.905c5.687 0 10.302-4.615 10.302-10.302v-92.716z" fill="#faf2f3"/></g></svg>