<?xml version="1.0" encoding="iso-8859-1"?>
<!-- Generator: Adobe Illustrator 19.0.0, SVG Export Plug-In . SVG Version: 6.00 Build 0)  -->
<svg version="1.1" id="Capa_1" xmlns="http://www.w3.org/2000/svg" xmlns:xlink="http://www.w3.org/1999/xlink" x="0px" y="0px"
	 viewBox="0 0 512 512" style="enable-background:new 0 0 512 512;" xml:space="preserve">
<g>
	<rect x="40" y="420.98" style="fill:#898998;" width="54.01" height="54.01"/>
	<rect x="417.99" y="420.98" style="fill:#898998;" width="54.01" height="54.01"/>
</g>
<g>
	<path style="fill:#D8D8E4;" d="M438,228.994H74c-35.346,0-64,28.654-64,64v128h492v-128C502,257.648,473.346,228.994,438,228.994z"
		/>
	<path style="fill:#D8D8E4;" d="M86,228.994v-67.333c0-15.832,12.834-28.667,28.667-28.667h112.667
		c15.832,0,28.667,12.834,28.667,28.667c0-15.832,12.834-28.667,28.667-28.667h112.667c15.832,0,28.667,12.834,28.667,28.667v67.333
		h12c12.496,0,24.147,3.595,34,9.787V117.007c0-44.183-35.817-80-80-80H120c-44.183,0-80,35.817-80,80v121.776
		c9.853-6.193,21.504-9.787,34-9.787h12V228.994z"/>
</g>
<path style="fill:#FF6E37;" d="M472,238.781c-9.853-6.193-21.504-9.787-34-9.787h-12H256H86H74c-12.496,0-24.147,3.595-34,9.787
	c-18.016,11.323-30,31.363-30,54.213v80h492v-80C502,270.145,490.016,250.104,472,238.781z"/>
<path style="fill:#FFFFFF;" d="M397.333,132.994H284.667c-15.832,0-28.667,12.834-28.667,28.667
	c0-15.832-12.834-28.667-28.667-28.667H114.667C98.834,132.994,86,145.829,86,161.661v67.333h170h170v-67.333
	C426,145.829,413.166,132.994,397.333,132.994z"/>
<path d="M482,233.538V117.007c0-49.626-40.374-90-90-90h-94.5c-5.523,0-10,4.477-10,10c0,5.523,4.477,10,10,10H392
	c38.598,0,70,31.402,70,70v106.005c-7.532-2.59-15.6-4.017-24-4.017h-2v-57.333c0-21.321-17.346-38.667-38.667-38.667H284.667
	c-11.358,0-21.586,4.924-28.667,12.747c-7.081-7.823-17.309-12.747-28.667-12.747H114.667C93.346,122.994,76,140.34,76,161.661
	v57.333h-2c-8.4,0-16.468,1.427-24,4.017V117.007c0-38.598,31.402-70,70-70h96.5c5.523,0,10-4.477,10-10c0-5.523-4.477-10-10-10H120
	c-49.626,0-90,40.374-90,90V233.54c-18.188,13.495-30,35.12-30,59.456v128c0,5.523,4.477,10,10,10h20v44c0,5.523,4.477,10,10,10
	h54.012c5.523,0,10-4.477,10-10v-44h303.976v44c0,5.523,4.477,10,10,10H472c5.523,0,10-4.477,10-10v-44h20c5.523,0,10-4.477,10-10
	v-128C512,268.659,500.188,247.035,482,233.538z M284.667,142.994h112.667c10.293,0,18.667,8.374,18.667,18.667v57.333H266v-57.333
	C266,151.368,274.374,142.994,284.667,142.994z M96,161.661c0-10.293,8.374-18.667,18.667-18.667h112.667
	c10.293,0,18.667,8.374,18.667,18.667v57.333H96V161.661z M84.012,464.995H50v-34h34.012V464.995z M462,464.995h-34.012v-34H462
	V464.995z M472.242,410.995c-0.081-0.002-0.16-0.012-0.242-0.012h-54.012c-0.082,0-0.161,0.01-0.242,0.012H94.254
	c-0.081-0.002-0.16-0.012-0.242-0.012H40c-0.082,0-0.161,0.01-0.242,0.012H20v-118c0-29.776,24.224-54,54-54h12h170h170h12
	c29.776,0,54,24.224,54,54v70H91.921c-5.523,0-10,4.477-10,10s4.477,10,10,10H492v28H472.242z"/>
<path d="M256,47.005c2.63,0,5.21-1.07,7.07-2.93c1.86-1.86,2.93-4.43,2.93-7.07c0-2.63-1.07-5.21-2.93-7.07s-4.44-2.93-7.07-2.93
	s-5.21,1.07-7.07,2.93s-2.93,4.44-2.93,7.07c0,2.63,1.07,5.21,2.93,7.07C250.79,45.935,253.37,47.005,256,47.005z"/>
<path d="M52.08,362.995c-2.64,0-5.21,1.07-7.07,2.93s-2.93,4.44-2.93,7.07s1.07,5.21,2.93,7.07s4.44,2.93,7.07,2.93
	s5.21-1.07,7.07-2.93s2.93-4.44,2.93-7.07s-1.07-5.21-2.93-7.07C57.29,364.065,54.71,362.995,52.08,362.995z"/>
<g>
</g>
<g>
</g>
<g>
</g>
<g>
</g>
<g>
</g>
<g>
</g>
<g>
</g>
<g>
</g>
<g>
</g>
<g>
</g>
<g>
</g>
<g>
</g>
<g>
</g>
<g>
</g>
<g>
</g>
</svg>
