<svg height="512" viewBox="0 0 64 64" width="512" xmlns="http://www.w3.org/2000/svg"><g id="Filled_outline" data-name="Filled outline"><path d="m45 13h-33a9 9 0 0 0 -9 9 9.648 9.648 0 0 0 3 7v22h55v-22a16 16 0 0 0 -16-16z" fill="#d3843d"/><path d="m27 22a9 9 0 0 0 -9-9h-6a9 9 0 0 0 -9 9 9.648 9.648 0 0 0 3 7v22h18v-22a9.648 9.648 0 0 0 3-7z" fill="#ffd782"/><path d="m24 41h37v10h-37z" fill="#ad6327"/><path d="m28 46h2v2h-2z"/><path d="m32 44h2v2h-2z"/><path d="m36 46h2v2h-2z"/><path d="m40 44h2v2h-2z"/><path d="m44 46h2v2h-2z"/><path d="m48 44h2v2h-2z"/><path d="m52 46h2v2h-2z"/><path d="m56 44h2v2h-2z"/><path d="m5.985 35.5h17.029v2h-17.029z" transform="matrix(.763 -.646 .646 .763 -20.149 18.009)"/><path d="m9.095 28.5h7.81v2h-7.81z" transform="matrix(.768 -.64 .64 .768 -15.873 15.162)"/><path d="m45 12h-33a10.011 10.011 0 0 0 -10 10 10.736 10.736 0 0 0 3 7.43v21.57a1 1 0 0 0 1 1h55a1 1 0 0 0 1-1v-22a17.019 17.019 0 0 0 -17-17zm-21.667 16.255a1 1 0 0 0 -.333.745v21h-16v-21a1 1 0 0 0 -.333-.745 8.592 8.592 0 0 1 -2.667-6.255 8.009 8.009 0 0 1 8-8h6a8.009 8.009 0 0 1 8 8 8.592 8.592 0 0 1 -2.667 6.255zm36.667 21.745h-35v-8h35zm0-10h-35v-10.57a10.736 10.736 0 0 0 3-7.43 9.982 9.982 0 0 0 -4.025-8h1.025a13.015 13.015 0 0 1 13 13h2a15 15 0 0 0 -7.549-13h3.549a13.015 13.015 0 0 1 13 13h2a15 15 0 0 0 -7.549-13h1.549a15.017 15.017 0 0 1 15 15z"/></g></svg>