<svg id="Capa_1" enable-background="new 0 0 512 512" height="512" viewBox="0 0 512 512" width="512" xmlns="http://www.w3.org/2000/svg"><g><g><path d="m294.054 276.89c-62.103 0-119.311-33.783-149.298-88.167l-39.833-72.241c-1.987-3.603-.676-8.135 2.927-10.122 3.604-1.99 8.136-.677 10.123 2.927l39.833 72.241c27.366 49.629 79.573 80.46 136.247 80.46 35.705 0 70.612-12.422 98.29-34.978l26.24-21.385c3.191-2.601 7.884-2.122 10.484 1.068s2.121 7.884-1.069 10.483l-26.24 21.385c-30.328 24.717-68.578 38.329-107.704 38.329z" fill="#df751c"/></g><g><path d="m474.105 217.601h-51.973c-4.115 0-7.451-3.336-7.451-7.451 0-4.116 3.336-7.451 7.451-7.451h51.973c4.115 0 7.451 3.336 7.451 7.451 0 4.116-3.336 7.451-7.451 7.451z" fill="#df751c"/></g><g><path d="m474.105 273.13h-51.973c-4.115 0-7.451-3.336-7.451-7.451s3.336-7.451 7.451-7.451h51.973c4.115 0 7.451 3.336 7.451 7.451s-3.336 7.451-7.451 7.451z" fill="#df751c"/></g><g><path d="m422.132 404.475c-4.115 0-7.451-3.336-7.451-7.451v-205.14c0-4.116 3.336-7.451 7.451-7.451s7.451 3.336 7.451 7.451v205.14c0 4.115-3.336 7.451-7.451 7.451z" fill="#df751c"/></g><g><path d="m378.403 274.289c-42.342 0-80.433-26.764-94.785-66.599l-39.505-109.647c-1.395-3.871.613-8.141 4.485-9.535 3.87-1.396 8.141.612 9.536 4.484l39.505 109.646c12.229 33.942 44.686 56.748 80.764 56.748 26.185 0 50.597-11.716 66.977-32.146l22.912-28.576c2.574-3.211 7.264-3.728 10.475-1.153 3.211 2.574 3.727 7.264 1.153 10.475l-22.912 28.576c-19.225 23.976-47.875 37.727-78.605 37.727z" fill="#e49542"/></g><g><path d="m7.456 199.379c-2.952 0-5.746-1.766-6.915-4.673-1.536-3.818.314-8.158 4.132-9.694l2.658-1.069c25.969-10.453 48.124-28.143 64.067-51.158l7.051-10.178c2.344-3.383 6.986-4.224 10.368-1.882 3.383 2.343 4.225 6.986 1.882 10.368l-7.051 10.179c-17.607 25.416-42.074 44.952-70.755 56.496l-2.66 1.07c-.91.367-1.852.541-2.777.541z" fill="#df751c"/></g><g><path d="m86.822 93.32h152.784v33.531h-152.784z" fill="#e49542"/></g><g><path d="m86.822 212.338h152.784v33.531h-152.784z" fill="#e49542"/></g><g><path d="m201.111 93.32v3.066c0 9.112-7.386 16.498-16.498 16.498h-97.791v13.967h152.784v-33.531z" fill="#df751c"/></g><g><path d="m201.111 212.338v3.066c0 9.112-7.386 16.498-16.498 16.498h-97.791v13.967h152.784v-33.531z" fill="#df751c"/></g><g><path d="m111.951 420.127h-33.056c-4.418 0-8-3.582-8-8v-349.958c0-4.418 3.582-8 8-8h33.056c4.418 0 8 3.582 8 8v50.649l-4.326 14.906 4.326 15.938v88.24l-3.201 6.447 3.201 7.5v166.278c0 4.418-3.582 8-8 8z" fill="#e49542"/></g><g><path d="m112.003 54.169h-9.427v340.634c0 4.39-3.558 7.948-7.948 7.948h-23.733v9.427c0 4.39 3.558 7.948 7.948 7.948h33.16c4.39 0 7.948-3.558 7.948-7.948v-350.061c0-4.389-3.559-7.948-7.948-7.948z" fill="#df751c"/></g><g><path d="m504 342.522h-74.453l-7.415-2.781-7.445 2.781h-294.796l-8.578-3.859-8.859 3.859h-94.454c-4.418 0-8-3.582-8-8v-26.723c0-4.418 3.582-8 8-8h496c4.418 0 8 3.582 8 8v26.723c0 4.418-3.582 8-8 8z" fill="#e49542"/></g><g><path d="m504.057 299.798h-10.531v16.307c0 4.387-3.556 7.943-7.943 7.943h-485.583v10.531c0 4.387 3.556 7.943 7.943 7.943h496.115c4.387 0 7.943-3.556 7.943-7.943v-26.838c-.001-4.387-3.557-7.943-7.944-7.943z" fill="#df751c"/></g><g><path d="m10.233 457.831h491.534c5.652 0 10.233-4.581 10.233-10.233v-57.066c0-4.485-2.927-8.427-7.207-9.767-6.837-2.14-13.192-5.368-18.862-9.486-3.673-2.668-8.587-2.665-12.259.003-10.805 7.847-24.095 12.48-38.471 12.48s-27.665-4.633-38.471-12.48c-3.674-2.668-8.589-2.668-12.263 0-10.805 7.847-24.095 12.48-38.471 12.48s-27.665-4.633-38.471-12.48c-3.674-2.668-8.589-2.668-12.263 0-10.805 7.847-24.095 12.48-38.471 12.48s-27.665-4.633-38.471-12.48c-3.674-2.668-8.589-2.668-12.263 0-10.805 7.847-24.095 12.48-38.471 12.48s-27.665-4.633-38.471-12.48c-3.674-2.668-8.589-2.668-12.263 0-10.805 7.847-24.095 12.48-38.471 12.48s-27.665-4.633-38.471-12.48c-3.661-2.659-8.567-2.688-12.226-.027-6.062 4.409-12.907 7.802-20.288 9.935-4.377 1.264-7.396 5.264-7.396 9.822v56.586c0 5.651 4.581 10.233 10.233 10.233z" fill="#90d8f9"/></g><g><path d="m504.793 380.765c-4.534-1.42-8.851-3.327-12.903-5.646v52.369c0 5.652-4.581 10.233-10.233 10.233h-481.657v9.877c0 5.652 4.581 10.233 10.233 10.233h491.534c5.651 0 10.233-4.581 10.233-10.233v-57.066c0-4.485-2.927-8.427-7.207-9.767z" fill="#75cef9"/></g><g><path d="m474.105 400.283c-4.115 0-7.451-3.336-7.451-7.451v-200.948c0-4.116 3.336-7.451 7.451-7.451s7.451 3.336 7.451 7.451v200.948c0 4.116-3.336 7.451-7.451 7.451z" fill="#e49542"/></g><g><path d="m239.551 405.24c8.003 0 15.658-1.479 22.711-4.177 1.138-.435 1.872-1.549 1.872-2.767v-55.767l-3.83-9.352 3.83-9.281v-49.641l-3.337-7.524 3.337-7.734v-196.88c0-4.39-3.558-7.948-7.948-7.948h-33.16c-4.39 0-7.948 3.558-7.948 7.948v336.219c0 1.22.737 2.335 1.877 2.769 7.021 2.67 14.637 4.135 22.596 4.135z" fill="#e49542"/></g><g><path d="m247.27 62.117v342.658c5.189-.628 10.185-1.881 14.912-3.682 1.168-.445 1.953-1.55 1.953-2.8v-336.176c0-4.39-3.558-7.948-7.948-7.948h-16.864c4.389 0 7.947 3.559 7.947 7.948z" fill="#df751c"/></g></g></svg>