<svg height="512" viewBox="0 0 60 60" width="512" xmlns="http://www.w3.org/2000/svg"><g id="008---Bunk-Beds" fill="none"><g id="Layer_3" transform="translate(1 1)"><path id="Shape" d="m54 16v6h-35v-10h31c2.209139 0 4 1.790861 4 4z" fill="#f44335"/><path id="Shape" d="m2 58c-1.1045695 0-2-.8954305-2-2v-54c0-1.1045695.8954305-2 2-2s2 .8954305 2 2v54c0 1.1045695-.8954305 2-2 2z" fill="#91562d"/><path id="Shape" d="m56 58c-1.1045695 0-2-.8954305-2-2v-47c0-1.1045695.8954305-2 2-2s2 .8954305 2 2v47c0 1.1045695-.8954305 2-2 2z" fill="#91562d"/><path id="Shape" d="m15 39.46v6.54h-11v-5c0-1.6568542 1.34314575-3 3-3h2.54c.5286393.9195747 1.4019141 1.5905965 2.426609 1.8645992s2.1163352.1283977 3.033391-.4045992z" fill="#cfd8dc"/><path id="Shape" d="m54 40v6h-35v-10h31c2.209139 0 4 1.790861 4 4z" fill="#f44335"/><path id="Shape" d="m19 36v10h-4v-10c0-.5522847.4477153-1 1-1h2c.5522847 0 1 .4477153 1 1z" fill="#cfd8dc"/><path id="Rectangle-path" d="m4 46h50v4h-50z" fill="#825a2c"/><path id="Rectangle-path" d="m4 22h50v4h-50z" fill="#825a2c"/><path id="Rectangle-path" d="m51 22h3v4h-3z" fill="#624421"/><path id="Rectangle-path" d="m51 46h3v4h-3z" fill="#624421"/><path id="Shape" d="m16.87 35h-.87c-.5522847 0-1 .4477153-1 1v3.46c-1.4865724.860287-3.3564105.6755235-4.6458637-.4590697-1.28945313-1.1345932-1.71065233-2.9657195-1.04652588-4.5496788.66412645-1.5839594 2.26531308-2.5671347 3.97836298-2.4428309 1.7130498.1243038 3.1555264 1.328336 3.5840266 2.9915794z" fill="#ffe0b2"/><path id="Shape" d="m15 15.46v6.54h-11v-5c0-1.6568542 1.34314575-3 3-3h2.54c.5286393.9195747 1.4019141 1.5905965 2.426609 1.8645992s2.1163352.1283977 3.033391-.4045992z" fill="#cfd8dc"/><path id="Shape" d="m19 12v10h-4v-10c0-.5522847.4477153-1 1-1h2c.5522847 0 1 .4477153 1 1z" fill="#cfd8dc"/><path id="Shape" d="m16.87 11h-.87c-.5522847 0-1 .4477153-1 1v3.46c-1.4865724.860287-3.3564105.6755235-4.6458637-.4590697-1.28945313-1.1345932-1.71065233-2.9657195-1.04652588-4.5496788.66412645-1.58395939 2.26531308-2.5671347 3.97836298-2.44283092 1.7130498.12430378 3.1555264 1.32833597 3.5840266 2.99157942z" fill="#ffe0b2"/></g><path id="Shape" d="m57 7c-1.6568542 0-3 1.34314575-3 3v3.026c-.8603889-.6618067-1.9145307-1.0223232-3-1.026h-5v-6c0-.55228475-.4477153-1-1-1s-1 .44771525-1 1v1h-8v-1c0-.55228475-.4477153-1-1-1s-1 .44771525-1 1v6h-13.278c-.3544126-.6167513-1.0106732-.997855-1.722-1h-.422c-1.0210036-2.34315137-3.6471828-3.53629685-6.0836368-2.76396359s-3.89568634 3.26051619-3.3803632 5.76396359c-1.07055237-.1425406-2.15892456.0517867-3.114.556v-11.556c-.00000004-1.65685422-1.34314578-2.99999992-3-2.99999992s-2.99999996 1.3431457-3 2.99999992v54c0 1.6568542 1.34314575 3 3 3s3-1.3431458 3-3v-5h48v5c0 1.6568542 1.3431458 3 3 3s3-1.3431458 3-3v-47c0-1.65685425-1.3431458-3-3-3zm-40 39v-9h2v9zm-11 0v-4c0-1.1045695.8954305-2 2-2h2.008c1.1544518 1.5475406 3.1026705 2.2835864 4.992 1.886v4.114zm28-22v2h-28v-2zm10-7h-8v-3h8zm-8 2h8v3h-8zm8 5v2h-8v-2zm0 17h-8v-3h8zm-8-5v-3h8v3zm-15.278 0c-.3544126-.6167513-1.0106732-.997855-1.722-1h-.422c-1.0210036-2.3431514-3.6471828-3.5362969-6.0836368-2.7639636s-3.89568634 3.2605162-3.3803632 5.7639636c-1.07055237-.1425406-2.15892456.0517867-3.114.556v-10.556h28v8zm-9.316 2.5c-.7934427-1.3549274-.4049542-3.0926713.8899295-3.9807343 1.2948836-.888063 3.0559109-.6245097 4.0340705.6037343-.7948047.2825815-1.3268615 1.0334617-1.33 1.877v2.815c-1.3581488.4593018-2.8529803-.0876385-3.594-1.315zm32.594-7.5h-8v-3h8zm2-3h8v9.026c-.8603889-.6618067-1.9145307-1.0223232-3-1.026h-5zm8-2h-8v-2h8zm-33 12h13v8h-13zm15 5h8v3h-8zm10-5h5c1.6568542 0 3 1.3431458 3 3v5h-8zm5-24c1.6568542 0 3 1.3431458 3 3v5h-8v-8zm-15-5h8v3h-8zm-2 13h-13v-8h13zm-15 0h-2v-9h2zm-5-12c.9071075.0011737 1.7644636.4147652 2.33 1.124-.7944608.2824573-1.3264407 1.032829-1.33 1.876v2.815c-1.3581586.460102-2.8534893-.0870209-3.594-1.315-.5355357-.9275728-.5359247-2.0702995-.0010205-2.9982367.5349043-.9279371 1.523952-1.5003086 2.5950205-1.5017633zm-6 6h2.008c1.1544518 1.5475406 3.1026705 2.2835864 4.992 1.886v4.114h-9v-4c0-1.1045695.8954305-2 2-2zm-4 41c0 .5522847-.44771525 1-1 1s-1-.4477153-1-1v-54c0-.55228475.44771525-1 1-1s1 .44771525 1 1zm2-9h28v2h-28zm30 2v-2h8v2zm10 0v-2h8v2zm12 7c0 .5522847-.4477153 1-1 1s-1-.4477153-1-1v-47c0-.55228475.4477153-1 1-1s1 .44771525 1 1z" fill="#000"/></g></svg>