<svg id="Layer_3" height="512" viewBox="0 0 64 64" width="512" xmlns="http://www.w3.org/2000/svg" data-name="Layer 3"><path d="m13 33h6.05a2.5 2.5 0 1 1 4.9 0h15.1a2.5 2.5 0 1 1 4.9 0h5.05v-12h-36z" fill="#fdc12a"/><path d="m21.5 30a2.5 2.5 0 1 0 2.5 2.5 2.5 2.5 0 0 0 -2.5-2.5z" fill="#fdc12a"/><path d="m41.5 30a2.5 2.5 0 1 0 2.5 2.5 2.5 2.5 0 0 0 -2.5-2.5z" fill="#fdc12a"/><path d="m19 42h20v13h-20z" fill="#ffaf00"/><path d="m35.23 44h-4.23v1a16.08 16.08 0 0 1 4.23-1z" fill="none"/><path d="m19 44h16.23a18.6 18.6 0 0 1 3.77 0l11-8c2.75-1.87 5.36-2.64 7-1s1 4-1 7l-1.69 2h4.69l4-3.8-4-3.79 4-3.8-4-3.8 4-3.81-4-3.8 4-3.8-.43-.4-3.57-3.39 4-3.8-4-3.81h-11v4a4.17 4.17 0 0 1 -8 0 4.17 4.17 0 0 1 -8 0 4.17 4.17 0 0 1 -8 0 4.17 4.17 0 0 1 -8 0v-4h-15l4 3.81-4 3.8 3.57 3.39.43.41-4 3.8 4 3.79-4 3.8 4 3.8-4 3.8 4 3.8-4 3.8z" fill="#0286e7"/><path d="m33 55 23-13c2-3 2.64-5.36 1-7s-4.25-.87-7 1l-11 8a18.6 18.6 0 0 0 -3.77 0 16.08 16.08 0 0 0 -4.23 1c-4.91 1.91-8.42 6-12 10z" fill="#fdc12a"/><path d="m33 55h12l9.31-11 1.69-2z" fill="#ffaf00"/><path d="m31 55h-12-3v8h32v-8h-3-12z" fill="#0286e7"/><path d="m20 13a4.18 4.18 0 0 0 4-3v-9h-8v9a4.18 4.18 0 0 0 4 3z" fill="#fdc12a"/><path d="m24 10a4.17 4.17 0 0 0 8 0v-9h-8z" fill="#fdc12a"/><path d="m32 10a4.17 4.17 0 0 0 8 0v-9h-8z" fill="#fdc12a"/><path d="m40 10a4.17 4.17 0 0 0 8 0v-9h-8z" fill="#fdc12a"/><path d="m17 1h6v3h-6z" fill="#ffaf00"/><path d="m25 1h6v3h-6z" fill="#ffaf00"/><path d="m33 1h6v3h-6z" fill="#ffaf00"/><path d="m41 1h6v3h-6z" fill="#ffaf00"/><path d="m55 40a1 1 0 0 1 -.71-.29l-2-2a1 1 0 0 1 1.41-1.41l2 2a1 1 0 0 1 -.7 1.7z" fill="#dd9505"/><path d="m21 40h-9a1 1 0 0 1 0-2h9a1 1 0 0 1 0 2z" fill="#2aaff5"/><path d="m35 59h-15a1 1 0 0 1 0-2h15a1 1 0 0 1 0 2z" fill="#2aaff5"/><path d="m13 21h36v12h-36z" fill="#fdc12a"/><circle cx="21.5" cy="32.5" fill="#0c6693" r="2.5"/><circle cx="41.5" cy="32.5" fill="#0c6693" r="2.5"/><path d="m13 21h6v5h-6z" fill="#dd9505"/><path d="m22 21h6v5h-6z" fill="#ffaf00"/><path d="m28 21h6v5h-6z" fill="#dd9505"/><path d="m40 21h6v5h-6z" fill="#dd9505"/><path d="m34 21h6v5h-6z" fill="#ffaf00"/><g fill="#0a395c"><path d="m10.41 51.17-1.41 1.42-1.41-1.42-1.42 1.42 1.42 1.41-1.42 1.41 1.42 1.42 1.41-1.42 1.41 1.42 1.42-1.42-1.42-1.41 1.42-1.41z"/><path d="m64 17.41a1 1 0 0 0 -.31-.73l-3.24-3.08 3.24-3.08a1 1 0 0 0 0-1.45l-4-3.81a1 1 0 0 0 -.12-.08.65.65 0 0 0 -.42-.18.94.94 0 0 0 -.15 0h-10v-4a1 1 0 0 0 -1-1h-32a1 1 0 0 0 -1 1v4h-14a1 1 0 0 0 -.69 1.72l3.24 3.09-3.24 3.08a1 1 0 0 0 0 1.45l3.24 3.07-3.24 3.08a1 1 0 0 0 0 1.45l3.24 3.06-3.24 3.08a1 1 0 0 0 0 1.45l3.24 3.07-3.24 3.08a1 1 0 0 0 0 1.45l3.24 3.07-3.24 3.07a1 1 0 0 0 -.15.21 1 1 0 0 0 -.07.11 1 1 0 0 0 0 .12 1 1 0 0 0 -.09.29.94.94 0 0 0 0 .14 1 1 0 0 0 0 .23 1 1 0 0 0 .12.2.94.94 0 0 0 .08.12 1 1 0 0 0 .8.31h17v9h-2a1 1 0 0 0 -1 1v8a1 1 0 0 0 1 1h32a1 1 0 0 0 1-1v-8a1 1 0 0 0 -1-1h-.84l7.62-9h4.22a1 1 0 0 0 .38-.08 1 1 0 0 0 .16-.1 1 1 0 0 0 .15-.1l4-3.8a1 1 0 0 0 0-1.45l-3.24-3.07 3.24-3.07a1 1 0 0 0 0-1.45l-3.24-3.07 3.24-3.07a1 1 0 0 0 0-1.45l-3.24-3.07 3.24-3.07a1 1 0 0 0 .31-.74zm-17-7.56a3.17 3.17 0 0 1 -6 0v-7.85h6zm-8 0a3.17 3.17 0 0 1 -6 0v-7.85h6zm-8 0a3.17 3.17 0 0 1 -6 0v-7.85h6zm-14-7.85h6v7.85a3.17 3.17 0 0 1 -6 0zm11.64 43a33.74 33.74 0 0 0 -8.64 7.4v-7.4zm18.36 17h-30v-6h30zm-25.75-8c4-4.4 7.94-8.37 14-9h3.65.33l11.28-8.21c1.86-1.27 4.36-2.49 5.73-1.12.75.75 1.3 2.08-1.09 5.69l-10.61 12.64zm40.3-13.8-2.95 2.8h-2.14l.3-.35.07-.09a11.34 11.34 0 0 0 2.08-4.85zm-3.24-19.71a1 1 0 0 0 0 1.45l3.24 3.06-3.24 3.07a1 1 0 0 0 0 1.45l3.24 3.07-3 2.86a4.25 4.25 0 0 0 -.83-1.17c-1.29-1.29-3.77-2.19-8.3.9l-10.7 7.82a19.53 19.53 0 0 0 -3.61 0h-31.6l2.18-2.07a1 1 0 0 0 0-1.45l-3.24-3.07 3.24-3.07a1 1 0 0 0 0-1.45l-3.24-3.08 3.24-3.07a1 1 0 0 0 0-1.45l-3.24-3.08 3.24-3.07a1 1 0 0 0 0-1.45l-3.24-3.08 3.24-3.08a1 1 0 0 0 0-1.45l-2.19-2.08h11.5v3a1 1 0 0 0 0 .28 5.15 5.15 0 0 0 9 1.79 5.11 5.11 0 0 0 8 0 5.11 5.11 0 0 0 8 0 5.15 5.15 0 0 0 9-1.79 1 1 0 0 0 0-.28v-3h9.6l2.95 2.81-3.24 3.08a1 1 0 0 0 0 1.45l3.24 3.07z"/><path d="m19 10h2a1 1 0 0 0 0-2h-2a1 1 0 0 0 0 2z"/><path d="m27 10h2a1 1 0 0 0 0-2h-2a1 1 0 0 0 0 2z"/><path d="m35 10h2a1 1 0 0 0 0-2h-2a1 1 0 0 0 0 2z"/><path d="m43 10h2a1 1 0 0 0 0-2h-2a1 1 0 0 0 0 2z"/><path d="m55.71 38.29-2-2a1 1 0 0 0 -1.41 1.41l2 2a1 1 0 0 0 1.41-1.41z"/><path d="m44 58h-2a1 1 0 0 0 0 2h2a1 1 0 0 0 0-2z"/><path d="m23 17a1 1 0 0 0 0-2h-11a1 1 0 0 0 0 2z"/><path d="m49 20h-36a1 1 0 0 0 -1 1v12a1 1 0 0 0 1 1h5.35a3.48 3.48 0 0 0 6.3 0h13.7a3.48 3.48 0 0 0 6.3 0h4.35a1 1 0 0 0 1-1v-12a1 1 0 0 0 -1-1zm-26 2h4v3h-4zm6 0h4v3h-4zm6 0h4v3h-4zm6 0h4v3h-4zm-23 0v3h-4v-3zm3.5 12a1.5 1.5 0 1 1 1.5-1.5 1.5 1.5 0 0 1 -1.5 1.5zm20 0a1.5 1.5 0 1 1 1.5-1.5 1.5 1.5 0 0 1 -1.5 1.5zm6.5-2h-3.05a3.48 3.48 0 0 0 -6.9 0h-13.1a3.48 3.48 0 0 0 -6.9 0h-4.05v-5h5a1 1 0 0 0 1-1v-4h1v4a1 1 0 0 0 1 1h24a1 1 0 0 0 1-1v-4h1z"/><path d="m51 24h2v2h-2z"/><path d="m51 28h2v2h-2z"/><path d="m54 24h2v2h-2z"/></g></svg>