<svg id="Layer_1" enable-background="new 0 0 510 510" height="512" viewBox="0 0 510 510" width="512" xmlns="http://www.w3.org/2000/svg"><g id="XMLID_753_"><g id="XMLID_1108_"><g id="XMLID_1351_"><g><path id="XMLID_191_" d="m480 150h-30l-15-15 15-15h30l15 15z" fill="#00467d"/></g></g><g id="XMLID_1346_"><g><path id="XMLID_189_" d="m480 120h30v120h-30z" fill="#006df4"/></g></g><g id="XMLID_1147_"><g><path id="XMLID_188_" d="m30 150h30l15-15-15-15h-30l-15 15z" fill="#3b6bab"/></g></g><g id="XMLID_1142_"><g><path id="XMLID_201_" d="m0 120h30v120h-30z" fill="#1da1fa"/></g></g><path id="XMLID_1141_" d="m180 510h-60v-60l30-10 30 10z" fill="#3b6bab"/><path id="XMLID_1140_" d="m330 510h60c0-18.228 0-42.154 0-60l-30-10-30 10z" fill="#00467d"/><path id="XMLID_1137_" d="m90 90-10 102.685 10 106.315 82 10 83-10 10-101-10-108-82.5-10z" fill="#edf5ff"/><path id="XMLID_1134_" d="m420 299 10-104.5-10-104.5-83.5-10-81.5 10v209l84 10z" fill="#b5dbff"/><path id="XMLID_1131_" d="m60 329v75.5c0 25.088 20.41 45.5 45.5 45.5h149.5l10-67.5-10-53.5-97.5-14z" fill="#fa686c"/><g id="XMLID_1129_"><path id="XMLID_1130_" d="m361.805 283.195c8.148 8.149 13.195 19.399 13.195 31.805l15 10 15-10c0-41.353-33.644-75-75-75-41.354 0-75 33.644-75 75l15 10 15-10c0-12.406 5.047-23.656 13.194-31.805 17.591-17.591 46.009-17.601 63.611 0z" fill="#b95d4c"/></g><path id="XMLID_1128_" d="m195 360v30h60l10-15-10-15c-7.259 0-52.693 0-60 0z" fill="#fee682"/><path id="XMLID_1125_" d="m450 404.5c0-17.829 0-61.389 0-75.5l-97.5-14-97.5 14v121h149.5c25.087 0 45.5-20.409 45.5-45.5z" fill="#e40c57"/><path id="XMLID_1122_" d="m315 360c-7.259 0-52.693 0-60 0v30h60c0-10.492 0-19.508 0-30z" fill="#fdd034"/><g id="XMLID_1117_"><path id="XMLID_1118_" d="m135 360c-8.284 0-15 6.716-15 15s6.716 15 15 15 15-6.716 15-15-6.716-15-15-15z" fill="#fee682"/></g><g id="XMLID_1109_"><g><path id="XMLID_170_" d="m364.394 364.394c-2.715 2.713-4.394 6.463-4.394 10.606 0 8.283 6.715 15 15 15 8.283 0 15-6.715 15-15 0-4.143-1.679-7.893-4.394-10.606-5.851-5.854-15.35-5.865-21.212 0z" fill="#fdd034"/></g></g></g><path id="XMLID_1077_" d="m254 90h165v209h-165z" fill="none"/><path id="XMLID_1085_" d="m90 90h164v209h-164z" fill="none"/><path d="m255 90 10-43.649-10-46.351c-10.102 0-139.396 0-149.5 0-25.087 0-45.5 20.41-45.5 45.5v283.5h195l9-15.625-9-14.375h-165v-209z" fill="#ffa5a7"/><path d="m404.5 0c-10.103 0-139.396 0-149.5 0v90h165v209h-165v30h195c0-25.164 0-271.307 0-283.5 0-12.544-20.411-45.5-45.5-45.5z" fill="#fa686c"/></g></svg>