<svg id="Capa_1" enable-background="new 0 0 339.042 339.042" height="512" viewBox="0 0 339.042 339.042" width="512" xmlns="http://www.w3.org/2000/svg"><g><path d="m111.364 180.222s62.386-27.619 124.518-2.242v9.009h-127.69z" fill="#e1e6e9"/><path d="m64.459 2.073s18.695 22.628 24.701 45.891 25.124 85.099 17.214 106.627-38.067-106.628-38.067-106.628z" fill="#e1e6e9"/><path d="m276.106 127.606v-3.933h-1.396l-6.936-15.396c-.497-1.167-1.65-1.919-2.918-1.903h-58.918c-2.027.005-3.864 1.196-4.695 3.045l-3.976 8.882h-108.108v12.393h183.732c1.63-.007 3.003-1.218 3.214-2.834z" fill="#c9773f"/><g fill="#dc8744"><path d="m275.852 121.938-8.078-17.891c-.515-1.152-1.656-1.897-2.918-1.903h-58.918c-2.027.005-3.864 1.196-4.695 3.045l-3.976 8.882h-108.108v12.393h183.732c1.799-.021 3.239-1.497 3.218-3.295-.005-.423-.092-.841-.257-1.231z"/><path d="m235.883 177.98-124.518 2.072-42.719-171.804c-1.255-4.86-5.64-8.253-10.659-8.248h-7.909c-2.686-.005-4.868 2.169-4.873 4.855-.001.388.045.774.136 1.151l47.667 198.324h152.645v-16.495c.094-5.348-4.166-9.76-9.515-9.854-.085-.001-.17-.002-.255-.001z"/><path d="m277.375 339.042h21.909l-61.117-156.029-18.991 7.402 27.661 70.633h-154.633l27.662-70.633-18.991-7.402-61.117 156.029h21.909l24.531-62.598h166.645z"/></g></g></svg>