<svg id="Capa_1" enable-background="new 0 0 512 512" height="512" viewBox="0 0 512 512" width="512" xmlns="http://www.w3.org/2000/svg"><g><path d="m512 0h-512v68.86l14 15-14 15v38.85l14 15-14 15v38.86l14 14.73-14 15.27v38.86l14 14.61-14 15.39v38.86l14 15-14 15v38.85l14 15-14 15v68.86h512v-68.83l-14-16.21 14-13.85v-38.85l-14-15.2 14-14.77v-38.85l-14-15.23 14-14.78v-38.87l-14-15.42 14-14.5v-38.95l-14-15.13 14-14.86v-38.84l-14-15 14-15z" fill="#cddceb"/><path d="m512 68.86-14 15 14 15v38.84l-14 14.86 14 15.13v38.95l-14 14.5 14 15.42v38.87l-14 14.78 14 15.23v38.85l-14 14.77 14 15.2v38.85l-14 13.85 14 16.21v68.83h-256v-512h256z" fill="#afc8db"/><circle cx="256" cy="256" fill="#41567f" r="172.14"/><path d="m428.14 256c0 95.07-77.07 172.14-172.14 172.14v-344.28c95.07 0 172.14 77.07 172.14 172.14z" fill="#293e65"/><path d="m336.933 229.448-44.609 22.361-32.133-32.133 22.361-44.609c2.028-4.041 4.612-7.571 7.594-10.553 15.225-15.225 40.928-16.277 57.273.067 19.544 19.545 14.218 52.481-10.486 64.867z" fill="#2e86fc"/><path d="m221.854 347.486c-15.225 15.225-40.928 16.277-57.273-.067-19.544-19.544-14.219-52.48 10.486-64.866l44.609-22.361 32.133 32.133-22.361 44.609c-2.028 4.04-4.612 7.57-7.594 10.552z" fill="#6dabfc"/><path d="m347.418 347.418c-19.544 19.544-52.48 14.219-64.866-10.486l-22.361-44.609 32.133-32.133 44.609 22.361c4.041 2.028 7.571 4.612 10.553 7.594 15.225 15.226 16.277 40.929-.068 57.273z" fill="#2e86fc"/><path d="m219.676 251.809-44.609-22.361c-4.041-2.028-7.571-4.612-10.553-7.594-15.225-15.225-16.277-40.928.067-57.273 19.544-19.544 52.48-14.219 64.866 10.486l22.361 44.609z" fill="#6dabfc"/><path d="m512 68.86h-512v30h154.49c-16.41 10.63-31.05 23.77-43.39 38.85h-111.1v30h91.03c-6.56 12.21-11.79 25.23-15.53 38.86h-75.5v30h69.86c-.66 6.39-1 12.87-1 19.43s.34 13.04 1 19.43h-69.86v30h75.5c3.74 13.63 8.97 26.65 15.53 38.86h-91.03v30h111.1c12.34 15.08 26.98 28.22 43.39 38.85h-154.49v30h512v-30h-154.49c16.41-10.63 31.05-23.77 43.39-38.85h111.1v-30h-91.03c6.56-12.21 11.79-25.23 15.53-38.86h75.5v-30h-69.86c.66-6.39 1-12.87 1-19.43s-.34-13.04-1-19.43h69.86v-30h-75.5c-3.74-13.63-8.97-26.65-15.53-38.86h91.03v-30h-111.1c-12.34-15.08-26.98-28.22-43.39-38.85h154.49zm-98.86 187.14c0 86.65-70.49 157.14-157.14 157.14s-157.14-70.49-157.14-157.14 70.49-157.14 157.14-157.14 157.14 70.49 157.14 157.14z" fill="#eff3f7"/><path d="m512 98.86h-154.49c16.41 10.63 31.05 23.77 43.39 38.85h111.1v30h-91.03c6.56 12.21 11.79 25.23 15.53 38.86h75.5v30h-69.86c.66 6.39 1 12.87 1 19.43s-.34 13.04-1 19.43h69.86v30h-75.5c-3.74 13.63-8.97 26.65-15.53 38.86h91.03v30h-111.1c-12.34 15.08-26.98 28.22-43.39 38.85h154.49v30h-256v-30c86.65 0 157.14-70.49 157.14-157.14s-70.49-157.14-157.14-157.14v-30h256z" fill="#cddceb"/><path d="m281.86 281.86c-7.14 7.14-16.5 10.71-25.86 10.71s-18.72-3.57-25.86-10.71c-14.28-14.28-14.28-37.44 0-51.72 7.14-7.14 16.5-10.71 25.86-10.71s18.72 3.57 25.86 10.71c14.28 14.28 14.28 37.44 0 51.72z" fill="#eff3f7"/><path d="m281.86 281.86c-7.14 7.14-16.5 10.71-25.86 10.71v-73.14c9.36 0 18.72 3.57 25.86 10.71 14.28 14.28 14.28 37.44 0 51.72z" fill="#cddceb"/></g></svg>