<svg id="Capa_1" enable-background="new 0 0 497 497" height="512" viewBox="0 0 497 497" width="512" xmlns="http://www.w3.org/2000/svg"><g><g fill="#d2e1fe"><path d="m341.944 413.619h121.056c11.046 0 20-8.954 20-20v-263.88c0-5.293-2.098-10.371-5.835-14.12l-109.389-109.739c-3.753-3.764-8.85-5.88-14.165-5.88h-177.924c-11.046 0-20 8.954-20 20v61.954 312.005c0 11.062 8.979 20.023 20.041 20z"/><path d="m483 129.74v11.36l-111.06.37h-.03c-16.54 0-30-13.46-30-30v-111.47h11.7c5.32 0 10.41 2.12 14.17 5.88l109.38 109.74c3.74 3.75 5.84 8.83 5.84 14.12z"/><path d="m361.59 212.41v201.21h-19.65l-166.21.34c-11.06.02-20.04-8.94-20.04-20v-331.29h56.51c10.55 0 20.88 4.29 28.33 11.76l109.39 109.74c7.52 7.55 11.67 17.58 11.67 28.24z"/></g><path d="m361.94 413.62-166.21.34c-.4 0-.79-.01-1.19-.04l147.4-.3z" fill="#c5d8fc"/><path d="m483 129.74v11.36l-111.06.37h-.03c-16.54 0-30-13.46-30-30v-111.47h11.7c5.32 0 10.41 2.12 14.17 5.88l109.38 109.74c3.74 3.75 5.84 8.83 5.84 14.12z" fill="#aac7fa"/><path d="m481.04 121.11-109.13.36c-5.52 0-10-4.47-10-10 0 0 0-69.78 0-109.66 2.17.98 4.16 2.36 5.87 4.07l109.38 109.74c1.61 1.62 2.92 3.47 3.88 5.49z" fill="#c5d8fc"/><g><path d="m437.691 298.767h-105.953c-4.143 0-7.5-3.357-7.5-7.5s3.357-7.5 7.5-7.5h105.953c4.143 0 7.5 3.357 7.5 7.5s-3.357 7.5-7.5 7.5z" fill="#f9f8f8"/></g><g><path d="m437.574 242.168h-97.456c-4.207 0-7.617-3.357-7.617-7.5s3.41-7.5 7.617-7.5h97.456c4.207 0 7.617 3.357 7.617 7.5s-3.41 7.5-7.617 7.5z" fill="#f9f8f8"/></g><path d="m349.92 184.17-109.39-109.74c-7.45-7.47-17.78-11.76-28.33-11.76h-36.51c-2.761 0-5-2.239-5-5v-37.67c0-11.05 8.95-20 20-20h-15c-11.046 0-20 8.954-20 20v42.67 331.29c0 11.06 8.98 20.02 20.04 20l166.21-.34h19.65v-201.21c0-10.66-4.15-20.69-11.67-28.24z" fill="#c5d8fc"/><path d="m361.59 227.17v15h-21.47c-4.21 0-7.62-3.36-7.62-7.5s3.41-7.5 7.62-7.5z" fill="#ede8e5"/><path d="m361.59 283.77v15h-29.85c-4.14 0-7.5-3.36-7.5-7.5 0-4.15 3.36-7.5 7.5-7.5z" fill="#ede8e5"/><path d="m341.59 212.41v11.62l-111.07.12h-.02c-16.54 0-30-13.46-30-30l.42-111.48h11.28c5.32 0 10.41 2.12 14.17 5.88l109.38 109.74c3.74 3.75 5.84 8.83 5.84 14.12z" fill="#aad7e5"/><path d="m341.589 477c0 11.046-8.954 20-20 20h-287.589c-11.046 0-20-8.954-20-20v-374.328c0-11.046 8.954-20 20-20h178.2c5.315 0 10.412 2.116 14.165 5.88l109.389 109.739c3.737 3.749 5.835 8.826 5.835 14.12z" fill="#aad7e5"/><path d="m49 497h-15c-11.05 0-20-8.95-20-20v-374.33c0-11.04 8.95-20 20-20h15c-11.05 0-20 8.96-20 20v374.33c0 11.05 8.95 20 20 20z" fill="#98cfde"/><path d="m341.59 212.41v11.62l-111.07.12h-.02c-16.54 0-30-13.46-30-30l.42-111.48h11.28c5.32 0 10.41 2.12 14.17 5.88l109.38 109.74c3.74 3.75 5.84 8.83 5.84 14.12z" fill="#88bcd3"/><g><g><path d="m132.174 260.611h-76.969c-4.143 0-7.5-3.357-7.5-7.5s3.357-7.5 7.5-7.5h76.969c4.143 0 7.5 3.357 7.5 7.5s-3.358 7.5-7.5 7.5z" fill="#f9f8f8"/></g><g><path d="m300.557 315.228h-246.29c-4.143 0-7.5-3.357-7.5-7.5s3.357-7.5 7.5-7.5h246.29c4.143 0 7.5 3.357 7.5 7.5s-3.358 7.5-7.5 7.5z" fill="#f9f8f8"/></g><g><path d="m301.323 369.844h-247.056c-4.143 0-7.5-3.357-7.5-7.5s3.357-7.5 7.5-7.5h247.057c4.143 0 7.5 3.357 7.5 7.5s-3.358 7.5-7.501 7.5z" fill="#f9f8f8"/></g><g><path d="m152.824 424.459h-97.619c-4.143 0-7.5-3.357-7.5-7.5s3.357-7.5 7.5-7.5h97.619c4.143 0 7.5 3.357 7.5 7.5s-3.357 7.5-7.5 7.5z" fill="#f9f8f8"/></g></g><path d="m339.74 204.03-109.24.12c-5.52 0-10-4.48-10-10l.41-109.47c2.01.96 3.86 2.27 5.46 3.87l109.38 109.74c1.68 1.68 3.02 3.62 3.99 5.74z" fill="#98cfde"/></g></svg>