<?xml version="1.0" encoding="iso-8859-1"?>
<!-- Generator: Adobe Illustrator 19.0.0, SVG Export Plug-In . SVG Version: 6.00 Build 0)  -->
<svg version="1.1" id="Layer_1" xmlns="http://www.w3.org/2000/svg" xmlns:xlink="http://www.w3.org/1999/xlink" x="0px" y="0px"
	 viewBox="0 0 511.999 511.999" style="enable-background:new 0 0 511.999 511.999;" xml:space="preserve">
<path d="M438.105,68.778l-91.477-33.28L322.564,3.412c-2.731-3.584-7.765-4.523-11.52-1.963l-51.2,34.133
	c-1.963,1.28-3.328,3.328-3.755,5.632c-0.341,2.304,0.256,4.693,1.621,6.571l0.768,1.024l5.205,6.912l-20.139,13.483
	l-103.168,68.779c-2.389,1.536-3.84,4.267-3.84,7.083v267.179c-28.843,1.195-57.685,9.984-66.048,25.003
	c-1.109,2.048-1.877,4.181-2.219,6.485v38.4c0,21.163,38.997,28.416,67.584,29.611c3.243,0.171,6.315,0.256,9.216,0.256
	c28.501,0,76.8-6.315,76.8-29.867c0,0,0-29.867,0-38.4c-2.816-19.029-35.499-30.123-68.267-31.488V149.674l100.523-67.072
	l19.797-13.227l7.68,10.24v99.584c0,0.939,0.171,1.792,0.512,2.645c0.597,2.133,2.133,3.925,4.096,4.949
	c1.195,0.597,2.56,0.939,3.925,0.939c1.707,0,3.413-0.512,4.949-1.536l145.067-102.4c2.56-1.877,3.925-4.949,3.499-8.107
	S441.092,69.887,438.105,68.778z M204.889,481.62c-0.853,1.877-6.571,5.376-17.067,8.192c-9.899,2.816-24.235,5.12-42.752,5.12
	c-37.803,0-58.112-9.557-59.733-12.8v-15.531c15.019,7.595,37.803,11.264,59.733,11.264c9.131,0,18.517-0.683,27.307-2.048
	c5.376-0.683,10.581-1.707,15.445-3.072c6.315-1.621,12.117-3.669,17.067-6.144V481.62z M204.804,444.927
	c0,4.096-20.565,15.872-59.733,15.872c-4.523,0-8.789-0.171-12.8-0.427c-30.805-2.219-46.933-11.861-46.933-15.445
	c0-2.645,8.704-8.448,25.6-12.203c4.949-1.109,10.667-2.048,17.067-2.645c1.365-0.171,2.816-0.341,4.267-0.341
	c1.365-0.171,2.816-0.256,4.267-0.341v5.803c0,4.693,3.84,8.533,8.533,8.533c4.693,0,8.533-3.84,8.533-8.533v-5.803
	C187.14,431.018,204.804,441.172,204.804,444.927z M292.1,65.194l-15.36-20.395l25.685-17.152l11.349-7.509l15.36,20.395
	L318.297,47.7L292.1,65.194z M403.46,88.831L298.67,162.73V81.407l30.037-20.053l13.739-9.216l74.496,27.136L403.46,88.831z"/>
<path style="fill:#388E3C;" d="M204.889,466.602v15.019c-0.853,1.877-6.571,5.376-17.067,8.192v-17.067
	C194.137,471.124,199.94,469.076,204.889,466.602z"/>
<path style="fill:#4CAF50;" d="M187.822,472.746v17.067c-9.899,2.816-24.235,5.12-42.752,5.12c-37.803,0-58.112-9.557-59.733-12.8
	v-15.531c15.019,7.595,37.803,11.264,59.733,11.264c9.131,0,18.517-0.683,27.307-2.048
	C177.753,475.135,182.958,474.111,187.822,472.746z"/>
<path style="fill:#388E3C;" d="M204.804,444.927c0,4.096-20.565,15.872-59.733,15.872c-4.523,0-8.789-0.171-12.8-0.427
	c30.805-2.219,46.933-11.861,46.933-15.445c0-2.645-8.704-8.448-25.6-12.203v-3.328C187.14,431.018,204.804,441.172,204.804,444.927
	z"/>
<path style="fill:#4CAF50;" d="M179.204,444.927c0,3.584-16.128,13.227-46.933,15.445c-30.805-2.219-46.933-11.861-46.933-15.445
	c0-2.645,8.704-8.448,25.6-12.203c4.949-1.109,10.667-2.048,17.067-2.645c1.365-0.171,2.816-0.341,4.267-0.341
	c1.365-0.171,2.816-0.256,4.267-0.341v5.803c0,4.693,3.84,8.533,8.533,8.533c4.693,0,8.533-3.84,8.533-8.533v-2.475
	C170.5,436.479,179.204,442.282,179.204,444.927z"/>
<polygon style="fill:#388E3C;" points="416.942,79.274 403.46,88.831 328.708,61.354 342.446,52.138 "/>
<polygon style="fill:#4CAF50;" points="403.46,88.831 298.67,162.73 298.67,81.407 328.708,61.354 "/>
<polygon style="fill:#388E3C;" points="329.134,40.532 318.297,47.7 302.425,27.647 313.774,20.138 "/>
<polygon style="fill:#4CAF50;" points="318.297,47.7 292.1,65.194 276.74,44.799 302.425,27.647 "/>
<g>
</g>
<g>
</g>
<g>
</g>
<g>
</g>
<g>
</g>
<g>
</g>
<g>
</g>
<g>
</g>
<g>
</g>
<g>
</g>
<g>
</g>
<g>
</g>
<g>
</g>
<g>
</g>
<g>
</g>
</svg>
