<svg id="Layer_2" height="512" viewBox="0 0 128 128" width="512" xmlns="http://www.w3.org/2000/svg" data-name="Layer 2"><circle cx="64" cy="64" fill="#bc7c63" r="62.25"/><circle cx="64" cy="64" fill="#23a8fe" r="62.25"/><g fill="#8affc7"><path d="m17.617 70.089-8.965-7.172-3.824.836-3.022-1.971c-.026.738-.056 1.474-.056 2.218a61.969 61.969 0 0 0 12.693 37.661l6.878-8.743 15.3-1.791.118-13.511-7.29-9.324z"/><path d="m114.387 38.029 8.556 5.959a62.259 62.259 0 0 0 -75.143-40.095l.74 3.305 29.76 3.866 18.6 12.006-12.332 5.648-20.8-2.292-6.359-6.358-10.489 4.132-13.67 13.671v18.038l9.219 9.22h11.763l13.829 13.829v17.642l10.253 10.253 13.114-13.112v-7.63l6.04-6.04v-12.041l9.558-9.558-2.106-11.867-13.049-8.437 12.494-5.491z"/></g></svg>