<svg id="Layer_1" enable-background="new 0 0 512.088 512.088" height="512" viewBox="0 0 512.088 512.088" width="512" xmlns="http://www.w3.org/2000/svg"><g><g><path d="m161.088 443.042h-135c-8.284 0-15-6.716-15-15v-254.498c0-45.49 37.009-82.5 82.5-82.5s82.5 37.009 82.5 82.5v254.499c0 8.284-6.716 14.999-15 14.999z" fill="#00429d"/></g><g><path d="m382.088 443.044h-252c-8.284 0-15-6.716-15-15v-213.165c0-5.272 2.768-10.157 7.291-12.867l122.445-68.367c4.572-2.739 10.256-2.847 14.928-.281l129.555 66.129c4.799 2.634 7.781 7.674 7.781 13.148v215.403c0 8.285-6.716 15-15 15z" fill="#ff7d47"/></g><path d="m389.307 199.493-129.555-66.129c-1.169-.642-2.401-1.116-3.664-1.424v311.105h126c8.284 0 15-6.716 15-15v-215.404c0-5.474-2.983-10.514-7.781-13.148z" fill="#ff435b"/><g><path d="m231.135 95.511c-5.673 0-11.101-3.234-13.631-8.724-3.468-7.523-.181-16.434 7.342-19.902 9.708-4.475 20.491-6.841 31.184-6.841 10.751 0 21.161 2.264 30.941 6.729 7.536 3.44 10.856 12.338 7.417 19.875-3.441 7.536-12.339 10.856-19.875 7.417-5.843-2.667-12.062-4.02-18.483-4.02-6.387 0-12.827 1.413-18.624 4.085-2.034.937-4.17 1.381-6.271 1.381z" fill="#bceaf9"/></g><g><path d="m321.611 49.66c-2.826 0-5.682-.797-8.22-2.464-17.085-11.221-36.92-17.152-57.361-17.152-20.396 0-40.196 5.907-57.26 17.083-6.931 4.539-16.229 2.601-20.767-4.329-4.539-6.93-2.601-16.228 4.329-20.767 21.962-14.385 47.446-21.988 73.697-21.988 26.31 0 51.84 7.634 73.83 22.077 6.924 4.548 8.851 13.848 4.303 20.772-2.88 4.387-7.668 6.768-12.551 6.768z" fill="#bceaf9"/></g><path d="m435.465 245.064-40-46.833c-1.233-1.444-2.729-2.64-4.408-3.526l-125.221-66.049c-3.58-2.143-6.219-3.396-9.745-3.328-3.528-.07-6.494 1.546-9.75 3.328l-125.221 66.049c-1.679.886-3.175 2.082-4.408 3.526l-40 46.833c-5.38 6.299-4.635 15.768 1.665 21.148 2.826 2.414 6.289 3.594 9.735 3.594 4.235 0 8.446-1.785 11.413-5.258l38.133-44.648 118.431-62.467 118.431 62.467 38.133 44.648c2.967 3.474 7.177 5.258 11.413 5.258 3.446 0 6.909-1.181 9.735-3.594 6.298-5.38 7.043-14.848 1.664-21.148z" fill="#fff4f4"/><path d="m322.087 305.235h-132c-8.284 0-15 6.716-15 15v107.745c0 8.284 6.716 15 15 15h132c8.284 0 15-6.716 15-15v-107.745c0-8.284-6.715-15-15-15zm-116.999 50.809 26 19.5-26 19.5zm22.255-20.809h57.49l-28.745 21.559zm28.745 59.059 24.915 18.686h-49.83zm25-18.75 26-19.5v38.999z" fill="#fff4f4"/><g><path d="m256.088 274.544c-20.678 0-37.5-16.822-37.5-37.5s16.822-37.5 37.5-37.5 37.5 16.823 37.5 37.5-16.822 37.5-37.5 37.5z" fill="#ffde46"/></g><g><path d="m497.088 512.044h-25.066l-74.467-25.952-57.635 25.952h-167.844l-75.288-25.952-56.835 25.952h-24.953c-8.284 0-15-6.716-15-15v-69c0-8.284 6.716-15 15-15h65.896l58.787 20.553 46.745-20.553h139.139l58.712 20.553 46.794-20.553h66.016c8.284 0 15 6.716 15 15v69c-.001 8.284-6.717 15-15.001 15z" fill="#bee75e"/></g><path d="m322.087 305.235h-65.999v30h28.745l-28.745 21.558v37.5l24.915 18.686h-24.915v30h65.999c8.284 0 15-6.716 15-15v-107.744c0-8.284-6.715-15-15-15zm-15 89.808-26-19.5 26-19.5z" fill="#f6efea"/><path d="m497.088 413.044h-66.016l-46.794 20.553-58.712-20.553h-69.478v99h83.832l57.635-25.952 74.467 25.952h25.066c8.284 0 15-6.716 15-15v-69c0-8.284-6.716-15-15-15z" fill="#00cb75"/><path d="m431.072 413.044h-105.506l14.354 99h132.102z" fill="#00a78e"/><path d="m80.896 413.044-40.943 99h132.123l14.351-99z" fill="#00cb75"/><path d="m329.859 22.121c-21.973-14.433-47.482-22.065-73.771-22.076v30c20.421.011 40.234 5.941 57.302 17.151 2.538 1.667 5.395 2.464 8.22 2.464 4.883 0 9.671-2.381 12.552-6.767 4.548-6.925 2.622-16.225-4.303-20.772z" fill="#9ddff6"/><path d="m286.971 66.773c-9.762-4.457-20.153-6.719-30.883-6.727v30c6.401.008 12.6 1.359 18.425 4.018 7.535 3.44 16.434.12 19.875-7.417 3.439-7.536.119-16.434-7.417-19.874z" fill="#9ddff6"/><path d="m435.465 245.064-40-46.833c-1.233-1.444-2.729-2.64-4.408-3.526l-125.221-66.049c-3.58-2.143-6.219-3.396-9.745-3.328-.001 0-.002 0-.003 0v32.104l118.431 62.467 38.133 44.648c2.967 3.474 7.177 5.258 11.413 5.258 3.446 0 6.909-1.181 9.735-3.594 6.299-5.379 7.044-14.847 1.665-21.147z" fill="#f6efea"/><path d="m256.088 199.543v75c20.678 0 37.5-16.822 37.5-37.5s-16.822-37.499-37.5-37.5z" fill="#ffcd00"/></g></svg>