<?xml version="1.0" encoding="iso-8859-1"?>
<!-- Generator: Adobe Illustrator 19.0.0, SVG Export Plug-In . SVG Version: 6.00 Build 0)  -->
<svg version="1.1" id="Capa_1" xmlns="http://www.w3.org/2000/svg" xmlns:xlink="http://www.w3.org/1999/xlink" x="0px" y="0px"
	 viewBox="0 0 512 512" style="enable-background:new 0 0 512 512;" xml:space="preserve">
<path style="fill:#FFC477;" d="M466.498,205.2c-32.754-67.145-26.203-154.532-26.203-154.532H71.704
	c0,0,6.551,87.388-26.203,154.532c-30.419,62.36-86.725,210.866,3.367,257.956c-3.922,16.92-5.393,36.352,2.625,40.743
	c7.164,3.924,20.366-4.999,31.758-15.8c9.095-8.624,22.4-11.121,34.089-6.594c24.678,9.557,71.843,23.336,138.661,23.336
	c66.812,0,113.97-13.782,138.647-23.343c11.69-4.53,24.998-2.032,34.096,6.594c11.394,10.803,24.6,19.73,31.765,15.806
	c8.018-4.392,6.547-23.823,2.625-40.743C553.222,416.067,496.918,267.56,466.498,205.2z"/>
<path style="fill:#FFAA4D;" d="M140.92,310.766c-0.492-50.627,34.895-94.65,84.543-104.576
	c149.007-29.79,217.18-88.237,217.181-88.239c-4.553-37.838-2.349-67.284-2.349-67.284H71.704c0,0,6.551,87.388-26.203,154.532
	c-30.419,62.36-86.725,210.866,3.367,257.956c-3.922,16.92-5.393,36.352,2.625,40.743c7.164,3.924,20.366-4.999,31.758-15.799
	c9.095-8.624,22.4-11.121,34.089-6.594c24.678,9.557,71.843,23.336,138.661,23.336c66.812,0,113.97-13.782,138.647-23.343
	C183.456,500.506,141.732,394.247,140.92,310.766z"/>
<path style="fill:#FFDAAA;" d="M443.439,94.178H71.775c-23.93,0-43.51-19.58-43.51-43.51l0,0c0-23.93,19.58-43.51,43.51-43.51
	h371.664c23.93,0,43.51,19.58,43.51,43.51l0,0C486.948,74.599,467.369,94.178,443.439,94.178z"/>
<path style="fill:#FFC477;" d="M175.663,50.668L175.663,50.668c0-23.93,19.58-43.51,43.51-43.51H71.775
	c-23.93,0-43.51,19.58-43.51,43.51l0,0c0,23.93,19.58,43.51,43.51,43.51h147.397C195.242,94.178,175.663,74.599,175.663,50.668z"/>
<g>
	<ellipse style="fill:#C68D6D;" cx="256.329" cy="156.248" rx="17.02" ry="29.281"/>
	
		<ellipse transform="matrix(-0.7378 -0.675 0.675 -0.7378 202.3044 542.9301)" style="fill:#C68D6D;" cx="206.596" cy="232.175" rx="29.28" ry="17.019"/>
	
		<ellipse transform="matrix(-0.7378 0.675 -0.675 -0.7378 687.495 197.3683)" style="fill:#C68D6D;" cx="305.416" cy="232.204" rx="29.28" ry="17.019"/>
	
		<ellipse transform="matrix(-0.7378 -0.675 0.675 -0.7378 155.4874 663.4786)" style="fill:#C68D6D;" cx="206.6" cy="301.542" rx="29.28" ry="17.019"/>
	
		<ellipse transform="matrix(-0.7378 0.675 -0.675 -0.7378 734.3251 317.9138)" style="fill:#C68D6D;" cx="305.42" cy="301.572" rx="29.28" ry="17.019"/>
	
		<ellipse transform="matrix(-0.7378 -0.675 0.675 -0.7378 108.6635 784.0451)" style="fill:#C68D6D;" cx="206.603" cy="370.919" rx="29.28" ry="17.019"/>
	
		<ellipse transform="matrix(-0.7378 0.675 -0.675 -0.7378 781.162 438.4773)" style="fill:#C68D6D;" cx="305.423" cy="370.95" rx="29.28" ry="17.019"/>
</g>
<path style="fill:#B2785B;" d="M256.333,450.051c-4.268,0-7.726-3.458-7.726-7.726V219.087c0-4.268,3.458-7.726,7.726-7.726
	c4.268,0,7.726,3.458,7.726,7.726v223.237C264.06,446.591,260.601,450.051,256.333,450.051z"/>
<g>
</g>
<g>
</g>
<g>
</g>
<g>
</g>
<g>
</g>
<g>
</g>
<g>
</g>
<g>
</g>
<g>
</g>
<g>
</g>
<g>
</g>
<g>
</g>
<g>
</g>
<g>
</g>
<g>
</g>
</svg>
