<svg id="Capa_1" enable-background="new 0 0 512 512" height="512" viewBox="0 0 512 512" width="512" xmlns="http://www.w3.org/2000/svg"><g><g><path d="m414.242 203.868h-316.484v-179.368c0-9.389 7.611-17 17-17h282.484c9.389 0 17 7.611 17 17z" fill="#d9e7ec"/><path d="m397.242 504.5h-282.484c-9.389 0-17-7.611-17-17v-283.632h316.484v283.632c0 9.389-7.611 17-17 17z" fill="#c5d3dd"/><path d="m142.75 153c-7.18 0-13-5.82-13-13v-75c0-7.18 5.82-13 13-13 7.18 0 13 5.82 13 13v75c0 7.18-5.82 13-13 13z" fill="#9facba"/><path d="m97.758 242.333h68.325c2.612 0 5.006-1.454 6.211-3.771l18.039-34.694h-92.575z" fill="#9facba"/><path d="m397.242 7.5h-34.016c9.389 0 17 7.611 17 17v179.368h34.016v-179.368c0-9.389-7.611-17-17-17z" fill="#c5d3dd"/><path d="m380.226 203.868v283.632c0 9.389-7.611 17-17 17h34.016c9.389 0 17-7.611 17-17v-283.632z" fill="#b6c4cf"/><path d="m161.987 203.868-18.039 34.694c-1.205 2.317-3.599 3.771-6.211 3.771h28.346c2.612 0 5.006-1.454 6.211-3.771l18.039-34.694z" fill="#8d9ca8"/></g><g><path d="m414.242 57.853c4.143 0 7.5-3.358 7.5-7.5v-25.853c0-13.509-10.99-24.5-24.5-24.5h-282.484c-13.51 0-24.5 10.991-24.5 24.5v372.199c0 4.142 3.357 7.5 7.5 7.5s7.5-3.358 7.5-7.5v-146.866h60.825c5.43 0 10.359-2.993 12.865-7.811l15.938-30.654h211.855v276.132c0 1.335-.27 2.623-.801 3.829-.002.004-.004.008-.006.012-1.523 3.438-4.934 5.659-8.693 5.659h-282.483c-5.238 0-9.5-4.262-9.5-9.5v-55.801c0-4.142-3.357-7.5-7.5-7.5s-7.5 3.358-7.5 7.5v55.801c0 13.509 10.99 24.5 24.5 24.5h282.484c9.705 0 18.507-5.739 22.425-14.62.003-.006.005-.013.008-.019 1.372-3.119 2.067-6.437 2.067-9.861 0-30.394 0-388.39 0-402.147 0-4.142-3.357-7.5-7.5-7.5s-7.5 3.358-7.5 7.5v111.016h-216.409-85.075v-171.869c0-5.238 4.262-9.5 9.5-9.5h282.484c5.238 0 9.5 4.262 9.5 9.5v25.853c0 4.142 3.358 7.5 7.5 7.5zm-236.262 153.516-12.201 23.465h-60.521v-23.465z"/><path d="m122.25 65v75c0 11.304 9.196 20.5 20.5 20.5s20.5-9.196 20.5-20.5v-75c0-11.304-9.196-20.5-20.5-20.5s-20.5 9.196-20.5 20.5zm26 0v75c0 3.033-2.467 5.5-5.5 5.5s-5.5-2.467-5.5-5.5v-75c0-3.033 2.467-5.5 5.5-5.5s5.5 2.467 5.5 5.5z"/></g></g></svg>