<svg height="512pt" viewBox="-37 0 512 512.00086" width="512pt" xmlns="http://www.w3.org/2000/svg"><path d="m393.292969 138.679688c-1.289063 0-2.601563-.167969-3.90625-.519532-8-2.152344-12.738281-10.382812-10.585938-18.382812l29.246094-108.671875c2.152344-8 10.386719-12.738281 18.382813-10.585938 8 2.152344 12.738281 10.382813 10.585937 18.382813l-29.246094 108.671875c-1.800781 6.695312-7.859375 11.105469-14.476562 11.105469zm0 0" fill="#c8d2dc"/><path d="m422.539062 117.898438-51.699218-13.851563c-7.992188-2.144531-16.230469 2.601563-18.371094 10.605469l-26.382812 98.453125c-1.25 4.660156-.179688 9.636719 2.875 13.375l41.898437 51.269531c2.882813 3.527344 7.167969 5.507812 11.613281 5.507812 1.050782 0 2.109375-.109374 3.164063-.335937 5.507812-1.1875 9.882812-5.359375 11.332031-10.804687l36.183594-135.871094c2.128906-7.996094-2.621094-16.207032-10.613282-18.347656zm0 0" fill="#ffd400"/><path d="m398.847656 244.710938c-.472656-4.8125-3.238281-9.105469-7.429687-11.523438-57.546875-33.226562-125.695313-51.621094-191.890625-51.796875-.335938 0-.664063 0-1 0-69.34375 0-131.144532 19.25-178.761719 55.699219-3.730469 2.859375-5.910156 7.300781-5.878906 12.003906.234375 39.046875 21.453125 74.867188 59.738281 100.859375 33.625 22.828125 78.054688 37.039063 125.105469 40.007813 5.964843.378906 11.890625.566406 17.765625.566406 41.34375 0 80.121094-9.246094 110.679687-26.589844 36.914063-20.945312 60.871094-52.6875 69.925781-92.367188 1.066407-4.675781 2.183594-8.144531 2.578126-14.347656.457031-7.164062-.832032-12.511718-.832032-12.511718zm0 0" fill="#0040a0"/><path d="m20.679688 286.003906c9.097656 24.433594 27.132812 46.425782 52.945312 63.949219 33.625 22.828125 78.054688 37.039063 125.105469 40.007813 5.964843.378906 11.890625.566406 17.765625.566406 41.34375 0 80.121094-9.246094 110.679687-26.589844 32.320313-18.339844 54.707031-44.960938 65.859375-77.933594zm0 0" fill="#00215a"/><path d="m231.023438 327.097656h-33.035157c-8.285156 0-15-6.71875-15-15 0-8.285156 6.714844-15.003906 15-15.003906h33.035157c8.285156 0 15 6.71875 15 15.003906 0 8.28125-6.714844 15-15 15zm0 0" fill="#3aaaff"/><path d="m120.144531 271.710938c-66.25 0-120.144531 53.898437-120.144531 120.144531 0 66.246093 53.898438 120.144531 120.144531 120.144531 66.246094 0 120.144531-53.894531 120.144531-120.144531s-53.898437-120.144531-120.144531-120.144531zm0 0" fill="#e1ebf0"/><path d="m120.429688 271.714844v240.28125c66.117187-.152344 119.859374-53.988282 119.859374-120.140625 0-66.152344-53.742187-119.984375-119.859374-120.140625zm0 0" fill="#c8d2dc"/><path d="m155.691406 420.449219c-.367187 0-.738281-.015625-1.113281-.042969-6.269531-.460938-12.246094-2.695312-17.277344-6.460938-4.417969-3.3125-7.960937-7.71875-10.238281-12.75-3.414062-7.546874-.066406-16.433593 7.480469-19.851562 7.546875-3.414062 16.433593-.070312 19.851562 7.480469.199219.433593.503907.816406.886719 1.101562.4375.328125.953125.519531 1.496094.5625 8.261718.605469 14.46875 7.796875 13.859375 16.058594-.578125 7.886719-7.160157 13.902344-14.945313 13.902344zm0 0" fill="#9facb9"/><path d="m105.433594 384.542969c-.367188 0-.738282-.011719-1.113282-.042969-6.269531-.460938-12.242187-2.695312-17.277343-6.460938-4.421875-3.3125-7.960938-7.71875-10.238281-12.75-3.414063-7.546874-.066407-16.433593 7.480468-19.851562 7.546875-3.414062 16.4375-.066406 19.851563 7.480469.199219.433593.503906.816406.886719 1.101562.433593.328125.953124.523438 1.496093.5625 8.261719.605469 14.46875 7.796875 13.859375 16.058594-.578125 7.886719-7.160156 13.902344-14.945312 13.902344zm0 0" fill="#c8d2dc"/><path d="m156.097656 367.226562c-.371094 0-.742187-.011718-1.117187-.039062-6.269531-.460938-12.242188-2.695312-17.277344-6.464844-4.417969-3.308594-7.960937-7.714844-10.234375-12.746094-3.417969-7.546874-.070312-16.433593 7.476562-19.851562 7.546876-3.417969 16.433594-.070312 19.851563 7.476562.199219.4375.503906.820313.886719 1.105469.4375.324219.953125.519531 1.496094.558594 8.261718.609375 14.46875 7.796875 13.859374 16.0625-.578124 7.886719-7.160156 13.898437-14.941406 13.898437zm0 0" fill="#9facb9"/><path d="m292.992188 267.09375h-172.285157c-8.285156 0-15-6.714844-15-15s6.714844-15 15-15h172.285157c8.28125 0 15 6.714844 15 15s-6.71875 15-15 15zm0 0" fill="#9ed0ff"/></svg>