<svg height="512" viewBox="0 0 60 60" width="512" xmlns="http://www.w3.org/2000/svg"><g id="Page-1" fill="none" fill-rule="evenodd"><g id="027---Hiker" fill-rule="nonzero"><circle id="Oval" cx="18" cy="11" fill="#ffe0b2" r="3"/><path id="Shape" d="m29 20c-.0081672 1.1011688-.8988312 1.9918328-2 2h-11c-1.1032019-.0032948-1.9967052-.8967981-2-2 .0081672-1.1011688.8988312-1.9918328 2-2h11c1.1032019.0032948 1.9967052.8967981 2 2z" fill="#ffe0b2"/><path id="Shape" d="m27 18h-3c1.1032019.0032948 1.9967052.8967981 2 2-.0081672 1.1011688-.8988312 1.9918328-2 2h3c1.1011688-.0081672 1.9918328-.8988312 2-2-.0032948-1.1032019-.8967981-1.9967052-2-2z" fill="#dfc49c"/><rect id="Rectangle-path" fill="#3f51b5" height="12" rx="3" width="8" x="6" y="14"/><path id="Shape" d="m20 17v1h-4c-1.1011688.0081672-1.9918328.8988312-2 2v-3c0-1.6568542 1.3431458-3 3-3s3 1.3431458 3 3z" fill="#02a9f4"/><path id="Shape" d="m21.62 40.41c-1.0982094.1131552-2.0814326-.6823618-2.2-1.78l-.55-4.77c-.0300549-.2434998-.1010552-.4801672-.21-.7l-.66-1.29v1.76c.0014912.2459678-.0425855.4900846-.13.72l-2.95 7.62c-.3948836 1.0327725-1.5522275 1.5498836-2.585 1.155s-1.5498836-1.5522275-1.155-2.585l2.69-6.94c.0874145-.2299154.1314912-.4740322.13-.72v-12.88c.0032948 1.1032019.8967981 1.9967052 2 2h4v3.29c.0001971.468766.1097684.93102.32 1.35l1.97 3.9c.1538557.3112198.2552213.6457266.3.99l.81 6.67c.1173401 1.1013966-.6788925 2.0899775-1.78 2.21z" fill="#02a9f4"/><path id="Shape" d="m59 34.03v1.97l-58 15v-3c.00226531-.9119811.61794915-1.7082655 1.5-1.94l54-13.96c.5978306-.1543627 1.2334434-.0239461 1.7221845.3533621.4887411.3773081.7758122.9592035.7778155 1.5766379z" fill="#a4c400"/><path id="Shape" d="m56.5 32.1-1.3.337c.5041337.3741432.8009606.9651998.8 1.593v1.97l-55 14.224v.776l58-15v-1.97c-.0020033-.6174344-.2890744-1.1993298-.7778155-1.5766379-.4887411-.3773082-1.1243539-.5077248-1.7221845-.3533621z" fill="#90ac00"/><path id="Shape" d="m59 36v21c-.0032948 1.1032019-.8967981 1.9967052-2 2h-54c-1.10320187-.0032948-1.9967052-.8967981-2-2v-6z" fill="#91562d"/><path id="Shape" d="m56 36.776v20.224c-.0032948 1.1032019-.8967981 1.9967052-2 2h3c1.1032019-.0032948 1.9967052-.8967981 2-2v-21z" fill="#6d4122"/><path id="Shape" d="m57 3v10h-13v-9c0-.55228475.4477153-1 1-1z" fill="#f44335"/><path id="Rectangle-path" d="m54 3h3v10h-3z" fill="#c81e1e"/><path id="Shape" d="m50.36 18.45c-.3614222.3580087-.8513167.5561278-1.36.55h-11c-.4062651.0023626-.77358-.2413038-.929371-.6165185-.1557909-.3752147-.0690889-.807391.219371-1.0934815l2.59-2.58c.3899779-.3930079.3899779-1.0269921 0-1.42l-2.59-2.58c-.2884599-.2860905-.3751619-.71826679-.219371-1.09348151.155791-.37521471.5231059-.61888111.929371-.61651849h6v4z" fill="#f44335"/><path id="Shape" d="m51 13v4c-.0020179.5513864-.2339823 1.0769307-.64 1.45l-6.36-5.45z" fill="#c81e1e"/><g fill="#000"><path id="Shape" d="m0 57c0 1.6568542 1.34314575 3 3 3h54c1.6568542 0 3-1.3431458 3-3v-22.965c.0177143-1.2731298-.7915542-2.4109613-2-2.812v-30.223c0-.55228475-.4477153-1-1-1s-1 .44771525-1 1v1h-11c-1.1045695 0-2 .8954305-2 2v4h-5c-.8101887-.00064154-1.5407265.48756904-1.850065 1.23637863-.3093386.7488096-.1363592 1.61026947.438065 2.18162137l2.586 2.582-2.589 2.58c-.5762569.5715419-.7499675 1.4346682-.4396742 2.184635.3102932.7499667 1.0430555 1.2380465 1.8546742 1.235365h11c1.6568542 0 3-1.3431458 3-3v-3h4v17.194l-27 6.983v-15.957c.6359576-.5625928 1.0001018-1.3709107 1.0001018-2.22s-.3641442-1.6574072-1.0001018-2.22v-2.78c0-.5522847-.4477153-1-1-1s-1 .4477153-1 1v2h-6c-.0039291-.9460152-.3462274-1.8594019-.965-2.575 1.4556005-.8526474 2.221711-2.525288 1.9165597-4.1844031-.3051514-1.65911512-1.6162712-2.94970282-3.2799958-3.228631-1.6637245-.27892818-3.3240656.51348561-4.1536336 1.98236177-.829568 1.46887613-.6508599 3.29991833.4470697 4.58067233-.3619843.2167467-.6876292.4890736-.965.807-.7521264-.8741096-1.8468527-1.3784135-3-1.382h-2c-2.209139 0-4 1.790861-4 4v6c0 2.209139 1.790861 4 4 4h2c.7042532-.0041446 1.3946535-.1960759 2-.556v6.437c.0001204.1205626-.0215618.2401534-.064.353l-2.695 6.956c-.34517486.9165326-.2212396 1.9438517.332 2.752l-8.325 2.158c-1.32205535.342323-2.24607846 1.5343457-2.248 2.9zm57 1h-54c-.55228475 0-1-.4477153-1-1v-5.226l56-14.482v19.708c0 .5522847-.4477153 1-1 1zm-16.415-42.581c.3777019-.3754158.5900859-.8859629.5900859-1.4185s-.212384-1.0430842-.5900859-1.4185l-2.585-2.582h5v3c.0024797.2904358.1331435.5649396.357.75l-.007.009 4.95 4.241h-10.3zm9.415 1.406-3.3-2.825h3.3zm-5-4.825v-8h11v8zm-18 26.694-2.773.717c.1559205-.4266379.2126876-.8831688.166-1.335l-.813-6.666c-.0555802-.4583157-.1909565-.9033651-.4-1.315l-1.969-3.908c-.1397846-.2794404-.2127032-.5875475-.213-.9v-2.287h6zm0-19.694c.5522847 0 1 .4477153 1 1s-.4477153 1-1 1h-11c-.5522847 0-1-.4477153-1-1s.4477153-1 1-1zm-9-10c1.1045695 0 2 .8954305 2 2s-.8954305 2-2 2-2-.8954305-2-2 .8954305-2 2-2zm-1 6c1.1045695 0 2 .8954305 2 2h-3c-.3414397.0033144-.679743.0655622-1 .184v-.184c0-1.1045695.8954305-2 2-2zm-6 10h-2c-1.1045695 0-2-.8954305-2-2v-6c0-1.1045695.8954305-2 2-2h2c1.1045695 0 2 .8954305 2 2v6c0 1.1045695-.8954305 2-2 2zm1.108 15.906 2.7-6.955c.1313574-.3414865.1991396-.7041215.2-1.07v-10.065c.3177319.1175361.6532517.1797696.992.184h3v2.287c-.0001879.6252294.1464119 1.2417706.428 1.8l1.972 3.913c.1041088.2054523.1717791.4274111.2.656l.81 6.653c.0371556.3560152-.118443.704809-.4081833.9149943-.2897404.2101853-.6696041.2498299-.9965001.104-.326896-.1458298-.551161-.4549791-.5883166-.8109943l-.549-4.756c-.0390886-.3703665-.1469337-.7301895-.318-1.061l-.55-1.072v-1.628c0-.5522847-.4477153-1-1-1s-1 .4477153-1 1v3.631c.0001204.1205626-.0215618.2401534-.064.353l-2.954 7.629c-.1952327.5174908-.7730092.7787326-1.2905.5835-.5174908-.1952327-.7787326-.7730092-.5835-1.2905zm6.046-4.528.272 2.358c.0822951.7417258.4389893 1.4258653 1 1.918l-3.248.84zm-15.405 10.654 54-13.966c.0819742-.0212515.1663159-.0320042.251-.032.5522847 0 1 .4477153 1 1v1.191l-56 14.483v-1.708c-.00000588-.4556185.30796713-.8536397.749-.968z"/><path id="Shape" d="m55 42h-2c-.5522847 0-1 .4477153-1 1s.4477153 1 1 1h2c.5522847 0 1-.4477153 1-1s-.4477153-1-1-1z"/><path id="Shape" d="m55 46h-2c-.5522847 0-1 .4477153-1 1s.4477153 1 1 1h2c.5522847 0 1-.4477153 1-1s-.4477153-1-1-1z"/><path id="Shape" d="m55 50h-2c-.5522847 0-1 .4477153-1 1s.4477153 1 1 1h2c.5522847 0 1-.4477153 1-1s-.4477153-1-1-1z"/><path id="Shape" d="m55 54h-2c-.5522847 0-1 .4477153-1 1s.4477153 1 1 1h2c.5522847 0 1-.4477153 1-1s-.4477153-1-1-1z"/><path id="Shape" d="m48 46h-2c-.5522847 0-1 .4477153-1 1s.4477153 1 1 1h2c.5522847 0 1-.4477153 1-1s-.4477153-1-1-1z"/><path id="Shape" d="m48 42h-2c-.5522847 0-1 .4477153-1 1s.4477153 1 1 1h2c.5522847 0 1-.4477153 1-1s-.4477153-1-1-1z"/><path id="Shape" d="m48 50h-2c-.5522847 0-1 .4477153-1 1s.4477153 1 1 1h2c.5522847 0 1-.4477153 1-1s-.4477153-1-1-1z"/><path id="Shape" d="m48 54h-2c-.5522847 0-1 .4477153-1 1s.4477153 1 1 1h2c.5522847 0 1-.4477153 1-1s-.4477153-1-1-1z"/><path id="Shape" d="m41 46h-2c-.5522847 0-1 .4477153-1 1s.4477153 1 1 1h2c.5522847 0 1-.4477153 1-1s-.4477153-1-1-1z"/><path id="Shape" d="m41 50h-2c-.5522847 0-1 .4477153-1 1s.4477153 1 1 1h2c.5522847 0 1-.4477153 1-1s-.4477153-1-1-1z"/><path id="Shape" d="m41 54h-2c-.5522847 0-1 .4477153-1 1s.4477153 1 1 1h2c.5522847 0 1-.4477153 1-1s-.4477153-1-1-1z"/><path id="Shape" d="m34 46h-2c-.5522847 0-1 .4477153-1 1s.4477153 1 1 1h2c.5522847 0 1-.4477153 1-1s-.4477153-1-1-1z"/><path id="Shape" d="m34 50h-2c-.5522847 0-1 .4477153-1 1s.4477153 1 1 1h2c.5522847 0 1-.4477153 1-1s-.4477153-1-1-1z"/><path id="Shape" d="m34 54h-2c-.5522847 0-1 .4477153-1 1s.4477153 1 1 1h2c.5522847 0 1-.4477153 1-1s-.4477153-1-1-1z"/><path id="Shape" d="m27 50h-2c-.5522847 0-1 .4477153-1 1s.4477153 1 1 1h2c.5522847 0 1-.4477153 1-1s-.4477153-1-1-1z"/><path id="Shape" d="m27 54h-2c-.5522847 0-1 .4477153-1 1s.4477153 1 1 1h2c.5522847 0 1-.4477153 1-1s-.4477153-1-1-1z"/><path id="Shape" d="m20 50h-2c-.5522847 0-1 .4477153-1 1s.4477153 1 1 1h2c.5522847 0 1-.4477153 1-1s-.4477153-1-1-1z"/><path id="Shape" d="m20 54h-2c-.5522847 0-1 .4477153-1 1s.4477153 1 1 1h2c.5522847 0 1-.4477153 1-1s-.4477153-1-1-1z"/><path id="Shape" d="m13 54h-2c-.5522847 0-1 .4477153-1 1s.4477153 1 1 1h2c.5522847 0 1-.4477153 1-1s-.4477153-1-1-1z"/><path id="Shape" d="m7 54h-2c-.55228475 0-1 .4477153-1 1s.44771525 1 1 1h2c.55228475 0 1-.4477153 1-1s-.44771525-1-1-1z"/><path id="Shape" d="m53 6h-5c-.5522847 0-1 .44771525-1 1s.4477153 1 1 1h5c.5522847 0 1-.44771525 1-1s-.4477153-1-1-1z"/></g></g></g></svg>