<svg id="Capa_1" enable-background="new 0 0 512 512" height="512" viewBox="0 0 512 512" width="512" xmlns="http://www.w3.org/2000/svg"><g><g><path d="m13.5 131.18h80v326.57h-80z" fill="#f0f7ff"/><path d="m0 117.75h93.5v30h-93.5z" fill="#00b3ff"/></g><g><path d="m418.5 131.18h80v326.57h-80z" fill="#d7e9fc"/><path d="m418.5 117.75h93.5v30h-93.5z" fill="#3a80e8"/></g><path d="m78.5 39.25h355v418.5h-355z" fill="#5fd6ff"/><path d="m256 39.25h177.5v418.5h-177.5z" fill="#00b3ff"/><path d="m143.5 117.75v355h225v-355z" fill="#f0f7ff"/><path d="m256 117.75h112.5v355h-112.5z" fill="#d7e9fc"/><path d="m208.5 182.75h30v30h-30z" fill="#00b3ff"/><path d="m273.5 182.75h30v30h-30z" fill="#3a80e8"/><path d="m208.5 312.75h30v30h-30z" fill="#00b3ff"/><path d="m273.5 312.75h30v30h-30z" fill="#3a80e8"/><path d="m208.5 247.75h30v30h-30z" fill="#00b3ff"/><path d="m273.5 247.75h30v30h-30z" fill="#3a80e8"/><path d="m208.5 377.75h95v80h-95z" fill="#5fd6ff"/><path d="m256 377.75h47.5v80h-47.5z" fill="#00b3ff"/><path d="m0 442.75h512v30h-512z" fill="#bde760"/><path d="m256 442.75h256v30h-256z" fill="#00d880"/></g></svg>