<svg id="Layer_1" enable-background="new 0 0 512.019 512.019" height="512" viewBox="0 0 512.019 512.019" width="512" xmlns="http://www.w3.org/2000/svg"><g><g clip-rule="evenodd" fill-rule="evenodd"><g><path d="m259.985 158.99c-27.5-2-28.5-64.5-53-42.5s-42.506 31.845-58.901 16.704c-39.002 47.704-91.941 95.338-138.075 122.825v110.275c87.975-6.423 351.05 9.581 492.002 38.052v-148.334c-43.71-25.068-85.744-67.088-120.006-110.095-46.475 12.082-58.353-29.867-75.996-29.34s-18.524 44.413-46.024 42.413z" fill="#60a4ff"/><path d="m259.985 158.99c27.5 2 28.38-41.888 46.023-42.414s29.521 41.423 75.996 29.34c-36.545-45.873-64.248-92.869-75.707-121.616-8.574-21.51-39.199-6.617-57.017-11.099s-41.773-8.178-45.229 17.907c-3.677 27.751-25.597 64.939-55.968 102.086 16.396 15.141 34.401 5.296 58.901-16.704 24.501-22 25.501 40.501 53.001 42.5z" fill="#cff5fd"/></g><g><path d="m120.445 342.021h-110.436v69.151c35.105-32.888 77.618-60.358 110.436-69.151z" fill="#b8ecbb"/><path d="m120.445 342.021c-32.819 8.794-75.332 36.263-110.436 69.151v90.848h56.064c16.212-60.503 112.514-143.424 174.372-159.999z" fill="#88df8e"/><path d="m240.445 342.021c-61.858 16.575-158.16 99.495-174.372 159.999h120c16.212-60.503 112.514-143.424 174.372-159.999z" fill="#b8ecbb"/><path d="m360.445 342.021c-61.858 16.575-158.16 99.495-174.372 159.999h120c16.212-60.503 112.514-143.424 174.372-159.999z" fill="#88df8e"/><path d="m480.445 342.021c-61.858 16.575-158.16 99.495-174.372 159.999h120c8.57-31.984 39.523-70.229 75.936-101.63l.001-58.369z" fill="#b8ecbb"/><path d="m502.009 400.39c-36.413 31.4-67.366 69.646-75.936 101.63h75.936z" fill="#88df8e"/></g><path d="m57.056 373.472c-2.382 14.302-3.713 27.791-3.713 37.85 0 22.091 17.909 40 40 40s40-17.909 40-40c0-17.364-3.964-44.953-10.464-69.3-7.314-27.402-17.839-50.699-29.536-50.699-11.698 0-22.222 23.297-29.537 50.699-2.734 10.243-5.02 21.061-6.75 31.45z" fill="#d5ea79"/><path d="m188.631 334.681c0 2.591.493 5.067 1.39 7.34 2.926 7.414 10.156 12.661 18.611 12.661s15.684-5.246 18.611-12.661c.897-2.272 1.39-4.748 1.39-7.34 0-18.453-8.954-60-20-60-11.048.001-20.002 41.547-20.002 60z" fill="#cbe558"/><path d="m303.806 342.021c-2.735 10.246-5.021 21.065-6.751 31.455-2.382 14.301-3.712 27.788-3.712 37.845 0 22.091 17.909 40 40 40s40-17.909 40-40c0-13.806-2.506-34.075-6.8-54.04-1.107-5.146-2.332-10.271-3.664-15.26-7.314-27.402-17.839-50.699-29.536-50.699-11.698-.001-22.223 23.297-29.537 50.699z" fill="#d5ea79"/><path d="m448.63 274.682c-11.046 0-20 41.547-20 60 0 2.591.493 5.067 1.39 7.34 2.926 7.414 10.156 12.661 18.611 12.661 6.064 0 11.498-2.699 15.166-6.962 1.446-1.68 2.617-3.603 3.444-5.699.897-2.272 1.39-4.748 1.39-7.34 0-18.454-8.955-60-20.001-60z" fill="#cbe558"/><path d="m374.384 306.472c-2.051 7.685-3.766 15.799-5.064 23.592-1.786 10.726-2.784 20.841-2.784 28.384 0 16.569 13.432 30 30 30 16.569 0 30-13.431 30-30 0-10.354-1.88-25.556-5.1-40.53-.83-3.859-1.749-7.703-2.748-11.445-5.486-20.551-13.379-38.025-22.152-38.025s-16.666 17.473-22.152 38.024z" fill="#d5ea79"/><path d="m134.385 306.472c-2.051 7.685-3.766 15.799-5.064 23.592-1.786 10.726-2.784 20.841-2.784 28.384 0 16.569 13.432 30 30 30s30-13.431 30-30c0-10.354-1.88-25.556-5.1-40.53-.83-3.859-1.749-7.703-2.748-11.445-5.486-20.551-13.379-38.025-22.152-38.025s-16.666 17.473-22.152 38.024z" fill="#d5ea79"/><path d="m327.749 66.969c13.399 23.097 31.135 49.599 51.821 75.875h96.674c14.171 0 25.766-11.594 25.766-25.766s-11.594-25.766-25.766-25.766h-12.883c0-14.23-11.536-25.766-25.766-25.766-6.391 0-12.237 2.327-16.74 6.18-7.709-18.746-26.15-31.946-47.675-31.946-19.267 0-36.59 11.527-45.431 27.189z" fill="#f3f0f1"/></g><g><path d="m506.986 247.337c-37.837-21.7-74.789-57.018-106.276-94.493h75.535c19.721 0 35.766-16.044 35.766-35.766s-16.044-35.766-35.766-35.766h-4.306c-4.336-14.871-18.091-25.766-34.343-25.766-4.382 0-8.694.806-12.729 2.342-11.191-17.368-30.467-28.108-51.687-28.108-16.39 0-32.457 7.147-44.129 19.011-5.697-10.58-10.252-20.135-13.464-28.193-2.63-6.599-8.527-14.991-21.685-17.495-7.724-1.469-15.98-.645-23.963.152-6.759.676-13.749 1.373-18.219.249-14.753-3.711-31.531-6.354-44.104 2.181-7.498 5.089-12.033 13.202-13.478 24.11-3.832 28.922-31.549 73.99-74.142 120.558-3.728 4.075-3.446 10.4.63 14.128s10.401 3.446 14.128-.63c5.268-5.76 10.301-11.487 15.109-17.168 8.479 4.488 17.823 5.018 27.895 1.54 10.083-3.481 20.822-10.746 35.908-24.292 1.286-1.155 2.165-1.699 2.656-1.948 2.386 1.947 6.259 9.575 8.635 14.253 7.102 13.986 15.94 31.393 34.303 32.728.886.064 1.751.096 2.599.096 20.163-.001 29.527-17.751 35.809-29.66 2.016-3.821 6.736-12.771 8.639-12.827 2.17-.089 7.477 4.917 11.357 8.555 11.793 11.054 29.233 27.4 60.368 21.888 32.557 40.213 71.961 79.38 113.978 104.715v70.291h-13.432c-.362-10.514-2.754-24.957-6.188-37.001-3.713-13.023-10.217-30.338-23.759-30.338-13.035 0-19.547 16.039-23.328 28.855-7.731-23.889-16.948-35.089-28.766-35.089-12.761 0-22.481 13.044-30.592 41.052-1.056 3.646-2.047 7.463-2.964 11.359-8.488-19.824-18.27-29.537-29.638-29.537-14.864 0-27.014 16.597-37.108 50.699h-57.657c-.362-10.514-2.754-24.957-6.188-37.001-3.713-13.023-10.217-30.338-23.759-30.338-13.035 0-19.547 16.039-23.328 28.855-3.813-11.783-7.988-20.482-12.659-26.268 10.23-11.67 19.267-24.552 26.376-37.667 2.632-4.855.83-10.925-4.026-13.557-4.854-2.63-10.924-.83-13.557 4.026-7.367 13.59-17.048 26.926-28.043 38.661-11.233 2.016-20.016 15.107-27.447 40.764-1.056 3.646-2.047 7.465-2.964 11.363-8.488-19.824-18.27-29.537-29.639-29.537-14.864 0-27.014 16.597-37.108 50.699h-36.226s0 0-.001 0v-70.376c15.455-9.566 31.714-21.3 48.408-34.938 4.277-3.494 4.912-9.794 1.417-14.071s-9.795-4.912-14.071-1.417c-17.702 14.462-34.818 26.645-50.873 36.21-3.027 1.804-4.881 5.067-4.881 8.591v246c0 5.523 4.477 10 10 10h492c5.523 0 10-4.477 10-10l.001-246.008c0-3.584-1.917-6.893-5.024-8.676zm-133.806-197.557c16.91 0 31.994 10.107 38.427 25.75 1.22 2.966 3.789 5.167 6.906 5.918 3.118.752 6.407-.039 8.844-2.124 2.848-2.437 6.483-3.778 10.239-3.778 8.693 0 15.766 7.072 15.766 15.766 0 5.523 4.477 10 10 10h12.883c8.693 0 15.766 7.073 15.766 15.766s-7.072 15.766-15.766 15.766h-91.684c-17.586-22.65-32.925-45.343-45.04-65.64 8.033-10.728 20.723-17.424 33.659-17.424zm-41.838 70.755c-7.482-7.014-15.253-14.277-25.631-13.954-13.558.404-20.026 12.667-25.733 23.488-7.026 13.32-11.205 19.523-19.267 18.948-7.094-.516-12.846-11.842-17.92-21.835-5.998-11.812-11.663-22.968-22.915-25.07-6.505-1.213-13.091 1.12-19.571 6.938-19.988 17.948-30.346 22.366-37.178 21.331 29.321-37.599 47.42-72.156 50.84-97.958 1-7.554 3.923-9.538 4.883-10.189 6.851-4.651 22.21-.787 27.993.667 7.86 1.979 16.617 1.103 25.085.257 16.704-1.669 22.67-1.202 25.082 4.847 4.545 11.402 11.911 26.226 21.612 43.021.302.68.674 1.33 1.125 1.934 11.561 19.83 26.297 42.281 43.444 65.047-14.262-.987-23.166-9.333-31.849-17.472zm160.668 231.486v43.823c-36.701 32.348-62.912 66.813-73.278 96.175h-98.502c4.214-9.648 10.411-20.133 18.339-30.972 24.711-2.579 44.111-23.232 44.741-48.465 5.508-4.927 11.188-9.72 16.963-14.315 14.504-1.351 26.777-10.476 32.614-23.158 6.28-3.918 12.459-7.455 18.429-10.554 7.022-.626 13.352-3.681 18.148-8.318 4.339-1.708 8.49-3.123 12.383-4.216zm-291.777 139.998c13.124-30.051 44.994-66.785 83.906-96.836-.517 5.823-.796 11.276-.796 16.138 0 21.525 13.672 39.916 32.789 46.946-7.826 11.809-13.66 23.106-17.411 33.752zm-120.001 0c4.213-9.649 10.403-20.13 18.332-30.972 24.714-2.576 44.117-23.23 44.747-48.466 5.507-4.925 11.187-9.718 16.964-14.315 14.503-1.351 26.776-10.476 32.613-23.157 6.283-3.92 12.462-7.457 18.428-10.555 7.022-.626 13.352-3.681 18.149-8.318 4.342-1.709 8.493-3.124 12.384-4.217h49.207c-1.164 5.17-2.22 10.411-3.153 15.614-44.465 30.929-93.543 79.907-109.181 124.385h-98.49zm368.399-204.106c4.623 9.416 10 31.62 10 46.769 0 5.514-4.486 10-10 10s-10-4.486-10-10c-.001-15.15 5.376-37.353 10-46.769zm-64.614 21.25c5.045-18.945 10.017-27.222 12.521-29.951 2.544 2.77 7.614 11.242 12.723 30.72 4.352 16.594 7.276 36.091 7.276 48.516 0 11.028-8.972 20-20 20-7.476 0-14.328-4.21-17.753-10.801-.674-3.762-1.414-7.543-2.212-11.303.308-12.693 3.256-31.452 7.445-47.181zm-50.675-7.787c2.595 1.106 10.947 10.541 19.447 41.64 6.213 22.734 10.553 50.822 10.553 68.305 0 16.542-13.458 30-30 30s-30-13.458-30-30c0-17.483 4.339-45.571 10.553-68.305 8.5-31.1 16.853-40.534 19.447-41.64zm-124.711-13.463c4.623 9.416 10 31.62 10 46.769 0 5.514-4.486 10-10 10s-10-4.486-10-10c0-15.15 5.377-37.353 10-46.769zm-64.613 21.247c5.045-18.943 10.017-27.219 12.521-29.947 2.544 2.77 7.614 11.242 12.723 30.72 4.352 16.594 7.276 36.091 7.276 48.516 0 11.028-8.972 20-20 20-7.481 0-14.327-4.207-17.752-10.798-.674-3.763-1.414-7.545-2.213-11.307.308-12.694 3.256-31.456 7.445-47.184zm-50.675-7.784c2.595 1.106 10.947 10.541 19.447 41.64 6.213 22.734 10.553 50.822 10.553 68.305 0 16.542-13.458 30-30 30s-30-13.458-30-30c0-17.483 4.339-45.571 10.553-68.305 8.5-31.1 16.852-40.534 19.447-41.64zm-73.333 50.645h31.046c-1.166 5.176-2.223 10.424-3.156 15.633-9.399 6.537-18.802 13.723-27.891 21.329l.001-36.962c-.001 0-.001 0 0 0zm-.001 63.544c7.728-7.075 15.848-13.924 24.126-20.34-.515 5.807-.792 11.246-.792 16.096 0 21.525 13.673 39.916 32.789 46.947-7.827 11.811-13.657 23.106-17.407 33.752h-38.716zm420.213 76.454c9.133-20.96 27.425-45.309 51.787-68.943v68.943z"/><path d="m345.303 254.716c2.38 0 4.77-.845 6.68-2.562 4.108-3.691 4.446-10.014.755-14.122-14.224-15.83-29.156-46.501-31.295-53.346-1.647-5.272-7.258-8.208-12.527-6.563-5.271 1.647-8.21 7.256-6.563 12.527 2.952 9.447 19.05 42.432 35.508 60.748 1.975 2.2 4.703 3.318 7.442 3.318z"/><path d="m95.832 179.196c-5.523 0-9.996 4.477-9.996 10s4.48 10 10.003 10 10-4.477 10-10-4.477-10-10-10z"/><path d="m36.154 29.973c3.096.83 5.684 2.815 7.287 5.591 1.786 3.094 5.087 5 8.66 5s6.874-1.906 8.66-5c1.603-2.776 4.19-4.762 7.287-5.591 5.334-1.429 8.5-6.913 7.071-12.248-1.43-5.334-6.912-8.503-12.248-7.071-3.946 1.057-7.582 2.819-10.77 5.178-3.188-2.359-6.824-4.121-10.77-5.178-5.337-1.432-10.818 1.735-12.248 7.071-1.429 5.335 1.737 10.818 7.071 12.248z"/><path d="m91.955 92.374c3.096.829 5.684 2.814 7.286 5.59 1.786 3.094 5.087 5 8.66 5s6.874-1.906 8.66-5c1.603-2.776 4.19-4.761 7.286-5.59 5.335-1.429 8.501-6.912 7.072-12.247-1.43-5.335-6.913-8.5-12.247-7.072-3.946 1.057-7.583 2.819-10.771 5.178-3.188-2.359-6.825-4.121-10.771-5.178-5.339-1.428-10.818 1.737-12.248 7.072-1.427 5.334 1.739 10.818 7.073 12.247z"/><path d="m19.355 160.173c3.096.83 5.684 2.815 7.287 5.591 1.787 3.094 5.087 5 8.66 5s6.874-1.906 8.66-5c1.603-2.776 4.19-4.762 7.287-5.591 5.334-1.429 8.5-6.913 7.071-12.248-1.429-5.334-6.914-8.503-12.248-7.071-3.946 1.057-7.582 2.819-10.77 5.178-3.188-2.359-6.824-4.121-10.77-5.178-5.335-1.431-10.818 1.736-12.248 7.071-1.43 5.335 1.736 10.819 7.071 12.248z"/></g></g></svg>