<svg id="Capa_1" enable-background="new 0 0 512 512" height="512" viewBox="0 0 512 512" width="512" xmlns="http://www.w3.org/2000/svg"><g><path d="m36.109 387.163c-23.573-39.434-36.839-85.739-36.078-135.195 2.162-140.473 116.035-252.265 256.523-251.967 141.13.299 255.446 114.799 255.446 255.999 0 54.959-17.319 105.873-46.797 147.582-5.114 7.236-15.675 7.512-21.211.594-46.911-58.626-119.067-96.176-199.992-96.176-73.905 0-140.495 31.318-187.225 81.405-5.899 6.324-16.229 5.181-20.666-2.242z" fill="#ffb52d"/><path d="m430 230c0 104.934-85.066 190-190 190s-190-85.066-190-190 85.066-190 190-190 190 85.066 190 190z" fill="#ffc14f"/><path d="m240 100c0 4.142-3.358 7.5-7.5 7.5h-5v5c0 4.142-3.358 7.5-7.5 7.5s-7.5-3.358-7.5-7.5v-5h-5c-4.142 0-7.5-3.358-7.5-7.5s3.358-7.5 7.5-7.5h5v-5c0-4.142 3.358-7.5 7.5-7.5s7.5 3.358 7.5 7.5v5h5c4.142 0 7.5 3.358 7.5 7.5z" fill="#ffe2bb"/><path d="m180 60c0 4.142-3.358 7.5-7.5 7.5h-5v5c0 4.142-3.358 7.5-7.5 7.5s-7.5-3.358-7.5-7.5v-5h-5c-4.142 0-7.5-3.358-7.5-7.5s3.358-7.5 7.5-7.5h5v-5c0-4.142 3.358-7.5 7.5-7.5s7.5 3.358 7.5 7.5v5h5c4.142 0 7.5 3.358 7.5 7.5z" fill="#fff5f5"/><path d="m476 45c0 8.284-6.716 15-15 15h-65v90c0 16.569-13.431 30-30 30h-20c-16.569 0-30-13.431-30-30v-90c0-16.569 13.431-30 30-30h115c8.284 0 15 6.716 15 15z" fill="#754ca0"/><path d="m373 179.178c-2.246.537-4.59.822-7 .822h-20c-16.569 0-30-13.431-30-30v-90c0-16.569 13.431-30 30-30h34c-16.569 0-30 13.431-30 30v90c0 14.158 9.808 26.025 23 29.178z" fill="#644189"/><path d="m416 120v40c0 11.046-8.954 20-20 20h-80c-11.046 0-20-8.954-20-20v-40c0-11.046 8.954-20 20-20h80c11.046 0 20 8.954 20 20zm45-90c-8.284 0-15 6.716-15 15 0 8.284 6.716 15 15 15s15-6.716 15-15-6.716-15-15-15z" fill="#9773bd"/><path d="m246 155.5c0-19.606 15.894-35.5 35.5-35.5h149c19.606 0 35.5 15.894 35.5 35.5v246.949c-41.324 59.145-106.996 100.021-182.479 108.089-9.041.966-37.521-3.024-37.521-8.502z" fill="#44bfd7"/><path d="m433 400h-74c-18.225 0-33-14.775-33-33v-214c0-18.225 14.775-33 33-33h74c18.225 0 33 14.775 33 33v214c0 18.225-14.775 33-33 33z" fill="#7cd2e3"/><path d="m405 340c-13.807 0-25-11.193-25-25v-140c0-13.807 11.193-25 25-25 13.807 0 25 11.193 25 25v140c0 13.807-11.193 25-25 25z" fill="#a6e0ec"/><path d="m490 115c0 13.807-11.193 25-25 25s-25-11.193-25-25 11.193-25 25-25 25 11.193 25 25zm-30 65c0-11.046-8.954-20-20-20s-20 8.954-20 20 8.954 20 20 20 20-8.954 20-20zm0 25c-5.523 0-10 4.477-10 10s4.477 10 10 10 10-4.477 10-10-4.477-10-10-10z" fill="#c2eaf2"/><path d="m490 115c0 3.668-.79 7.152-2.209 10.291-3.138 1.419-6.622 2.209-10.291 2.209-13.807 0-25-11.193-25-25 0-3.668.79-7.152 2.209-10.291 3.139-1.419 6.623-2.209 10.291-2.209 13.807 0 25 11.193 25 25zm-31.06 71.44c.687-2.021 1.06-4.187 1.06-6.44 0-11.046-8.954-20-20-20-2.253 0-4.419.373-6.44 1.06-.687 2.021-1.06 4.187-1.06 6.44 0 11.046 8.954 20 20 20 2.253 0 4.419-.373 6.44-1.06z" fill="#def4f8"/><path d="m161.647 380-121.564-121.565c-5.444-5.444-5.444-14.27 0-19.713 67.138-67.138 175.991-67.138 243.129 0 5.444 5.444 5.444 14.27 0 19.713z" fill="#ffe2bb"/><path d="m161.647 322.843-121.564-121.565c-5.444-5.444-5.444-14.27 0-19.713 67.138-67.138 175.991-67.138 243.129 0 5.444 5.444 5.444 14.27 0 19.713z" fill="#fff5f5"/><path d="m129.973 282.217c-11.647-28.191-16.61-52.894-11.085-55.177s19.445 18.72 31.093 46.911c.403.975.798 1.946 1.184 2.912-.222-6.189-.341-12.677-.341-19.363 0-42.802 4.846-77.5 10.824-77.5s10.824 34.698 10.824 77.5c0 6.686-.118 13.174-.341 19.363.387-.966.782-1.937 1.185-2.913 11.647-28.191 25.568-49.193 31.093-46.911s.562 26.986-11.085 55.177c-3.988 9.653-8.243 18.462-12.335 25.783h-38.679c-4.095-7.32-8.349-16.13-12.337-25.782z" fill="#ffe2bb"/><path d="m283.52 510.538c-9.041.966-18.222 1.462-27.52 1.462-93.52 0-175.328-50.147-220-125.019v-74.981c0-11.046 8.954-20 20-20h220c11.046 0 20 8.954 20 20v180c0 8.386-5.161 15.566-12.48 18.538z" fill="#fb5858"/><path d="m76.666 438.688c-15.661-15.375-29.354-32.749-40.666-51.707v-74.981c0-11.046 8.954-20 20-20h40.666c-11.046 0-20 8.954-20 20v74.981c.061.102.122.203.183.305-.12.887-.183 1.793-.183 2.714z" fill="#d63030"/><path d="m170 292h30v213.856c-10.245-2.286-20.259-5.187-30-8.66zm60 0v218.696c8.55.862 17.223 1.304 26 1.304 1.336 0 2.669-.01 4-.031v-219.969zm-120 174.312c9.547 6.64 19.567 12.646 30 17.959v-192.271h-30z" fill="#f44545"/></g></svg>