<svg id="Layer_1" enable-background="new 0 0 512 512" height="512" viewBox="0 0 512 512" width="512" xmlns="http://www.w3.org/2000/svg"><g><path d="m0 429.998v-178.351c0-5.498 2.898-10.588 7.626-13.395l23.697-14.068c19.875-11.799 44.567-11.963 64.598-.431l2.255 1.298c18.853 10.855 42.085 10.737 60.828-.308.312-.184.624-.368.936-.551 19.752-11.636 44.258-11.681 64.052-.117.006.004.01.006.01.006 10.09 5.896 21.403 8.783 32.69 8.66 1.072-.012 9.955-.002 9.955-.002 22.174-5.319 89.538-32.661 89.538-32.661 1.681-21.622-2.291-27.386-10.728-41.676-9.1-15.41-39.651-24.008-54.399-13.869 0 0-27.157 21.67-31.285 23.092-2.389-.851-4.111-3.427-3.251-6.336l5.392-18.228c14.566-49.238 56.969-84.448 106.98-90.518 2.132-.15 8.641.801 13.852.801l53.537 12.759 62.498 81.728-17.686 292.469-238.487 7.049z" fill="#90d8f9"/><path d="m512 179.282v250.715l-30.905 10.302v-261.017c0-35.263-14.289-67.178-37.396-90.275-19.666-19.676-45.735-32.962-74.807-36.464 5.069-.618 10.235-.931 15.438-.931 35.263 0 67.178 14.289 90.275 37.396 23.106 23.096 37.395 55.011 37.395 90.274z" fill="#75cef9"/><path d="m491.396 429.998v20.604c0 5.69-4.612 10.302-10.302 10.302h-470.792c-5.69-.001-10.302-4.613-10.302-10.302v-20.604z" fill="#ffe07d"/><path d="m449.208 378.693 24.278 12.778c4.178 2.199 8.898-1.928 7.224-6.343-4.23-11.158-4.23-22.315 0-33.473 1.674-4.415-3.046-8.542-7.224-6.343l-24.278 12.778z" fill="#ffa95f"/><path d="m512 429.997v20.604c0 5.687-4.615 10.302-10.302 10.302h-30.905c5.687 0 10.302-4.615 10.302-10.302v-20.604z" fill="#ffd064"/><path d="m433.386 373.582v-10.381c-10.71-16.065-9.852-18.541-27.366-22.598 0 0-14.942-2.646-18.456-1.743-3.095.795-6.084 1.925-8.915 3.361-3.148 10.615-2.059 8.385-6.297 14.741-4.614 6.921-4.614 15.937 0 22.858 4.238 6.356 6.883 9.073 6.298 14.742 2.837 1.44 5.833 2.571 8.936 3.366 6.136.494 35.09-8.281 45.8-24.346z" fill="#ffc269"/><path d="m455.556 368.392c0 1.813-.525 3.626-1.566 5.192-10.714 16.06-28.742 25.713-48.048 25.713h-7.5c-3.709 0-7.355-.474-10.858-1.38 14.371-3.204 27.156-11.827 35.5-24.333 1.04-1.566 1.566-3.379 1.566-5.192s-.525-3.626-1.566-5.192c-5.357-8.035-12.537-14.464-20.799-18.883-4.615-2.472-9.57-4.316-14.721-5.46 3.513-.896 7.16-1.37 10.879-1.37h7.5c9.653 0 18.986 2.411 27.248 6.83s15.442 10.848 20.799 18.883c1.041 1.566 1.566 3.379 1.566 5.192z" fill="#ffa95f"/><path d="m358.593 368.392c0 3.987 1.154 7.974 3.461 11.425 4.059 6.088 9.498 10.961 15.751 14.309.278.144.556.299.845.433 1.628-1.226 3.07-2.678 4.327-4.317 4.306-5.594 6.48-13.32 6.48-21.85 0-11.033-3.626-20.717-10.807-26.167-6.614 3.348-12.362 8.386-16.596 14.742-2.307 3.451-3.461 7.438-3.461 11.425z" fill="#ffa95f"/><path d="m62.841 337.486-24.278 12.778c-4.178 2.199-8.898-1.928-7.224-6.343 4.23-11.158 4.23-22.315 0-33.473-1.674-4.415 3.046-8.542 7.224-6.343l24.278 12.778z" fill="#b3e59f"/><path d="m106.109 356.029c-4.267 0-12.548.682-12.548.682-14.372-3.199-27.158-11.821-35.501-24.336-2.095-3.143-2.095-7.238 0-10.381 8.348-12.521 21.142-21.145 35.522-24.341 2.227-.169 10.328 1.872 14.587 1.872 0 0 36.141 32.168 31.528 39.088z" fill="#ccf49f"/><path d="m133.397 353.35c-6.042 3.068-12.802 4.741-19.789 4.741h-7.5c-4.265 0-8.468-.474-12.548-1.38 3.41-.865 6.696-2.153 9.776-3.801 6.253-3.348 11.693-8.211 15.751-14.299 2.308-3.451 3.461-7.438 3.461-11.425s-1.154-7.974-3.461-11.425c-6.047-9.086-15.185-15.453-25.507-18.111 4.069-.896 8.272-1.37 12.527-1.37h7.5c6.981 0 13.743 1.666 19.787 4.732.615 9.845 5.852 23.409.003 52.338z" fill="#b3e59f"/><path d="m153.456 327.184c0 3.987-1.154 7.974-3.461 11.425-4.059 6.088-9.498 10.961-15.751 14.309-.278.144-.556.299-.845.433-1.628-1.226-3.07-2.678-4.327-4.317-4.306-5.594-6.48-13.32-6.48-21.85 0-11.033 3.626-20.717 10.807-26.167 6.614 3.348 12.362 8.386 16.596 14.742 2.307 3.452 3.461 7.439 3.461 11.425z" fill="#95d6a4"/><path d="m141.65 159.265c-29.87 0-54.085-24.214-54.085-54.084 0-24.497 16.286-45.19 38.622-51.842 24.863 2.806 59.245 21.972 59.245 51.842.001 29.869-13.912 54.084-43.782 54.084z" fill="#ffe07d"/><path d="m195.734 105.181c0 14.938-6.057 28.454-15.844 38.24-9.787 9.787-23.303 15.844-38.24 15.844-5.367 0-10.559-.783-15.453-2.246 8.726-2.596 16.524-7.335 22.788-13.598 9.787-9.787 15.844-23.303 15.844-38.24s-6.057-28.454-15.844-38.24c-6.264-6.264-14.062-11.002-22.788-13.598 4.893-1.463 10.085-2.246 15.453-2.246 14.938 0 28.454 6.057 38.24 15.844 9.787 9.786 15.844 23.302 15.844 38.24z" fill="#ffd064"/><path d="m162.769 174.718h-157.618c-2.845 0-5.151-2.306-5.151-5.151 0-14.224 11.531-25.754 25.754-25.754h2.865c6.212 0 11.653-4.166 13.274-10.163 4.458-16.496 19.424-27.954 36.512-27.954h11.109c17.088 0 32.053 11.458 36.512 27.954 1.621 5.997 7.062 10.163 13.274 10.163h2.865c14.224 0 25.754 11.531 25.754 25.754.001 2.844-2.306 5.151-5.15 5.151z" fill="#faf2f3"/><path d="m188.523 169.567c0 1.422-.577 2.709-1.504 3.647-.937.927-2.225 1.504-3.647 1.504h-30.905c1.422 0 2.709-.577 3.647-1.504.927-.938 1.504-2.225 1.504-3.647 0-14.227-11.528-25.755-25.755-25.755h-2.864c-3.111 0-6.016-1.04-8.355-2.833-2.338-1.792-4.11-4.337-4.924-7.335-4.45-16.493-19.419-27.949-36.51-27.949h30.905c17.091 0 32.059 11.456 36.51 27.949.814 2.998 2.586 5.542 4.924 7.335 2.339 1.793 5.244 2.833 8.355 2.833h2.864c14.227.001 25.755 11.529 25.755 25.755z" fill="#f0e5e0"/><path d="m385.803 176.161c0 15.618-6.336 29.772-16.576 40.002-10.23 10.24-24.384 16.576-40.002 16.576h-72.535c10.827-.113 21.623-3.008 31.307-8.654l37.282-24.003c13.949-8.993 18.306-27.392 9.869-41.681-5.79-9.807-16.102-15.185-26.63-15.185-6.016 0-12.105 1.751-17.462 5.439l-26.682 18.337c-1.525 1.051-3.224 1.143-4.667.608l28.567-29.803c24.508-25.579 66.189-22.736 86.999 5.934 3.42 4.718 6.057 9.91 7.829 15.381 1.774 5.469 2.701 11.218 2.701 17.049z" fill="#75cef9"/><g fill="#e3fcff"><path d="m463.581 314.189c-5.68 0-10.302-4.622-10.302-10.302s4.622-10.302 10.302-10.302 10.302 4.622 10.302 10.302-4.621 10.302-10.302 10.302z"/><path d="m162.769 401.754c-5.681 0-10.302-4.622-10.302-10.302s4.621-10.302 10.302-10.302 10.302 4.622 10.302 10.302-4.622 10.302-10.302 10.302z"/><path d="m172.555 280.106c-5.681 0-10.302-4.622-10.302-10.302s4.621-10.302 10.302-10.302 10.302 4.622 10.302 10.302-4.621 10.302-10.302 10.302z"/><path d="m339.96 298.736c-5.68 0-10.302-4.622-10.302-10.302s4.622-10.302 10.302-10.302 10.302 4.622 10.302 10.302-4.622 10.302-10.302 10.302z"/><path d="m289.481 401.754c-5.68 0-10.302-4.622-10.302-10.302s4.622-10.302 10.302-10.302 10.302 4.622 10.302 10.302-4.622 10.302-10.302 10.302z"/><path d="m240.032 334.792c-5.681 0-10.302-4.622-10.302-10.302s4.621-10.302 10.302-10.302 10.302 4.622 10.302 10.302-4.621 10.302-10.302 10.302z"/><path d="m48.419 406.905c-5.681 0-10.302-4.622-10.302-10.302s4.621-10.302 10.302-10.302 10.302 4.622 10.302 10.302-4.622 10.302-10.302 10.302z"/><path d="m420.314 253.408c-5.68 0-10.302-4.622-10.302-10.302s4.622-10.302 10.302-10.302 10.302 4.622 10.302 10.302-4.622 10.302-10.302 10.302z"/><path d="m53.569 275.042c-5.681 0-10.302-4.622-10.302-10.302s4.621-10.302 10.302-10.302 10.302 4.622 10.302 10.302-4.621 10.302-10.302 10.302z"/></g></g></svg>