<svg id="Capa_1" enable-background="new 0 0 512.001 512.001" height="512" viewBox="0 0 512.001 512.001" width="512" xmlns="http://www.w3.org/2000/svg"><g><path d="m358.201 310.43c-21.66 30.73-51.89 54.99-87.21 69.3-18.46 7.48-30.28 25.51-30.28 45.23 0 1.1.04 2.2.11 3.31h-87.55c1.42-21.12-10.92-40.69-30.53-48.68-35.17-14.33-65.27-38.53-86.86-69.16l161.16-14h.01z" fill="#feb55e"/><path d="m358.201 310.43c-21.66 30.73-51.89 54.99-87.21 69.3-18.46 7.48-30.28 25.51-30.28 45.23 0 1.1.04 2.2.11 3.31h-43.77v-131.84z" fill="#fd865f"/><path d="m246.44 512h-98.789l13.539-201.57 35.851-14h.01l35.859 14z" fill="#fff075"/><path d="m246.44 512h-49.389v-215.57l35.859 14z" fill="#feb55e"/><path d="m512.001 442.95c0 38.14-30.91 69.05-69.05 69.05-38.13 0-69.04-30.91-69.04-69.05 0-38.13 30.91-69.04 69.04-69.04 38.14 0 69.05 30.91 69.05 69.04z" fill="#f5f2f2"/><path d="m394.091 197.05c0 42.21-13.28 81.32-35.89 113.38h-322.32c-22.97-32.58-36.31-72.45-35.87-115.46 1.11-108.32 88.7-194.97 197.04-194.97 108.82 0 197.04 88.22 197.04 197.05z" fill="#fd865f"/><path d="m394.091 197.05c0 42.21-13.28 81.32-35.89 113.38h-161.15v-310.43c108.82 0 197.04 88.22 197.04 197.05z" fill="#fd4c50"/><path d="m512.001 442.95c0 38.14-30.91 69.05-69.05 69.05v-138.09c38.14 0 69.05 30.91 69.05 69.04z" fill="#e2e0f3"/></g></svg>