<svg id="Capa_1" enable-background="new 0 0 512 512" height="512" viewBox="0 0 512 512" width="512" xmlns="http://www.w3.org/2000/svg"><g><g><path clip-rule="evenodd" d="m148.725 50.281v58.651 58.651l85.009-77.52-85.009-75.563z" fill="#ffd47b" fill-rule="evenodd"/></g><g><path clip-rule="evenodd" d="m148.725 14.5 85.009 75.563 22.252 19.777 22.251-19.777 85.01-75.563z" fill="#fff1d8" fill-rule="evenodd"/></g><g><path clip-rule="evenodd" d="m278.237 90.063 85.01 77.52v-58.651-58.651-35.781z" fill="#ffd47b" fill-rule="evenodd"/></g><g><path clip-rule="evenodd" d="m233.734 90.063-85.009 77.52h214.522l-85.01-77.52-22.251 19.777z" fill="#ffd47b" fill-rule="evenodd"/></g><g><path clip-rule="evenodd" d="m25.562 236.223h168.346v149.962h-168.346v64.014h218.604v-202.485c0-6.328 5.159-11.492 11.48-11.492h82.458 82.458c6.293 0 11.48 5.164 11.48 11.492v202.484h54.367v-282.615h-123.162-214.522-123.163z" fill="#ff6c8a" fill-rule="evenodd"/></g><g><path clip-rule="evenodd" d="m10 108.932v58.651h15.562 123.163v-58.651h-91.671z" fill="#cfd3df" fill-rule="evenodd"/></g><g><path clip-rule="evenodd" d="m57.054 79.621v29.311h91.671v-58.651h-62.361c-16.129 0-29.31 13.194-29.31 29.34z" fill="#9ea6bf" fill-rule="evenodd"/></g><g><path clip-rule="evenodd" d="m363.247 50.281v58.651h91.671v-29.311c0-16.145-13.181-29.34-29.281-29.34z" fill="#9ea6bf" fill-rule="evenodd"/></g><g><path clip-rule="evenodd" d="m363.247 108.932v58.651h123.163 15.59v-58.651h-47.083z" fill="#cfd3df" fill-rule="evenodd"/></g><g><path clip-rule="evenodd" d="m244.166 247.714v202.484 47.302h93.938v-261.277h-82.458c-6.321 0-11.48 5.164-11.48 11.491z" fill="#cbf4fb" fill-rule="evenodd"/></g><g><path clip-rule="evenodd" d="m338.104 236.223v261.277h93.938v-47.301-202.485c0-6.328-5.187-11.492-11.48-11.492h-82.458z" fill="#cbf4fb" fill-rule="evenodd"/></g><g><path clip-rule="evenodd" d="m25.562 236.223h168.346v149.962h-168.346z" fill="#cbf4fb" fill-rule="evenodd"/></g><g><path clip-rule="evenodd" d="m10 450.199v47.301h234.166v-47.301h-218.604z" fill="#cfd3df" fill-rule="evenodd"/></g><g><path clip-rule="evenodd" d="m432.042 450.199v47.301h69.958v-47.301h-15.59z" fill="#cfd3df" fill-rule="evenodd"/></g><g><path d="m378.1 350.846c-5.522 0-10 4.478-10 10v12.003c0 5.522 4.478 10 10 10s10-4.478 10-10v-12.003c0-5.523-4.478-10-10-10z"/><path d="m298.107 350.846c-5.522 0-10 4.478-10 10v12.003c0 5.522 4.478 10 10 10s10-4.478 10-10v-12.003c0-5.523-4.477-10-10-10z"/><path d="m496.41 177.583h5.59c5.522 0 10-4.478 10-10v-58.65c0-5.522-4.478-10-10-10h-37.083v-19.312c0-21.692-17.621-39.34-39.281-39.34h-52.389v-25.781c0-5.434-4.564-10-10-10h-214.522c-5.436 0-10 4.565-10 10v25.781h-52.36c-21.676 0-39.31 17.647-39.31 39.34v19.312h-37.055c-5.522 0-10 4.478-10 10v58.65c0 5.522 4.478 10 10 10h5.562v262.616h-5.562c-5.522 0-10 4.478-10 10v47.301c0 5.522 4.478 10 10 10h492c5.522 0 10-4.478 10-10v-47.301c0-5.522-4.478-10-10-10h-5.59v-86.362c0-5.522-4.478-10-10-10s-10 4.478-10 10v86.362h-34.368v-192.484c0-11.851-9.636-21.492-21.479-21.492h-164.917c-11.844 0-21.479 9.642-21.479 21.492v192.484h-198.605v-44.015h158.347c5.522 0 10-4.478 10-10v-149.961c0-5.522-4.478-10-10-10h-158.347v-48.64h440.848v86.362c0 5.522 4.478 10 10 10s10-4.478 10-10zm-54.368 282.616h49.958v27.301h-49.958zm-93.938-213.976h72.459c.788 0 1.479.697 1.479 1.492v239.785h-73.938zm-93.938 1.492c0-.809.678-1.492 1.479-1.492h72.458v241.277h-73.938v-239.785zm-20 212.484v27.301h-214.166v-27.301zm-50.258-213.976v129.962h-148.346v-129.962zm-45.183-88.64h-118.725v-38.65h118.725zm0-58.65h-71.67v-19.312c0-10.664 8.662-19.34 19.31-19.34h52.36zm198.219-74.433-80.958 71.961-80.958-71.961zm-178.219 12.269 60.065 53.389-60.065 54.773zm15.806 120.814 59.289-54.065 15.522 13.797c1.895 1.684 4.269 2.525 6.644 2.525 2.374 0 4.749-.842 6.644-2.525l15.522-13.797 59.289 54.066h-162.91zm178.716-12.652-60.065-54.773 60.065-53.389zm20-84.65h52.389c10.632 0 19.281 8.676 19.281 19.34v19.312h-71.67zm118.753 97.302h-118.753v-38.65h118.753z"/><path d="m486.41 298.891c-5.522 0-10 4.478-10 10v.058c0 5.522 4.478 9.971 10 9.971s10-4.506 10-10.028-4.477-10.001-10-10.001z"/></g></g></svg>