<?xml version="1.0" encoding="iso-8859-1"?>
<!-- Generator: Adobe Illustrator 19.0.0, SVG Export Plug-In . SVG Version: 6.00 Build 0)  -->
<svg version="1.1" id="Capa_1" xmlns="http://www.w3.org/2000/svg" xmlns:xlink="http://www.w3.org/1999/xlink" x="0px" y="0px"
	 viewBox="0 0 512 512" style="enable-background:new 0 0 512 512;" xml:space="preserve">
<path style="fill:#D98F64;" d="M303.767,209.836h103.315c53.273,0.017,96.483-43.151,96.499-96.432
	c0.008-18.826-5.489-37.233-15.822-52.971C447.664,131.827,381.868,185.252,303.767,209.836z"/>
<path style="fill:#ED9E6D;" d="M487.76,60.433c-17.802-27.228-48.145-43.638-80.678-43.646H289.574
	c-53.307-0.008-96.533,43.201-96.541,96.508c-0.008,23.107,8.284,45.45,23.351,62.968h6.043
	c28.647-0.025,55.816,12.716,74.114,34.749l1.427-1.175h5.8C381.868,185.252,447.664,131.827,487.76,60.433z"/>
<g>
	<path style="fill:#9E5135;" d="M104.918,369.311h37.77l4.365,0.672c3.5-11.239,9.04-21.747,16.342-30.989
		c-29.839,13.102-61.692,21.026-94.191,23.409C80.56,366.961,92.68,369.303,104.918,369.311z"/>
	<path style="fill:#9E5135;" d="M223.073,303.624c5.33-0.94,10.727-1.427,16.141-1.46h75.373v-0.672
		c9.233-29.595,3.634-61.818-15.033-86.57C280.366,249.386,254.338,279.577,223.073,303.624z"/>
</g>
<path style="fill:#D98F64;" d="M163.395,338.994c21.244-9.342,41.279-21.219,59.677-35.37
	C199.47,307.561,178.184,320.176,163.395,338.994z"/>
<path style="fill:#B85F3E;" d="M299.554,214.923c-0.999-1.309-1.956-2.652-3.013-3.911c-18.298-22.033-45.467-34.774-74.114-34.749
	H104.918c-53.307,0.076-96.457,43.361-96.382,96.667c0.059,39.416,24.072,74.828,60.668,89.474
	c32.499-2.384,64.353-10.307,94.191-23.409c14.789-18.818,36.075-31.433,59.677-35.37
	C254.338,279.577,280.366,249.386,299.554,214.923z"/>
<path style="fill:#D98F64;" d="M190.061,481.649c14.856,8.872,31.845,13.564,49.152,13.564h117.508
	c53.307-0.017,96.508-43.243,96.499-96.55c-0.008-16.359-4.163-32.441-12.095-46.751
	C377.319,425.934,287.358,472.425,190.061,481.649z"/>
<path style="fill:#ED9E6D;" d="M441.126,351.912c-17.005-30.686-49.32-49.74-84.404-49.748H239.213
	c-53.273-0.034-96.483,43.125-96.516,96.399c-0.017,34.119,17.987,65.712,47.364,83.087
	C287.358,472.425,377.319,425.934,441.126,351.912z"/>
<g>
	<rect x="243.41" y="402.885" style="fill:#B85F3E;" width="16.787" height="25.18"/>
	<rect x="327.344" y="436.459" style="fill:#B85F3E;" width="16.787" height="25.18"/>
	<rect x="360.918" y="352.525" style="fill:#B85F3E;" width="16.787" height="25.18"/>
	<rect x="386.098" y="411.279" style="fill:#B85F3E;" width="16.787" height="25.18"/>
</g>
<g>
	<rect x="67.148" y="218.23" style="fill:#ED9E6D;" width="16.787" height="25.18"/>
	<rect x="109.115" y="276.984" style="fill:#ED9E6D;" width="16.787" height="25.18"/>
	<rect x="134.295" y="201.443" style="fill:#ED9E6D;" width="16.787" height="25.18"/>
	<rect x="226.623" y="226.623" style="fill:#ED9E6D;" width="16.787" height="25.18"/>
</g>
<g>
	<rect x="251.803" y="58.754" style="fill:#B85F3E;" width="16.787" height="25.18"/>
	<rect x="302.164" y="134.295" style="fill:#B85F3E;" width="16.787" height="25.18"/>
	<rect x="318.951" y="41.967" style="fill:#B85F3E;" width="16.787" height="25.18"/>
	<rect x="411.279" y="67.148" style="fill:#B85F3E;" width="16.787" height="25.18"/>
	<rect x="386.098" y="142.689" style="fill:#B85F3E;" width="16.787" height="25.18"/>
</g>
<rect x="243.41" y="402.885" width="16.787" height="25.18"/>
<rect x="327.344" y="436.459" width="16.787" height="25.18"/>
<rect x="360.918" y="352.525" width="16.787" height="25.18"/>
<rect x="386.098" y="411.279" width="16.787" height="25.18"/>
<rect x="67.148" y="218.23" width="16.787" height="25.18"/>
<rect x="109.115" y="276.984" width="16.787" height="25.18"/>
<rect x="134.295" y="201.443" width="16.787" height="25.18"/>
<rect x="226.623" y="226.623" width="16.787" height="25.18"/>
<path d="M407.082,8.393H289.574C231.667,8.351,184.698,55.254,184.656,113.16c-0.017,19.305,5.305,38.232,15.36,54.708h-95.098
	C46.97,167.869,0,214.839,0,272.787s46.97,104.918,104.918,104.918h31.492c-11.591,56.773,25.038,112.195,81.811,123.778
	c6.908,1.41,13.942,2.124,20.992,2.124h117.508c57.948,0,104.918-46.97,104.918-104.918S414.67,293.77,356.721,293.77h-31.543
	c1.418-6.908,2.149-13.933,2.165-20.984c-0.008-19.263-5.363-38.148-15.469-54.557h95.207C465.03,218.23,512,171.26,512,113.311
	S465.03,8.393,407.082,8.393z M104.918,360.918c-48.674,0-88.131-39.458-88.131-88.131s39.458-88.131,88.131-88.131h117.508
	c48.674-0.008,88.14,39.441,88.148,88.114c0,7.076-0.848,14.126-2.535,21h-68.826c-43.319,0.067-82.155,26.742-97.767,67.148
	H104.918z M356.721,310.557c48.674,0,88.131,39.458,88.131,88.131s-39.458,88.131-88.131,88.131H239.213
	c-48.674,0-88.131-39.458-88.131-88.131s39.458-88.131,88.131-88.131H356.721z M407.082,201.443H299.134
	c-19.775-21.386-47.574-33.557-76.708-33.574h-1.964c-30.183-38.123-23.745-93.495,14.37-123.677
	c15.578-12.33,34.875-19.028,54.742-19.011h117.508c48.674,0,88.131,39.458,88.131,88.131S455.756,201.443,407.082,201.443z"/>
<rect x="251.803" y="58.754" width="16.787" height="25.18"/>
<rect x="302.164" y="134.295" width="16.787" height="25.18"/>
<rect x="318.951" y="41.967" width="16.787" height="25.18"/>
<rect x="411.279" y="67.148" width="16.787" height="25.18"/>
<rect x="386.098" y="142.689" width="16.787" height="25.18"/>
<g>
</g>
<g>
</g>
<g>
</g>
<g>
</g>
<g>
</g>
<g>
</g>
<g>
</g>
<g>
</g>
<g>
</g>
<g>
</g>
<g>
</g>
<g>
</g>
<g>
</g>
<g>
</g>
<g>
</g>
</svg>
