<svg id="Capa_1" enable-background="new 0 0 512 512" height="512" viewBox="0 0 512 512" width="512" xmlns="http://www.w3.org/2000/svg"><g><path d="m303 408v64c0 8.28-6.72 15-15 15h-64c-8.28 0-15-6.72-15-15v-64c0-8.28 6.72-15 15-15h64c8.28 0 15 6.72 15 15z" fill="#47568f"/><path d="m303 408v64c0 8.28-6.72 15-15 15h-32v-94h32c8.28 0 15 6.72 15 15z" fill="#2a3c75"/><path d="m416 231c-8.284 0-15-6.716-15-15v-64c0-8.284 6.716-15 15-15s15 6.716 15 15v64c0 8.284-6.716 15-15 15z" fill="#2a3c75"/><path d="m440 167h-48c-8.284 0-15-6.716-15-15s6.716-15 15-15h48c8.284 0 15 6.716 15 15s-6.716 15-15 15z" fill="#ff81ad"/><path d="m96 231c-8.284 0-15-6.716-15-15v-64c0-8.284 6.716-15 15-15s15 6.716 15 15v64c0 8.284-6.716 15-15 15z" fill="#47568f"/><path d="m120 167h-48c-8.284 0-15-6.716-15-15s6.716-15 15-15h48c8.284 0 15 6.716 15 15s-6.716 15-15 15z" fill="#88beff"/><path d="m351 80v16c0 8.28-6.72 15-15 15s-15-6.72-15-15v-16c0-13.79-11.21-25-25-25s-25 11.21-25 25v136c0 8.28-6.72 15-15 15s-15-6.72-15-15v-136c0-30.431 24.801-55 55-55 30.33 0 55 24.67 55 55z" fill="#47568f"/><path d="m351 80v16c0 8.28-6.72 15-15 15s-15-6.72-15-15v-16c0-13.79-11.21-25-25-25s-25 11.21-25 25v136c0 8.28-6.72 15-15 15v-188.7c10.02-10.65 24.25-17.3 40-17.3 30.33 0 55 24.67 55 55z" fill="#2a3c75"/><path d="m494.62 283.38-17.27 74.73c-5.04 37.05-36.84 64.89-74.32 64.89h-294.06c-37.48 0-69.28-27.84-74.32-64.89l-17.27-74.73c-2.171-9.494 5.049-18.38 14.62-18.38h448c9.556 0 16.792 8.882 14.62 18.38z" fill="#d5e8fe"/><path d="m494.62 283.38-17.27 74.73c-5.04 37.05-36.84 64.89-74.32 64.89h-147.03v-158h224c9.556 0 16.792 8.882 14.62 18.38z" fill="#b5dbff"/><path d="m512 231v34c0 16.54-13.46 30-30 30h-452c-16.54 0-30-13.46-30-30v-34c0-16.54 13.46-30 30-30h452c16.54 0 30 13.46 30 30z" fill="#edf5ff"/><path d="m512 231v34c0 16.54-13.46 30-30 30h-226v-94h226c16.54 0 30 13.46 30 30z" fill="#d5e8fe"/></g></svg>