<svg id="Capa_1" enable-background="new 0 0 513.548 513.548" height="512" viewBox="0 0 513.548 513.548" width="512" xmlns="http://www.w3.org/2000/svg"><g><g><g fill="#f9f3f1"><circle cx="426.258" cy="378.841" r="24.362"/><path d="m232.066 343.947c-7.711-.312-14.643 3.075-19.168 8.53-4.526-5.455-11.457-8.842-19.168-8.53-11.975.484-21.855 10.134-22.598 22.096-.852 13.73 10.031 25.131 23.577 25.131 6.61 0 12.586-2.716 16.873-7.092.728-.742 1.903-.742 2.631 0 4.288 4.376 10.263 7.092 16.873 7.092 13.546 0 24.429-11.401 23.577-25.13-.742-11.962-10.622-21.613-22.597-22.097z"/><path d="m122.496 358.014c-3.897-.188-7.565.705-10.751 2.389-6.667-10.912-19.071-17.936-33.02-16.872-17.356 1.323-31.354 15.433-32.552 32.798-1.428 20.697 14.939 37.93 35.33 37.93 10.806 0 20.481-4.841 26.977-12.471 2.013-2.365 5.153-3.376 8.174-2.657 1.546.368 3.158.564 4.817.564 11.882 0 21.443-9.938 20.824-21.955-.544-10.583-9.214-19.214-19.799-19.726z"/></g><g><path d="m340.818 112.07c21.661-2.03 43.339-4.852 65.034-8.469 33.447-5.576 65.109 16.344 71.791 49.371l7.443 81.677c.087 27.139-2.203 54.17-6.888 81.092-5.907 33.942-38.181 56.601-72.16 50.914-12.492-2.091-24.987-3.913-37.486-5.473l-75.108-6.169c-60.887-2.413-121.862 1.461-182.926 11.667-33.989 5.681-66.228-17.026-72.136-50.977-8.241-47.365-9.102-94.841-2.711-142.427l8.775-67.026h82.559c40.593 6.037 81.244 9.266 121.956 9.672z" fill="#b0e7c9"/></g><path d="m427.252 325.548c-12.492-2.091-24.987-3.913-37.486-5.473l-75.108-6.169c-53.016-2.101-106.099.565-159.25 8.027-49.47 6.945-94.819-28.367-100.12-78.04-3.967-37.173-3.413-74.415 1.597-111.724l3.393-25.92h-15.833l-8.775 67.026c-6.39 47.586-5.53 95.062 2.711 142.427 5.912 33.976 38.383 56.608 72.399 50.933 60.976-10.173 121.863-14.033 182.662-11.623l75.108 6.169c12.499 1.56 24.995 3.382 37.486 5.473 33.979 5.687 66.253-16.973 72.16-50.914.28-1.608.553-3.254.815-4.862-13.679 11.938-32.456 17.901-51.759 14.67z" fill="#91deb6"/><g><path d="m313.2 87.118c-6.457-.31-12.481 1.468-17.461 4.714-3.144 2.049-7.276 2.026-10.295-.203-4.591-3.389-10.47-5.135-16.768-4.366-10.591 1.293-19.063 9.877-20.235 20.482-1.554 14.066 9.418 25.971 23.17 25.971 2.571 0 5.043-.417 7.355-1.186 3.653-1.216 7.704-.251 10.163 2.712 5.392 6.496 13.526 10.632 22.628 10.632 16.875 0 30.428-14.219 29.333-31.329-.947-14.788-13.089-26.717-27.89-27.427z" fill="#f9f3f1"/><path d="m93.816 81.757c-.01 0-.02 0-.029 0-1.719.002-3.277-.955-4.004-2.513-7.046-15.113-22.578-25.471-40.475-24.925-23.139.706-41.8 19.972-41.808 43.122-.005 13.768 6.44 26.025 16.477 33.929 3.742 2.947 5.387 7.829 4.107 12.417-.898 3.217-1.282 6.649-1.056 10.202.963 15.171 13.289 27.498 28.46 28.46 17.751 1.125 32.5-12.939 32.5-30.448 0-.437-.015-.87-.033-1.302 1.906.324 3.862.502 5.861.502 19.176 0 34.722-15.546 34.722-34.722s-15.546-34.722-34.722-34.722z" fill="#f9f3f1"/><path d="m385.068 287.766h-253.59c-11.446 0-20.725-9.279-20.725-20.725v-63.804c0-11.446 9.279-20.725 20.725-20.725h253.591c11.446 0 20.725 9.279 20.725 20.725v63.804c0 11.446-9.279 20.725-20.726 20.725z" fill="#91deb6"/><g fill="#f9f3f1"><path d="m505.758 205.425c-.844-5.634-3.417-10.534-7.08-14.279-2.312-2.364-3.003-5.94-1.597-8.932 2.139-4.551 2.635-9.932.887-15.243-2.94-8.931-11.817-14.775-21.184-13.962-12.424 1.079-20.824 12.61-18.457 24.494.442 2.222 1.229 4.287 2.291 6.152 1.68 2.948 1.543 6.615-.594 9.25-4.686 5.778-6.86 13.52-5.294 21.386 2.905 14.584 17.526 23.85 32.125 19.958 12.618-3.364 20.838-15.91 18.903-28.824z"/><path d="m330.693 323.957c-20.917 0-37.874 16.957-37.874 37.874v77.552c0 9.961 8.075 18.035 18.035 18.035 9.961 0 18.035-8.075 18.035-18.035v-39.723c.598.028 1.199.046 1.804.046 20.917 0 37.874-16.957 37.874-37.874.001-20.919-16.956-37.875-37.874-37.875z"/></g></g></g><g><path d="m131.478 190.011h209.34c4.142 0 7.5-3.358 7.5-7.5s-3.358-7.5-7.5-7.5h-209.34c-15.563 0-28.226 12.662-28.226 28.226v63.804c0 15.563 12.662 28.226 28.226 28.226h253.591c15.563 0 28.226-12.662 28.226-28.226v-63.804c0-15.563-12.662-28.226-28.226-28.226h-12.289c-4.142 0-7.5 3.358-7.5 7.5s3.358 7.5 7.5 7.5h12.288c7.292 0 13.226 5.933 13.226 13.226v63.804c0 7.292-5.933 13.226-13.226 13.226h-253.59c-7.292 0-13.226-5.933-13.226-13.226v-63.804c0-7.292 5.933-13.226 13.226-13.226z"/><path d="m513.175 204.314c-1.05-7.008-4.208-13.374-9.134-18.412-.18-.184-.207-.423-.171-.499 3.058-6.506 3.493-13.886 1.223-20.778-3.21-9.751-11.667-16.828-21.473-18.692-9.764-34.079-43.37-55.671-79.002-49.731-19.277 3.214-38.798 5.82-58.125 7.773-4.914-13.723-17.701-23.619-32.933-24.349-7.817-.378-15.396 1.672-21.915 5.921-.556.363-1.291.382-1.746.047-6.355-4.692-14.213-6.745-22.131-5.777-13.971 1.705-25.234 13.104-26.781 27.104-.051.459-.085.919-.115 1.378-36.039-.702-72.453-3.674-108.43-8.843-6.315-14.27-20.305-24.417-36.731-25.157-4.846-9.399-12.616-17.159-22.062-21.981-3.69-1.883-8.207-.42-10.09 3.27-1.884 3.689-.42 8.207 3.27 10.09 7.07 3.61 12.808 9.554 16.157 16.736 1.939 4.158 6.176 6.844 10.82 6.844h.01c15.01 0 27.222 12.211 27.222 27.222s-12.212 27.222-27.222 27.222c-1.508 0-3.058-.133-4.604-.396-2.234-.378-4.519.271-6.218 1.769s-2.63 3.684-2.533 5.947c.014.325.026.651.026.98 0 6.423-2.581 12.383-7.267 16.782-4.682 4.394-10.813 6.588-17.258 6.181-11.31-.717-20.732-10.139-21.45-21.45-.167-2.628.101-5.222.794-7.71 2.094-7.499-.533-15.477-6.69-20.326-8.657-6.82-13.62-17.037-13.616-28.036.005-15.564 10.47-29.601 25.449-34.133 3.964-1.2 6.206-5.386 5.006-9.351-1.201-3.964-5.386-6.205-9.351-5.006-21.25 6.431-36.096 26.368-36.104 48.485-.005 15.627 7.042 30.142 19.337 39.824 1.385 1.09 1.983 2.86 1.522 4.509-1.147 4.112-1.59 8.382-1.316 12.692.509 8.018 3.522 15.361 8.253 21.269-4.084 32.182-4.904 64.674-2.415 96.635.306 3.931 3.592 6.918 7.469 6.918.196 0 .393-.008.591-.023 4.129-.322 7.216-3.93 6.895-8.06-2.18-27.988-1.73-56.401 1.301-84.638 4.117 1.891 8.629 3.068 13.376 3.369.837.053 1.671.08 2.501.08 9.703 0 18.847-3.605 25.972-10.294 5.983-5.616 9.964-13.043 11.403-21.032 22.787-.572 41.149-19.287 41.149-42.209 0-.461-.019-.917-.034-1.374 35.758 4.904 71.9 7.672 107.66 8.243 1.268 2.746 2.934 5.317 4.985 7.607 5.841 6.522 14.21 10.263 22.961 10.263 3.321 0 6.593-.528 9.724-1.57.665-.221 1.547-.187 2.023.386 7.039 8.479 17.389 13.342 28.398 13.342 10.154 0 19.963-4.249 26.913-11.657 5.951-6.344 9.373-14.335 9.9-22.88 19.462-1.978 39.111-4.603 58.516-7.839 27.058-4.513 52.624 11.157 61.266 36.357-4.85 1.882-9.135 5.075-12.301 9.294-4.783 6.373-6.634 14.508-5.078 22.319.59 2.964 1.644 5.791 3.13 8.399.193.339.2.686.097.813-6.284 7.748-8.771 17.798-6.824 27.574 1.796 9.017 7.303 16.975 15.11 21.835 4.639 2.888 9.768 4.553 15.039 4.958-.343 24.019-2.585 48.169-6.716 71.907-5.168 29.702-33.666 49.8-63.532 44.803-10.513-1.76-21.182-3.342-31.805-4.739-3.508-21.554-22.247-38.063-44.777-38.063-19.969 0-36.954 12.972-43.002 30.927-59.549-2.089-117.961 1.796-178.41 11.899-29.845 4.987-58.338-15.138-63.51-44.865-.61-3.505-1.206-7.244-1.874-11.766-.605-4.097-4.416-6.93-8.516-6.323-4.098.605-6.929 4.418-6.323 8.516.687 4.652 1.302 8.511 1.934 12.145 2.472 14.209 9.14 26.683 18.5 36.398-5.167 7.033-8.042 15.6-8.042 24.434 0 22.74 18.5 41.24 41.24 41.24 10.779 0 20.927-4.135 28.568-11.503 2.534.667 5.15 1.003 7.824 1.003 16.951 0 30.741-13.79 30.741-30.741 0-3.116-.498-6.184-1.412-9.116 5.767-.729 11.521-1.399 17.264-2.012-.034.572-.057 1.145-.057 1.719 0 16.418 13.357 29.775 29.775 29.775 7.373 0 14.418-2.776 19.808-7.566 4.989 3.531 11.018 5.511 17.232 5.511 16.418 0 29.775-13.357 29.775-29.775 0-1.517-.129-3.02-.358-4.503 7.808.047 15.629.201 23.468.46v77.069c0 14.081 11.455 25.536 25.535 25.536 14.081 0 25.536-11.455 25.536-25.536v-32.534c19.763-2.486 35.6-17.736 38.994-37.206 6.356.848 12.721 1.763 19.058 2.746-.68 2.648-1.032 5.387-1.032 8.167 0 18.112 14.735 32.847 32.847 32.847s32.847-14.735 32.847-32.847c0-5.967-1.641-11.755-4.638-16.786 15.899-10.244 27.647-26.787 31.12-46.743 4.411-25.347 6.754-51.152 6.981-76.792 14.218-5.66 22.93-20.432 20.609-35.92zm-185.447-72.86c-4.186 4.462-9.858 6.92-15.973 6.92-6.533 0-12.677-2.888-16.856-7.922-3.195-3.85-7.862-5.947-12.754-5.947-1.84 0-3.711.297-5.549.908-1.6.533-3.278.803-4.986.803-4.491 0-8.788-1.921-11.787-5.27-3.04-3.394-4.435-7.79-3.928-12.378.791-7.16 6.548-12.989 13.689-13.86 4.094-.501 8.146.55 11.405 2.955 5.48 4.046 13.052 4.228 18.845.453 3.861-2.516 8.364-3.724 13.006-3.506 10.944.524 20.064 9.491 20.763 20.414.394 6.137-1.693 11.973-5.875 16.43zm-192.904 246.368c0 8.68-7.061 15.741-15.741 15.741-2.367 0-4.641-.512-6.759-1.521-3.152-1.503-6.921-.631-9.095 2.1-5.018 6.305-12.504 9.921-20.538 9.921-14.469 0-26.24-11.771-26.24-26.24 0-5.299 1.629-10.447 4.572-14.771 11.349 7.62 24.909 11.991 39.146 11.991 3.823 0 7.696-.314 11.585-.964 7.155-1.196 14.279-2.296 21.381-3.316 1.095 2.177 1.689 4.59 1.689 7.059zm97.611 3.31c-4.699 0-9.013-2.161-11.836-5.93-1.504-2.008-3.915-3.127-6.417-2.992-2.505.139-4.774 1.521-6.047 3.682-2.651 4.5-7.532 7.294-12.74 7.294-8.147 0-14.775-6.628-14.775-14.775 0-1.098.131-2.171.365-3.219 21.895-1.945 43.68-3.051 65.518-3.311.461 1.438.707 2.943.707 4.474 0 8.149-6.628 14.777-14.775 14.777zm98.258 11.073c-.488 0-.972-.015-1.454-.037-2.054-.103-4.045.651-5.528 2.066-1.482 1.415-2.321 3.375-2.321 5.425v39.723c0 5.81-4.726 10.536-10.536 10.536-5.809 0-10.535-4.726-10.535-10.536v-77.552c0-16.748 13.625-30.374 30.374-30.374s30.375 13.626 30.375 30.374-13.626 30.375-30.375 30.375zm113.412-11.65c0 9.841-8.006 17.847-17.847 17.847s-17.847-8.006-17.847-17.847c0-2.03.352-4.018 1.011-5.9 2.344.235 4.679.365 6.996.365 8.547 0 16.85-1.578 24.579-4.479 1.993 2.934 3.108 6.412 3.108 10.014zm40.819-153.554c-4.998 1.332-10.151.57-14.511-2.145-4.366-2.718-7.323-6.991-8.327-12.031-1.072-5.386.299-10.925 3.764-15.197 4.053-4.999 4.558-11.941 1.285-17.687-.688-1.208-1.177-2.521-1.452-3.903-.724-3.634.138-7.419 2.365-10.386 2.255-3.005 5.588-4.842 9.386-5.172.366-.032.73-.047 1.093-.047 5.506 0 10.579 3.598 12.319 8.883 1.065 3.237.87 6.684-.551 9.708-2.71 5.767-1.495 12.746 3.022 17.366 2.707 2.769 4.445 6.277 5.024 10.147 1.365 9.106-4.529 18.096-13.417 20.464z"/></g></g></svg>