<svg id="Capa_1" enable-background="new 0 0 497 497" height="512" viewBox="0 0 497 497" width="512" xmlns="http://www.w3.org/2000/svg"><g><g><path d="m99.4 234.217v130.25c0 9.15 7.417 16.567 16.567 16.567s16.567-7.417 16.567-16.567v-16.567c0-9.15 7.417-16.567 16.567-16.567 9.149 0 16.567 7.417 16.567 16.567v82.833c0 9.15 7.417 16.567 16.567 16.567s16.567-7.417 16.567-16.567v-33.133c0-9.15 7.417-16.567 16.567-16.567s16.567 7.417 16.567 16.567v82.833c0 9.15 7.417 16.567 16.567 16.567s16.567-7.417 16.567-16.567v-66.267c0-9.15 7.417-16.567 16.567-16.567s16.567 7.417 16.567 16.567v33.134c0 9.15 7.417 16.567 16.567 16.567s16.567-7.417 16.567-16.567v-82.833c0-9.15 7.417-16.567 16.567-16.567s16.567 7.417 16.567 16.567v49.7c0 9.15 7.417 16.567 16.567 16.567s16.567-7.417 16.567-16.567v-179.95z" fill="#8bdeff"/><path d="m397.6 234.217h-298.2v26.736c26.848 55.275 83.522 93.38 149.1 93.38s122.252-38.106 149.1-93.38z" fill="#6bcbff"/><g><path d="m374.6 234.217v179.95c0 4.679-1.948 8.897-5.067 11.909 2.98 2.878 7.03 4.658 11.5 4.658 9.15 0 16.567-7.417 16.567-16.567v-179.95z" fill="#6bcbff"/></g></g><ellipse cx="248.5" cy="165.667" fill="#d0e2ed" rx="165.667" ry="165.667" transform="matrix(.707 -.707 .707 .707 -44.36 224.239)"/><path d="m248.5 0c-3.891 0-7.747.145-11.57.409 86.096 5.941 154.096 77.653 154.096 165.258 0 87.604-68.001 159.317-154.096 165.258 3.824.264 7.68.409 11.57.409 91.495 0 165.667-74.171 165.667-165.667s-74.172-165.667-165.667-165.667z" fill="#aabfcf"/><g><path d="m248.5 126.41c-4.142 0-7.5-3.358-7.5-7.5v-61.91c0-4.142 3.358-7.5 7.5-7.5s7.5 3.358 7.5 7.5v61.91c0 4.142-3.358 7.5-7.5 7.5z" fill="#aabfcf"/></g><g><path d="m204.995 165.937c-1.049 0-2.115-.221-3.13-.688l-65.518-30.149c-3.763-1.732-5.41-6.186-3.678-9.949 1.732-3.762 6.184-5.411 9.949-3.678l65.519 30.149c3.763 1.732 5.41 6.186 3.678 9.949-1.266 2.746-3.982 4.366-6.82 4.366z" fill="#aabfcf"/></g><g><path d="m180.193 265.017c-1.737 0-3.482-.6-4.899-1.825-3.135-2.708-3.48-7.444-.773-10.578l42.346-49.017c2.707-3.134 7.443-3.481 10.578-.772 3.135 2.707 3.48 7.444.773 10.578l-42.346 49.017c-1.483 1.717-3.575 2.597-5.679 2.597z" fill="#aabfcf"/></g><g><path d="m315.265 263.232c-2.104 0-4.195-.88-5.679-2.597l-39.262-45.447c-2.708-3.134-2.362-7.871.772-10.578 3.135-2.708 7.87-2.362 10.578.772l39.262 45.447c2.708 3.134 2.362 7.871-.772 10.578-1.417 1.225-3.162 1.825-4.899 1.825z" fill="#aabfcf"/></g><g><path d="m298.523 162.938c-2.838 0-5.554-1.619-6.818-4.367-1.732-3.763-.085-8.217 3.678-9.949l52.481-24.15c3.762-1.733 8.217-.085 9.948 3.678 1.732 3.763.085 8.217-3.678 9.949l-52.481 24.15c-1.014.467-2.081.689-3.13.689z" fill="#aabfcf"/></g><path d="m99.4 430.733c0-9.15 7.417-16.567 16.567-16.567s16.567 7.417 16.567 16.567v33.133c0 9.15-7.417 16.567-16.567 16.567s-16.567-7.417-16.567-16.567z" fill="#8bdeff"/><g><path d="m248.5 305.833c-77.288 0-140.167-62.878-140.167-140.167.001-77.288 62.879-140.166 140.167-140.166s140.167 62.878 140.167 140.167c0 77.288-62.879 140.166-140.167 140.166zm0-265.333c-69.017 0-125.166 56.149-125.166 125.167s56.149 125.166 125.166 125.166 125.167-56.15 125.167-125.167-56.15-125.166-125.167-125.166z" fill="#aabfcf"/></g><g fill="#394d5c"><path d="m244.973 112.205-50.93 37.003c-2.103 1.528-2.983 4.236-2.18 6.708l19.453 59.872c.803 2.472 3.107 4.146 5.706 4.146h62.953c2.599 0 4.903-1.674 5.706-4.146l19.453-59.872c.803-2.472-.077-5.18-2.18-6.708l-50.93-37.003c-2.1-1.528-4.948-1.528-7.051 0z"/><path d="m414.026 159.103c-1.229-31.535-11.266-60.805-27.729-85.42h-36.428c-3.279 0-5.95 2.632-5.999 5.91l-.803 53.308c-.02 1.329.402 2.626 1.199 3.69l31.983 42.655c1.967 2.623 5.675 3.182 8.327 1.255z"/><path d="m203.61 6.159-11.267 34.676c-1.013 3.118.664 6.472 3.767 7.532l50.451 17.236c1.258.43 2.622.43 3.88 0l50.451-17.236c3.102-1.06 4.78-4.414 3.767-7.532l-11.269-34.676c-14.277-4.01-29.332-6.159-44.89-6.159s-30.613 2.149-44.89 6.159z"/><path d="m82.974 159.103 29.451 21.397c2.652 1.927 6.36 1.368 8.327-1.255l31.983-42.655c.797-1.063 1.219-2.361 1.199-3.69l-.803-53.308c-.049-3.278-2.721-5.91-5.999-5.91h-36.428c-16.464 24.616-26.5 53.886-27.73 85.421z"/><path d="m129.694 233.649-11.254 34.637c18.722 23.696 43.78 42.151 72.618 52.813l29.5-21.433c2.652-1.927 3.267-5.626 1.38-8.307l-30.684-43.599c-.765-1.087-1.869-1.889-3.139-2.28l-50.947-15.71c-3.132-.967-6.461.761-7.474 3.879z"/><path d="m378.56 268.285-11.254-34.637c-1.013-3.118-4.341-4.846-7.474-3.88l-50.947 15.71c-1.27.392-2.374 1.194-3.139 2.28l-30.684 43.599c-1.887 2.681-1.272 6.38 1.38 8.307l29.5 21.433c28.838-10.66 53.896-29.116 72.618-52.812z"/></g><g fill="#2c4252"><path d="m293.39 6.159c-14.277-4.01-29.332-6.159-44.89-6.159-3.891 0-7.747.145-11.57.409 21.248 1.466 41.391 6.945 59.685 15.674z"/><path d="m378.56 268.285-7.629-23.479c-16.544 30.364-42.312 54.978-73.541 70.079l8.551 6.213c28.839-10.661 53.897-29.117 72.619-52.813z"/><path d="m414.026 159.103c-1.229-31.535-11.266-60.805-27.729-85.419h-23.142c17.602 26.313 27.871 57.947 27.871 91.983 0 3.49-.12 6.952-.332 10.388z"/><path d="m302.957 149.208-50.93-37.003c-2.103-1.528-4.951-1.528-7.053 0l-8.212 5.967 42.718 31.036c2.103 1.528 2.983 4.236 2.18 6.708l-19.454 59.872c-.803 2.472-3.107 4.146-5.706 4.146h23.478c2.599 0 4.903-1.674 5.706-4.146l19.453-59.872c.803-2.472-.077-5.18-2.18-6.708z"/></g><path d="m115.967 414.167c-4.47 0-8.52 1.779-11.5 4.657 3.119 3.013 5.067 7.23 5.067 11.909v33.133c0 4.679-1.948 8.897-5.067 11.909 2.98 2.878 7.03 4.657 11.5 4.657 9.15 0 16.567-7.417 16.567-16.567v-33.133c-.001-9.148-7.418-16.565-16.567-16.565z" fill="#6bcbff"/></g></svg>