<svg height="452pt" viewBox="0 -17 452.055 452" width="452pt" xmlns="http://www.w3.org/2000/svg"><path d="m373.695312 291.664062c-19.871093 0-38.550781-7.746093-52.597656-21.816406-29.011718-29.046875-29.011718-76.316406 0-105.367187 14.050782-14.066407 32.730469-21.816407 52.597656-21.816407 19.867188 0 38.546876 7.75 52.601563 21.816407 29.011719 29.050781 29.011719 76.320312 0 105.367187-14.054687 14.070313-32.734375 21.816406-52.601563 21.816406zm0 0" fill="#f9a7a7"/><path d="m372.992188 273.925781c-15.136719 0-29.371094-5.902343-40.078126-16.621093-22.101562-22.132813-22.101562-58.148438 0-80.28125 10.707032-10.71875 24.941407-16.621094 40.078126-16.621094 15.136718 0 29.371093 5.902344 40.074218 16.621094 22.105469 22.132812 22.105469 58.148437 0 80.28125-10.703125 10.71875-24.9375 16.621093-40.074218 16.621093zm0 0" fill="#a4c9ff"/><g fill="#f9cfcf"><path d="m338.398438 262.121094c-.441407-.339844-.882813-.675782-1.3125-1.03125.429687.355468.871093.691406 1.3125 1.03125zm0 0"/><path d="m340.890625 263.949219c-.539063-.375-1.082031-.746094-1.613281-1.140625.53125.394531 1.074218.765625 1.613281 1.140625zm0 0"/><path d="m335.398438 259.636719c-.144532-.128907-.292969-.25-.4375-.378907.144531.128907.292968.25.4375.378907zm0 0"/><path d="m343.296875 265.527344c-.585937-.367188-1.175781-.730469-1.75-1.117188.574219.386719 1.164063.75 1.75 1.117188zm0 0"/><path d="m326.832031 250.09375c-.011719-.015625-.019531-.027344-.027343-.042969.007812.015625.015624.027344.027343.042969zm0 0"/><path d="m325.101562 247.507812.003907.003907zm0 0"/><path d="m345.933594 267.0625c-.691406-.378906-1.378906-.761719-2.054688-1.167969.675782.40625 1.363282.789063 2.054688 1.167969zm0 0"/><path d="m328.742188 252.628906c-.058594-.074218-.113282-.148437-.171876-.222656.058594.074219.113282.148438.171876.222656zm0 0"/><path d="m330.78125 255.042969c-.109375-.125-.214844-.253907-.320312-.375.105468.125.210937.25.320312.375zm0 0"/><path d="m372.441406 273.914062c-.792968-.007812-1.585937-.023437-2.375-.0625.789063.039063 1.582032.054688 2.375.0625zm0 0"/><path d="m367.085938 273.617188c-.867188-.089844-1.730469-.195313-2.585938-.320313.855469.128906 1.71875.230469 2.585938.320313zm0 0"/><path d="m369.792969 273.832031c-.84375-.046875-1.6875-.109375-2.523438-.191406.835938.082031 1.679688.144531 2.523438.191406zm0 0"/><path d="m364.421875 273.28125c-.890625-.132812-1.777344-.289062-2.65625-.460938.878906.175782 1.765625.328126 2.65625.460938zm0 0"/><path d="m353.71875 270.574219c-.832031-.300781-1.660156-.621094-2.476562-.957031.816406.335937 1.640624.65625 2.476562.957031zm0 0"/><path d="m348.578125 268.421875c-.773437-.371094-1.542969-.757813-2.304687-1.164063.761718.40625 1.53125.792969 2.304687 1.164063zm0 0"/><path d="m351.113281 269.558594c-.800781-.335938-1.597656-.691406-2.382812-1.0625.785156.375 1.578125.726562 2.382812 1.0625zm0 0"/><path d="m361.753906 272.816406c-2.710937-.542968-5.367187-1.28125-7.949218-2.207031 2.582031.925781 5.238281 1.664063 7.949218 2.207031zm0 0"/><path d="m372.875 217.5v-57.097656c-15.09375.03125-29.28125 5.929687-39.960938 16.621094-22.101562 22.132812-22.101562 58.144531 0 80.28125 10.679688 10.691406 24.867188 16.589843 39.960938 16.621093h.117188c15.136718 0 29.371093-5.898437 40.074218-16.621093 10.96875-10.980469 16.488282-25.378907 16.570313-39.800782h-56.761719zm0 0"/></g><path d="m372.875 181.648438c-1.648438 0-2.988281-1.339844-2.988281-2.988282v-11.953125c0-1.648437 1.339843-2.988281 2.988281-2.988281 1.652344 0 2.988281 1.339844 2.988281 2.988281v11.953125c0 1.648438-1.335937 2.988282-2.988281 2.988282zm0 0" fill="#e0ebfc"/><path d="m372.875 271.285156c-1.648438 0-2.988281-1.339844-2.988281-2.988281v-11.953125c0-1.648438 1.339843-2.988281 2.988281-2.988281 1.652344 0 2.988281 1.339843 2.988281 2.988281v11.953125c0 1.648437-1.335937 2.988281-2.988281 2.988281zm0 0" fill="#e0ebfc"/><path d="m423.671875 220.488281h-11.953125c-1.652344 0-2.988281-1.335937-2.988281-2.988281 0-1.648438 1.335937-2.988281 2.988281-2.988281h11.953125c1.648437 0 2.984375 1.339843 2.984375 2.988281 0 1.652344-1.335938 2.988281-2.984375 2.988281zm0 0" fill="#e0ebfc"/><path d="m408.792969 256.40625c-.765625 0-1.53125-.289062-2.113281-.875l-8.453126-8.453125c-1.167968-1.164063-1.167968-3.054687 0-4.226563 1.167969-1.167968 3.0625-1.167968 4.226563 0l8.453125 8.453126c1.167969 1.167968 1.167969 3.058593 0 4.226562-.585938.585938-1.347656.875-2.113281.875zm0 0" fill="#e0ebfc"/><path d="m345.410156 193.023438c-.765625 0-1.53125-.292969-2.113281-.875l-8.449219-8.449219c-1.167968-1.167969-1.167968-3.058594 0-4.226563 1.167969-1.167968 3.058594-1.167968 4.226563 0l8.449219 8.449219c1.167968 1.164063 1.167968 3.058594 0 4.226563-.582032.585937-1.347657.875-2.113282.875zm0 0" fill="#e0ebfc"/><path d="m336.960938 256.40625c-.765626 0-1.527344-.289062-2.113282-.875-1.167968-1.164062-1.167968-3.058594 0-4.226562l8.449219-8.453126c1.167969-1.167968 3.058594-1.167968 4.226563 0 1.167968 1.167969 1.167968 3.058594 0 4.226563l-8.449219 8.453125c-.585938.585938-1.351563.875-2.113281.875zm0 0" fill="#e0ebfc"/><path d="m400.34375 193.023438c-.765625 0-1.53125-.292969-2.113281-.875-1.167969-1.167969-1.167969-3.058594 0-4.226563l8.453125-8.449219c1.167968-1.167968 3.058594-1.167968 4.222656 0 1.167969 1.164063 1.167969 3.058594 0 4.226563l-8.449219 8.449219c-.585937.585937-1.351562.875-2.113281.875zm0 0" fill="#e0ebfc"/><path d="m334.035156 220.488281h-11.953125c-1.648437 0-2.988281-1.335937-2.988281-2.988281 0-1.648438 1.339844-2.988281 2.988281-2.988281h11.953125c1.648438 0 2.988282 1.339843 2.988282 2.988281 0 1.652344-1.339844 2.988281-2.988282 2.988281zm0 0" fill="#e0ebfc"/><path d="m372.863281 221.816406c-2.207031 0-4-1.792968-3.996093-4.003906l.019531-45.21875c0-2.207031 1.792969-4 4-3.996094 2.210937 0 4 1.792969 4 4l-.019531 45.21875c-.003907 2.210938-1.796876 4-4.003907 4zm0 0" fill="#f9a7a7"/><path d="m368.867188 217.871094c-.042969-2.207032 1.269531-4.023438 2.929687-4.054688l33.957031-.625c1.65625-.03125 3.035156 1.734375 3.078125 3.945313.039063 2.207031-1.273437 4.023437-2.929687 4.054687l-33.957032.625c-1.660156.027344-3.039062-1.738281-3.078124-3.945312zm0 0" fill="#f9a7a7"/><path d="m373.695312 295.664062c-20.9375 0-40.625-8.164062-55.429687-22.992187-30.570313-30.605469-30.570313-80.410156 0-111.019531 14.804687-14.824219 34.492187-22.988282 55.429687-22.988282s40.625 8.164063 55.429688 22.988282c30.574219 30.609375 30.574219 80.414062 0 111.019531-14.804688 14.828125-34.492188 22.992187-55.429688 22.992187zm0-149c-18.796874 0-36.472656 7.332032-49.769531 20.640626-27.457031 27.492187-27.457031 72.222656 0 99.714843 13.292969 13.308594 30.96875 20.640625 49.769531 20.640625 18.800782 0 36.476563-7.332031 49.769532-20.640625 27.460937-27.492187 27.460937-72.222656 0-99.714843-13.292969-13.308594-30.972656-20.640626-49.769532-20.640626zm0 0" fill="#3762cc"/><path d="m430.90625 336.21875-36.949219-23.871094c-1.984375-1.277344-4.777343-.03125-4.777343 2.132813v4.699219c0 1.460937-1.34375 2.644531-3.003907 2.644531h-61.539062c-1.660157 0-3.003907 1.183593-3.003907 2.644531v27.765625c0 1.460937 1.34375 2.644531 3.003907 2.644531h61.539062c1.660157 0 3.003907 1.183594 3.003907 2.644532v4.699218c0 2.164063 2.792968 3.414063 4.777343 2.128906l36.949219-23.867187c1.636719-1.058594 1.636719-3.207031 0-4.265625zm0 0" fill="#ffea92"/><path d="m430.90625 96.21875-36.949219-23.871094c-1.984375-1.277344-4.777343-.03125-4.777343 2.132813v4.699219c0 1.460937-1.34375 2.644531-3.003907 2.644531h-61.539062c-1.660157 0-3.003907 1.183593-3.003907 2.644531v27.765625c0 1.460937 1.34375 2.644531 3.003907 2.644531h61.539062c1.660157 0 3.003907 1.183594 3.003907 2.644532v4.699218c0 2.164063 2.792968 3.414063 4.777343 2.128906l36.949219-23.867187c1.636719-1.058594 1.636719-3.207031 0-4.265625zm0 0" fill="#ffea92"/><path d="m392.1875 368.875c-1.203125 0-2.40625-.296875-3.503906-.894531-2.195313-1.195313-3.503906-3.347657-3.503906-5.757813v-3.34375h-60.542969c-3.859375 0-7-2.980468-7-6.644531v-27.765625c0-3.664062 3.140625-6.644531 7-6.644531h60.542969v-3.34375c0-2.410157 1.308593-4.5625 3.507812-5.757813 2.355469-1.285156 5.207031-1.175781 7.441406.265625l36.949219 23.875h.003906c1.910157 1.234375 3.054688 3.289063 3.054688 5.488281 0 2.203126-1.144531 4.257813-3.054688 5.492188l-36.953125 23.875c-1.195312.769531-2.566406 1.15625-3.941406 1.15625zm-66.550781-17.996094h60.542969c3.859374 0 7 2.980469 7 6.644532v2.570312l33.660156-21.742188-33.660156-21.742187v2.570313c0 3.664062-3.140626 6.644531-7 6.644531h-60.542969zm0 0" fill="#3762cc"/><path d="m392.1875 128.875c-1.203125 0-2.40625-.296875-3.503906-.894531-2.195313-1.195313-3.503906-3.347657-3.503906-5.757813v-3.34375h-60.542969c-3.859375 0-7-2.980468-7-6.644531v-27.765625c0-3.664062 3.140625-6.644531 7-6.644531h60.542969v-3.34375c0-2.410157 1.308593-4.5625 3.507812-5.757813 2.355469-1.289062 5.207031-1.175781 7.441406.265625l36.949219 23.875h.003906c1.910157 1.234375 3.054688 3.289063 3.054688 5.488281 0 2.203126-1.144531 4.257813-3.054688 5.492188l-36.953125 23.871094c-1.195312.773437-2.566406 1.160156-3.941406 1.160156zm-66.550781-17.996094h60.542969c3.859374 0 7 2.980469 7 6.644532v2.570312l33.660156-21.742188-33.660156-21.742187v2.570313c0 3.664062-3.140626 6.644531-7 6.644531h-60.542969zm0 0" fill="#3762cc"/><path d="m251.367188 123.3125h-9.644532c.046875 1.105469.078125 2.21875.078125 3.335938v8.710937c.199219-.003906.390625-.03125.589844-.03125 7.378906 0 14.078125 2.816406 19.128906 7.390625v-26.339844c-1.589843 4.054688-5.53125 6.933594-10.152343 6.933594zm0 0" fill="#4671c6"/><path d="m205.949219 273.527344h-15.078125c-.03125-.003906-.066406-.007813-.097656-.007813l-.007813.007813h-99.195313c-26.207031 0-47.449218 21.242187-47.449218 47.449218v43.078126h209.277344v-43.078126c0-26.203124-21.242188-47.449218-47.449219-47.449218zm0 0" fill="#a4c9ff"/><path d="m148.761719 262.609375c-15.207031 0-29.550781-3.617187-42.21875-10.027344v19.171875c0 .664063.09375 1.320313.234375 1.96875.003906 0 .007812 0 .011718-.003906.136719.648438.34375 1.269531.605469 1.871094.039063.082031.070313.160156.105469.238281.117188.246094.242188.484375.378906.71875.136719.230469.285156.449219.4375.667969.085938.117187.15625.242187.246094.351562l5.996094 7.625c5.972656 7.59375 14.253906 13.09375 23.628906 15.285156 1.257812.296876 2.566406.550782 3.914062.753907 15.222657 2.28125 30.449219-4.199219 39.914063-16.410157l8.742187-11.277343c.117188-.605469.199219-1.21875.199219-1.839844v-19.109375c-12.664062 6.402344-27.003906 10.015625-42.195312 10.015625zm0 0" fill="#f9cfcf"/><path d="m242.390625 135.332031c-.199219 0-.390625.027344-.589844.03125v-8.714843c0-50.921876-41.65625-92.199219-93.039062-92.199219-51.386719 0-93.042969 41.277343-93.042969 92.199219v8.714843c-.199219-.003906-.390625-.03125-.589844-.03125-15.675781 0-28.386718 12.59375-28.386718 28.128907 0 15.535156 12.710937 28.128906 28.386718 28.128906 1.03125 0 2.046875-.058594 3.046875-.164063 9.601563 40.789063 46.5 71.1875 90.585938 71.1875 44.085937 0 80.980469-30.398437 90.582031-71.1875 1.003906.105469 2.015625.164063 3.046875.164063 15.675781 0 28.386719-12.59375 28.386719-28.128906-.003906-15.535157-12.710938-28.128907-28.386719-28.128907zm0 0" fill="#f9cfcf"/><path d="m102.527344 178.09375c-5.386719 0-9.769532-4.378906-9.769532-9.765625v-16.277344c0-5.386719 4.382813-9.765625 9.769532-9.765625 5.382812 0 9.765625 4.382813 9.765625 9.765625v16.277344c0 5.386719-4.382813 9.765625-9.765625 9.765625zm0 0" fill="#3762cc"/><path d="m194.554688 178.09375c-5.382813 0-9.765626-4.378906-9.765626-9.765625v-16.277344c0-5.386719 4.382813-9.765625 9.765626-9.765625 5.386718 0 9.765624 4.382813 9.765624 9.765625v16.277344c0 5.386719-4.378906 9.765625-9.765624 9.765625zm0 0" fill="#3762cc"/><path d="m148.761719 266.609375c-44.203125 0-82.242188-29.035156-93.65625-71.019531-17.84375-.015625-32.359375-14.421875-32.359375-32.128906 0-16.574219 12.710937-30.257813 28.972656-31.953126v-4.859374c0-53.046876 43.535156-96.203126 97.042969-96.203126 53.507812 0 97.039062 43.152344 97.039062 96.203126v4.859374c16.261719 1.695313 28.972657 15.378907 28.972657 31.953126 0 17.707031-14.515626 32.117187-32.359376 32.128906-11.414062 41.984375-49.453124 71.019531-93.652343 71.019531zm-90.582031-79.1875c1.835937 0 3.460937 1.261719 3.890624 3.085937 9.4375 40.097657 45.085938 68.101563 86.691407 68.101563 41.601562 0 77.25-28.003906 86.6875-68.101563.460937-1.960937 2.308593-3.25 4.316406-3.0625.90625.097657 1.789063.144532 2.625.144532 13.445313 0 24.382813-10.824219 24.382813-24.128906 0-13.292969-10.917969-24.113282-24.347657-24.128907-.234375.015625-.390625.027344-.542969.03125-1.117187-.007812-2.117187-.390625-2.878906-1.144531-.769531-.753906-1.203125-1.785156-1.203125-2.855469v-8.710937c0-48.636719-39.941406-88.203125-89.039062-88.203125-49.101563 0-89.042969 39.5625-89.042969 88.199219v8.710937c0 1.074219-.429688 2.105469-1.199219 2.855469-.746093.734375-1.753906 1.144531-2.800781 1.144531-.023438 0-.050781 0-.078125 0-.160156-.003906-.316406-.015625-.46875-.023437-.003906 0-.011719 0-.011719 0-13.476562 0-24.414062 10.820312-24.414062 24.125 0 13.304687 10.941406 24.128906 24.386718 24.128906.84375 0 1.707032-.046875 2.625-.144532.140626-.015624.28125-.023437.421876-.023437zm0 0" fill="#3762cc"/><path d="m251.367188 123.3125h-23.839844c-18.574219 0-33.632813-15.058594-33.632813-33.632812v-56.78125c0-11.144532 9.035157-20.175782 20.179688-20.175782h2.640625c25.164062 0 45.5625 20.398438 45.5625 45.558594v54.121094c0 6.023437-4.886719 10.910156-10.910156 10.910156zm0 0" fill="#4671c6"/><path d="m251.367188 127.3125h-23.839844c-20.75 0-37.632813-16.882812-37.632813-37.632812v-56.777344c0-13.332032 10.847657-24.179688 24.179688-24.179688h2.640625c27.328125 0 49.5625 22.234375 49.5625 49.558594v54.121094c0 8.222656-6.6875 14.910156-14.910156 14.910156zm-37.292969-110.589844c-8.921875 0-16.179688 7.257813-16.179688 16.179688v56.777344c0 16.339843 13.292969 29.632812 29.632813 29.632812h23.839844c3.808593 0 6.90625-3.101562 6.90625-6.910156v-54.121094c0-22.914062-18.644532-41.558594-41.558594-41.558594zm0 0" fill="#3762cc"/><path d="m253.402344 368.054688h-209.28125c-2.210938 0-4-1.792969-4-4v-43.078126c0-28.371093 23.078125-51.449218 51.449218-51.449218h10.972657v-16.945313c0-1.386719.71875-2.679687 1.902343-3.410156 1.183594-.722656 2.660157-.789063 3.902344-.160156 12.589844 6.371093 26.183594 9.597656 40.414063 9.597656 14.21875 0 27.804687-3.222656 40.386719-9.585937 1.238281-.625 2.71875-.5625 3.902343.160156 1.183594.730468 1.902344 2.023437 1.902344 3.410156v16.933594h10.996094c28.371093 0 51.449219 23.078125 51.449219 51.449218v43.078126c.003906 2.207031-1.789063 4-3.996094 4zm-205.28125-8h201.28125v-39.078126c0-23.957031-19.492188-43.449218-43.453125-43.449218h-15.078125c-.035156 0-.066406 0-.101563 0-1.199219 0-2.339843-.539063-3.097656-1.464844-.761719-.921875-1.070313-2.144531-.835937-3.316406.078124-.414063.121093-.753906.121093-1.042969v-12.832031c-12.054687 5.136718-24.871093 7.742187-38.195312 7.742187-13.332031 0-26.160157-2.609375-38.21875-7.753906v12.894531c0 .289063.066406.664063.132812.996094.230469 1.171875-.074219 2.390625-.832031 3.316406-.761719.925782-1.894531 1.460938-3.09375 1.460938h-15.179688c-23.957031 0-43.453124 19.488281-43.453124 43.449218v39.078126zm0 0" fill="#3762cc"/><path d="m106.382812 265.847656h-14.382812c-1.933594 0-3.789062.695313-5.144531 1.925782l-8.632813 7.820312c-1.328125 1.203125-1.398437 3.113281-.160156 4.390625l46.625 48.085937c2.519531 2.601563 7.183594 2.089844 8.929688-.976562l14.972656-26.292969zm0 0" fill="#e0ebfc"/><path d="m190.476562 265.847656h14.382813c1.933594 0 3.789063.695313 5.148437 1.925782l8.628907 7.820312c1.328125 1.203125 1.398437 3.113281.160156 4.390625l-46.621094 48.085937c-2.523437 2.601563-7.1875 2.089844-8.933593-.976562l-14.972657-26.292969zm0 0" fill="#e0ebfc"/><path d="m142.050781 125.773438h-74.4375c-22.570312 0-40.867187-18.300782-40.867187-40.871094v-74.417969c0-3.566406 2.890625-6.457031 6.460937-6.457031h126.601563c18.824218 0 34.085937 15.261718 34.085937 34.085937v35.8125c0 28.632813-23.210937 51.847657-51.84375 51.847657zm0 0" fill="#4671c6"/><path d="m142.050781 129.773438h-74.4375c-24.738281 0-44.867187-20.128907-44.867187-44.871094v-74.417969c0-5.765625 4.691406-10.4570312 10.457031-10.4570312h126.605469c21 0 38.085937 17.0859372 38.085937 38.0859372v35.8125c0 30.792969-25.050781 55.847657-55.84375 55.847657zm-108.84375-121.746094c-1.355469 0-2.460937 1.101562-2.460937 2.457031v74.417969c0 20.328125 16.542968 36.871094 36.871094 36.871094h74.4375c26.378906 0 47.84375-21.464844 47.84375-47.847657v-35.8125c0-16.589843-13.496094-30.085937-30.085938-30.085937zm0 0" fill="#3762cc"/><path d="m156.65625 349.757812h-16.023438c-2.210937 0-4.007812-1.792968-4.007812-4.007812v-44.070312h24.039062v44.070312c0 2.214844-1.792968 4.007812-4.007812 4.007812zm0 0" fill="#e0ebfc"/><path d="m128.78125 333.742188c-2.636719 0-5.171875-1.035157-6.96875-2.886719l-46.621094-48.085938c-1.355468-1.398437-2.070312-3.21875-2.007812-5.128906.058594-1.914063.894531-3.691406 2.351562-5.011719l8.632813-7.820312c2.105469-1.90625 4.886719-2.957032 7.832031-2.957032h14.378906c.933594 0 1.835938.324219 2.550782.921876l42.207031 34.949218c1.496093 1.238282 1.886719 3.371094.925781 5.058594l-14.972656 26.292969c-1.441406 2.535156-4.007813 4.207031-7.042969 4.589843-.421875.054688-.84375.078126-1.265625.078126zm-47.15625-55.832032 45.929688 47.375c.402343.414063 1.035156.5 1.488281.441406.503906-.0625.914062-.292968 1.09375-.609374l13.3125-23.378907-38.507813-31.886719h-12.941406c-.941406 0-1.839844.324219-2.457031.886719zm0 0" fill="#3762cc"/><path d="m168.074219 333.742188c-.417969 0-.84375-.027344-1.265625-.082032-3.035156-.382812-5.601563-2.054687-7.042969-4.589844l-14.972656-26.292968c-.960938-1.6875-.570313-3.820313.925781-5.058594l42.207031-34.949219c.714844-.597656 1.621094-.921875 2.550781-.921875h14.378907c2.945312 0 5.726562 1.050782 7.835937 2.960938l8.628906 7.820312c1.457032 1.316406 2.292969 3.101563 2.355469 5.015625.058594 1.90625-.652343 3.726563-2.015625 5.125l-46.617187 48.082031c-1.796875 1.855469-4.328125 2.890626-6.96875 2.890626zm-14.667969-32.003907 13.3125 23.378907c.183594.316406.59375.542968 1.097656.609374.453125.058594 1.085938-.027343 1.484375-.441406l45.933594-47.375-7.917969-7.171875c-.621094-.566406-1.519531-.890625-2.457031-.890625h-12.941406zm0 0" fill="#3762cc"/><path d="m164.316406 205.289062h-31.136718c-1.699219 0-3.074219 1.375-3.074219 3.074219v7.683594c0 2.839844 1.214843 5.597656 3.453125 7.859375 2.683594 2.707031 6.628906 4.453125 10.941406 4.949219h8.492188c4.316406-.492188 8.257812-2.242188 10.941406-4.949219 2.242187-2.257812 3.453125-5.019531 3.453125-7.859375v-7.683594c.003906-1.699219-1.371094-3.074219-3.070313-3.074219zm0 0" fill="#f9a7a7"/><path d="m152.992188 231.851562h-8.488282c-.117187 0-.230468-.003906-.34375-.019531-5.0625-.582031-9.585937-2.648437-12.726562-5.816406-2.792969-2.808594-4.324219-6.351563-4.324219-9.96875v-7.6875c0-3.347656 2.722656-6.070313 6.070313-6.070313h31.136718c3.347656 0 6.070313 2.722657 6.070313 6.070313v7.6875c0 3.617187-1.535157 7.160156-4.320313 9.96875-3.144531 3.167969-7.667968 5.234375-12.730468 5.816406-.113282.015625-.226563.019531-.34375.019531zm-8.3125-6h8.136718c3.597656-.445312 6.867188-1.921874 8.988282-4.058593 1.691406-1.707031 2.582031-3.695313 2.582031-5.746094l-.070313-7.757813h-31.136718l-.070313 7.757813c0 2.050781.890625 4.039063 2.582031 5.746094 2.125 2.136719 5.390625 3.613281 8.988282 4.058593zm0 0" fill="#3762cc"/><path d="m141.234375 347.328125v65.398437l-137.230469.648438v-84.476562c0-8.855469 5.792969-15.539063 12.070313-13.917969zm0 0" fill="#6bdddd"/><path d="m156.914062 347.328125v65.398437l137.234376.648438v-84.476562c0-8.855469-5.796876-15.539063-12.074219-13.917969zm0 0" fill="#6bdddd"/><path d="m179.46875 380.195312v32.808594l98.777344.371094v-48.566406c0-5.09375-4.171875-8.933594-8.6875-8.003906l-85.398438 17.628906c-2.730468.566406-4.691406 2.972656-4.691406 5.761718zm0 0" fill="#e0ebfc"/><path d="m294.148438 417.375c-.003907 0-.011719 0-.019532 0l-137.230468-.644531c-2.203126-.011719-3.980469-1.800781-3.980469-4v-65.398438c0-1.824219 1.234375-3.417969 2.996093-3.875l125.164063-32.347656c3.558594-.925781 7.210937-.121094 10.28125 2.253906 4.253906 3.292969 6.789063 9.101563 6.789063 15.535157v84.476562c0 1.0625-.421876 2.082031-1.175782 2.835938-.75.746093-1.765625 1.164062-2.824218 1.164062zm-133.234376-8.628906 129.234376.605468v-80.453124c0-3.859376-1.449219-7.472657-3.691407-9.207032-1.097656-.851562-2.234375-1.128906-3.382812-.835937l-122.160157 31.574219zm0 0" fill="#3762cc"/><path d="m4 417.375c-1.054688 0-2.070312-.417969-2.820312-1.164062-.753907-.753907-1.179688-1.773438-1.179688-2.835938v-84.476562c0-6.433594 2.539062-12.238282 6.792969-15.535157 3.066406-2.375 6.71875-3.167969 10.277343-2.253906l125.164063 32.347656c1.761719.457031 2.996094 2.046875 2.996094 3.875v65.398438c0 2.199219-1.777344 3.988281-3.976563 4l-137.234375.644531c-.007812 0-.011719 0-.019531 0zm10.191406-98.636719c-.847656 0-1.683594.320313-2.5.953125-2.242187 1.734375-3.691406 5.351563-3.691406 9.207032v80.457031l129.230469-.605469v-58.320312l-122.160157-31.574219c-.292968-.078125-.585937-.117188-.878906-.117188zm0 0" fill="#3762cc"/><path d="m133.390625 346.378906h31.371094v66.398438h-31.371094zm0 0" fill="#4671c6"/><path d="m164.757812 416.777344h-31.367187c-2.207031 0-4-1.792969-4-4v-66.398438c0-2.207031 1.792969-4 4-4h31.371094c2.207031 0 4 1.792969 4 4v66.398438c-.003907 2.207031-1.792969 4-4.003907 4zm-27.367187-8h23.371094v-58.398438h-23.371094zm0 0" fill="#3762cc"/><path d="m261.519531 145.71875c-.730469 0-1.453125-.265625-2.015625-.777344-4.707031-4.265625-10.785156-6.613281-17.117187-6.613281-.246094.019531-.382813.027344-.527344.03125-.800781-.042969-1.585937-.292969-2.160156-.859375-.574219-.5625-.898438-1.335938-.898438-2.140625v-8.710937c0-1.074219-.03125-2.144532-.078125-3.207032-.03125-.816406.265625-1.613281.832032-2.203125.566406-.589843 1.347656-.925781 2.167968-.925781h9.644532c3.269531 0 6.160156-1.972656 7.355468-5.027344.53125-1.34375 1.9375-2.128906 3.351563-1.855468 1.417969.269531 2.445312 1.507812 2.445312 2.949218v26.339844c0 1.1875-.703125 2.261719-1.785156 2.742188-.390625.175781-.804687.257812-1.214844.257812zm-16.71875-13.296875c4.871094.375 9.554688 1.871094 13.71875 4.359375v-12.433594c-2.109375 1.261719-4.5625 1.964844-7.152343 1.964844h-6.566407zm0 0" fill="#3762cc"/><path d="m36.34375 111.195312v30.964844c4.96875-4.246094 11.429688-6.828125 18.503906-6.828125.199219 0 .390625.027344.589844.03125v-8.710937c0-.910156.03125-1.804688.0625-2.703125-7.5625-2.351563-14.179688-6.839844-19.15625-12.753907zm0 0" fill="#4671c6"/><path d="m36.34375 146.15625c-.566406 0-1.136719-.121094-1.675781-.367188-1.414063-.652343-2.324219-2.070312-2.324219-3.632812v-30.964844c0-1.679687 1.050781-3.183594 2.628906-3.757812 1.578125-.578125 3.347656-.101563 4.429688 1.183594 4.582031 5.445312 10.558594 9.421874 17.285156 11.507812 1.714844.535156 2.871094 2.152344 2.808594 3.953125l-.011719.386719c-.023437.726562-.046875 1.453125-.046875 2.183594v8.710937c0 1.074219-.433594 2.105469-1.203125 2.855469-.765625.753906-1.730469 1.144531-2.878906 1.144531-.15625-.003906-.3125-.015625-.46875-.023437-.007813 0-.015625 0-.019531 0-5.855469 0-11.496094 2.082031-15.925782 5.867187-.738281.625-1.664062.953125-2.597656.953125zm4-25.628906v14.222656c3.464844-1.726562 7.222656-2.832031 11.09375-3.242188v-4.746093c-3.984375-1.539063-7.714844-3.636719-11.09375-6.234375zm0 0" fill="#3762cc"/></svg>