<svg id="Capa_1" enable-background="new 0 0 512 512" height="512" viewBox="0 0 512 512" width="512" xmlns="http://www.w3.org/2000/svg"><g><path d="m380.828 229.625c24.737 0 44.79 20.053 44.79 44.791 0 24.737-20.053 44.79-44.79 44.79s-44.791-20.053-44.791-44.79c0-24.738 20.054-44.791 44.791-44.791z" fill="#edbb87"/><path d="m292.862 216.958 44.806-44.806c12.513-12.513 12.513-32.8 0-45.312-12.69-12.69-33.327-12.483-45.761.457l-62.386 64.932-14.75 64.208-118.308 118.794c4.289-.823 8.674-1.177 13.033-1.177 3.447 0 6.896.023 10.344.057 3.12-.598 6.261-1.119 9.432-1.554 19.309-2.649 38.822-2.472 58.25-1.582 15.883.728 31.768 1.168 47.658 1.46 9.768-.149 19.539-.214 29.289-.15 9.494.062 18.9.391 28.043 2.259 3.819-3.749 8.509-6.187 13.879-7.289.682-2.527 2.715-4.636 6.109-4.641 8.178-.012 16.567-.228 24.607 1.543 6.371 1.403 15.036 3.953 19.798 8.635.291.287.536.583.759.882l19.858-.955c-97.148-39.027-84.705-155.62-84.66-155.761z" fill="#f1d0a4"/><path d="m292.862 216.958 44.806-44.806c12.513-12.513 12.513-32.8 0-45.312-12.69-12.69-33.327-12.483-45.761.457l-62.386 64.932-13.297 57.882v121.886c6.317.172 12.636.32 18.955.436 9.768-.149 19.539-.214 29.289-.15 9.494.062 18.9.391 28.043 2.259 3.819-3.749 8.509-6.187 13.879-7.289.682-2.527 2.715-4.636 6.109-4.641 8.178-.012 16.567-.228 24.607 1.543 6.371 1.403 15.036 3.953 19.798 8.635.291.287.536.583.759.882l19.858-.955c-97.147-39.025-84.704-155.618-84.659-155.759z" fill="#edbb87"/><path d="m148.713 102.665c0 34.058-27.609 61.667-61.666 61.667-34.058 0-61.668-27.609-61.668-61.667 0-34.057 27.61-61.667 61.668-61.667 34.057.001 61.666 27.61 61.666 61.667z" fill="#ecbd2c"/><path d="m477.483 350.863c-18.737-9.017-40.228-9.017-58.966 0-21.361 10.28-47.706 10.264-69.034 0-18.736-9.017-40.228-9.017-58.966 0-21.361 10.28-47.705 10.264-69.034 0-12.807-6.163-26.898-8.085-40.52-5.823-.32.049-.643.08-.963.138-5.977 1.081-11.855 2.976-17.482 5.685-21.363 10.28-47.705 10.264-69.034 0-18.737-9.016-40.229-9.016-58.966 0-10.478 5.042-22.414 7.706-34.518 7.706v30c16.58 0 33.014-3.69 47.525-10.673 10.471-5.038 22.48-5.038 32.949 0 29.469 14.18 65.397 14.269 95.051 0 1.464-.705 2.958-1.311 4.474-1.818h.001v.012c9.325-3.122 19.469-2.527 28.475 1.807 29.587 14.237 65.519 14.21 95.051 0 10.472-5.039 22.48-5.039 32.949 0 29.586 14.237 65.518 14.211 95.051 0 10.473-5.039 22.48-5.039 32.949 0 14.511 6.982 30.944 10.673 47.525 10.673v-30c-12.104-.001-24.041-2.665-34.517-7.707z" fill="#97e4fd"/><path d="m477.483 433.296c-18.737-9.017-40.228-9.017-58.966 0-21.361 10.28-47.706 10.264-69.034 0-18.736-9.017-40.228-9.017-58.966 0-21.361 10.28-47.705 10.264-69.034 0-12.799-6.159-26.882-8.083-40.496-5.826-.329.05-.659.082-.987.142-5.977 1.081-11.855 2.976-17.482 5.685-21.363 10.28-47.705 10.264-69.034 0-18.737-9.016-40.229-9.016-58.966 0-10.478 5.04-22.414 7.704-34.518 7.704v30c16.58 0 33.014-3.69 47.525-10.673 10.471-5.038 22.48-5.038 32.949 0 29.469 14.181 65.397 14.269 95.051 0 1.464-.704 2.958-1.311 4.474-1.818h.001v.012c9.325-3.122 19.469-2.527 28.475 1.807 29.587 14.237 65.519 14.21 95.051 0 10.472-5.039 22.48-5.039 32.949 0 29.586 14.237 65.518 14.211 95.051 0 10.473-5.039 22.48-5.039 32.949 0 14.511 6.982 30.944 10.673 47.525 10.673v-30c-12.104-.001-24.041-2.665-34.517-7.706z" fill="#7dc1fc"/><path d="m477.483 350.863c-18.737-9.017-40.228-9.017-58.966 0-21.361 10.28-47.706 10.264-69.034 0-18.736-9.017-40.228-9.017-58.966 0-21.361 10.28-47.705 10.264-69.034 0-1.73-.833-3.485-1.581-5.259-2.259v32.634c27.958 10.779 60.303 9.65 87.301-3.341 10.472-5.039 22.48-5.039 32.949 0 29.586 14.237 65.518 14.211 95.051 0 10.473-5.039 22.48-5.039 32.949 0 14.511 6.982 30.944 10.673 47.525 10.673v-30c-12.103-.001-24.04-2.665-34.516-7.707z" fill="#7dc1fc"/><path d="m477.483 433.296c-18.737-9.017-40.228-9.017-58.966 0-21.361 10.28-47.706 10.264-69.034 0-18.736-9.017-40.228-9.017-58.966 0-21.361 10.28-47.705 10.264-69.034 0-1.73-.833-3.485-1.581-5.259-2.259v32.634c27.958 10.779 60.303 9.65 87.301-3.341 10.472-5.039 22.48-5.039 32.949 0 29.586 14.237 65.518 14.211 95.051 0 10.473-5.039 22.48-5.039 32.949 0 14.511 6.982 30.944 10.673 47.525 10.673v-30c-12.103-.002-24.04-2.666-34.516-7.707z" fill="#6fa3fb"/></g></svg>