<svg id="Capa_1" enable-background="new 0 0 512 512" height="512" viewBox="0 0 512 512" width="512" xmlns="http://www.w3.org/2000/svg"><g><path d="m47 473v24c0 8.28-6.72 15-15 15s-15-6.72-15-15v-24c0-8.28 6.72-15 15-15s15 6.72 15 15z" fill="#4a696f"/><path d="m495 473v24c0 8.28-6.72 15-15 15s-15-6.72-15-15v-24c0-8.28 6.72-15 15-15s15 6.72 15 15z" fill="#384949"/><path d="m272 15s216 49 216 225c0 216-216 248-216 248h-255v-473z" fill="#a34f3e"/><path d="m144 15h128v473h-128z" fill="#873f2e"/><path d="m495 15v148s-41.63 101.08-111 101.56c-.17.01-.33.01-.5.01-69.67 0-111.5-101.57-111.5-101.57v-148z" fill="#edf5ff"/><path d="m495 15v148s-41.63 101.08-111 101.56v-249.56z" fill="#d5e8fe"/><path d="m272 193h223v295h-223z" fill="#a34f3e"/><path d="m384 193h111v295h-111z" fill="#873f2e"/><path d="m272 378h223v30h-223z" fill="#c86e59"/><path d="m384 378h111v30h-111z" fill="#a34f3e"/><path d="m272 272h223v30h-223z" fill="#c86e59"/><path d="m384 272h111v30h-111z" fill="#a34f3e"/><path d="m272 163h223v30h-223z" fill="#c86e59"/><path d="m384 163h111v30h-111z" fill="#a34f3e"/><path d="m309.17 14.87c0 7.66-37.17 15.13-37.17 15.13h-256c-8.28 0-15-6.72-15-15s6.72-15 15-15h256s37.17 7.21 37.17 14.87z" fill="#4a696f"/><path d="m496 0h-224v30h224c8.284 0 15-6.716 15-15s-6.716-15-15-15z" fill="#384949"/><circle cx="200" cy="256" fill="#fabe2c" r="15"/><circle cx="88" cy="256" fill="#fed843" r="15"/></g></svg>