<svg height="512" viewBox="0 0 64 64" width="512" xmlns="http://www.w3.org/2000/svg"><g id="flat"><g fill="#50b4f8"><path d="m11 32h42v2h-42z"/><path d="m11 39h42v2h-42z"/><path d="m11 26h42v2h-42z"/><path d="m11 45h42v2h-42z"/><path d="m3 55h58v6h-58z"/></g><path d="m25 23h14v13h-14z" fill="#ffd782"/><path d="m44 51v-7l-5-5-4 3 4 4v9h10v-4z" fill="#ffd782"/><path d="m20 51v-7l5-5 4 3-4 4v9h-10v-4z" fill="#ffd782"/><path d="m25 36v3l4 3h6l4-3v-3z" fill="#dd3e46"/><path d="m20 23-4 2v7.779a3 3 0 1 0 4.176.166l.824-4.945h4v-5z" fill="#f9bb4b"/><path d="m44 23 4 2v7.779a3 3 0 1 1 -4.176.166l-.824-4.945h-4v-5z" fill="#f9bb4b"/><path d="m28 26h2v2h-2z" fill="#f9bb4b"/><path d="m34 26h2v2h-2z" fill="#f9bb4b"/><path d="m28 3h8a3 3 0 0 1 3 3v13a0 0 0 0 1 0 0h-14a0 0 0 0 1 0 0v-13a3 3 0 0 1 3-3z" fill="#fcf05a"/><path d="m34 8.667v-5.667h-4v5.667l-5-1.667v8h14v-8z" fill="#dd3e46"/><path d="m28 10h2v2h-2z" fill="#394d5c"/><path d="m34 10h2v2h-2z" fill="#394d5c"/><path d="m5 23h4a2 2 0 0 1 2 2v30a0 0 0 0 1 0 0h-8a0 0 0 0 1 0 0v-30a2 2 0 0 1 2-2z" fill="#195c85"/><path d="m55 23h4a2 2 0 0 1 2 2v30a0 0 0 0 1 0 0h-8a0 0 0 0 1 0 0v-30a2 2 0 0 1 2-2z" fill="#195c85"/><path d="m6 46h2v2h-2z" fill="#f4f4e6"/><path d="m6 50h2v2h-2z" fill="#f4f4e6"/><path d="m56 50h2v2h-2z" fill="#f4f4e6"/><path d="m56 46h2v2h-2z" fill="#f4f4e6"/><path d="m29 15h6v4h-6z" fill="#f9bb4b"/></g></svg>